M48
; DRILL file {KiCad (6.0.10)} date Fri Feb  3 22:18:11 2023
; FORMAT={-:-/ absolute / metric / decimal}
; #@! TF.CreationDate,2023-02-03T22:18:11+05:30
; #@! TF.GenerationSoftware,Kicad,Pcbnew,(6.0.10)
; #@! TF.FileFunction,Plated,1,2,PTH
FMAT,2
METRIC
; #@! TA.AperFunction,Plated,PTH,ViaDrill
T1C0.400
; #@! TA.AperFunction,Plated,PTH,ComponentDrill
T2C0.850
; #@! TA.AperFunction,Plated,PTH,ComponentDrill
T3C1.550
%
G90
G05
T1
X110.924Y-34.366
X110.924Y-37.414
X110.924Y-53.892
X110.924Y-56.94
X110.924Y-73.418
X110.924Y-76.466
X110.924Y-92.944
X110.924Y-95.992
X111.305Y-31.572
X111.305Y-40.081
X111.305Y-51.098
X111.305Y-59.607
X111.305Y-70.624
X111.305Y-79.133
X111.305Y-90.15
X111.305Y-98.659
X113.21Y-33.35
X113.21Y-38.43
X113.21Y-52.876
X113.21Y-57.956
X113.21Y-72.402
X113.21Y-77.482
X113.21Y-91.928
X113.21Y-97.008
X114.48Y-40.208
X114.48Y-59.734
X114.48Y-79.26
X114.48Y-98.786
X114.734Y-31.826
X114.734Y-51.352
X114.734Y-70.878
X114.734Y-90.404
X115.242Y-35.89
X115.242Y-55.416
X115.242Y-74.942
X115.242Y-94.468
X116.512Y-30.81
X116.512Y-41.224
X116.512Y-50.336
X116.512Y-60.75
X116.512Y-69.862
X116.512Y-80.276
X116.512Y-89.388
X116.512Y-99.802
X119.052Y-41.224
X119.052Y-60.75
X119.052Y-80.276
X119.052Y-99.802
X119.306Y-35.89
X119.306Y-55.416
X119.306Y-74.942
X119.306Y-94.468
X120.068Y-30.81
X120.068Y-50.336
X120.068Y-69.862
X120.068Y-89.388
X121.055Y-37.316
X121.055Y-56.842
X121.055Y-76.368
X121.055Y-95.894
X121.084Y-29.286
X121.084Y-34.62
X121.084Y-43.51
X121.084Y-48.812
X121.084Y-54.146
X121.084Y-63.036
X121.084Y-68.338
X121.084Y-73.672
X121.084Y-82.562
X121.084Y-87.864
X121.084Y-93.198
X121.084Y-102.088
X123.116Y-29.286
X123.116Y-34.62
X123.116Y-43.51
X123.116Y-48.812
X123.116Y-54.146
X123.116Y-63.036
X123.116Y-68.338
X123.116Y-73.672
X123.116Y-82.562
X123.116Y-87.864
X123.116Y-93.198
X123.116Y-102.088
X123.145Y-37.316
X123.145Y-56.842
X123.145Y-76.368
X123.145Y-95.894
X124.132Y-30.81
X124.132Y-50.336
X124.132Y-69.862
X124.132Y-89.388
X124.64Y-40.97
X124.64Y-60.496
X124.64Y-80.022
X124.64Y-99.548
X124.894Y-35.89
X124.894Y-55.416
X124.894Y-74.942
X124.894Y-94.468
X127.688Y-35.89
X127.688Y-40.97
X127.688Y-55.416
X127.688Y-60.496
X127.688Y-74.942
X127.688Y-80.022
X127.688Y-94.468
X127.688Y-99.548
X128.196Y-30.81
X128.196Y-50.336
X128.196Y-69.862
X128.196Y-89.388
X129.212Y-29.286
X129.212Y-34.62
X129.212Y-37.414
X129.212Y-43.002
X129.212Y-48.812
X129.212Y-54.146
X129.212Y-56.94
X129.212Y-62.528
X129.212Y-68.338
X129.212Y-73.672
X129.212Y-76.466
X129.212Y-82.054
X129.212Y-87.864
X129.212Y-93.198
X129.212Y-95.992
X129.212Y-101.58
X131.244Y-29.286
X131.244Y-34.62
X131.244Y-37.414
X131.244Y-43.002
X131.244Y-48.812
X131.244Y-54.146
X131.244Y-56.94
X131.244Y-62.528
X131.244Y-68.338
X131.244Y-73.672
X131.244Y-76.466
X131.244Y-82.054
X131.244Y-87.864
X131.244Y-93.198
X131.244Y-95.992
X131.244Y-101.58
X132.26Y-30.81
X132.26Y-50.336
X132.26Y-69.862
X132.26Y-89.388
X132.768Y-35.89
X132.768Y-55.416
X132.768Y-74.942
X132.768Y-94.468
X133.022Y-40.97
X133.022Y-60.496
X133.022Y-80.022
X133.022Y-99.548
X135.816Y-35.89
X135.816Y-55.416
X135.816Y-74.942
X135.816Y-94.468
X136.07Y-40.97
X136.07Y-60.496
X136.07Y-80.022
X136.07Y-99.548
X136.578Y-30.81
X136.578Y-50.336
X136.578Y-69.862
X136.578Y-89.388
X137.594Y-34.62
X137.594Y-37.414
X137.594Y-54.146
X137.594Y-56.94
X137.594Y-73.672
X137.594Y-76.466
X137.594Y-93.198
X137.594Y-95.992
X137.848Y-41.478
X137.848Y-61.004
X137.848Y-80.53
X137.848Y-100.056
X138.102Y-30.302
X138.102Y-49.828
X138.102Y-69.354
X138.102Y-88.88
X140.388Y-38.938
X140.388Y-41.478
X140.388Y-58.464
X140.388Y-61.004
X140.388Y-77.99
X140.388Y-80.53
X140.388Y-97.516
X140.388Y-100.056
X140.642Y-30.302
X140.642Y-32.671
X140.642Y-49.828
X140.642Y-52.197
X140.642Y-69.354
X140.642Y-71.723
X140.642Y-88.88
X140.642Y-91.249
X156.358Y-38.855
X156.358Y-41.224
X156.358Y-58.381
X156.358Y-60.75
X156.358Y-77.907
X156.358Y-80.276
X156.358Y-97.433
X156.358Y-99.802
X156.612Y-30.048
X156.612Y-32.588
X156.612Y-49.574
X156.612Y-52.114
X156.612Y-69.1
X156.612Y-71.64
X156.612Y-88.626
X156.612Y-91.166
X158.898Y-41.224
X158.898Y-60.75
X158.898Y-80.276
X158.898Y-99.802
X159.152Y-30.048
X159.152Y-49.574
X159.152Y-69.1
X159.152Y-88.626
X159.406Y-34.112
X159.406Y-36.906
X159.406Y-53.638
X159.406Y-56.432
X159.406Y-73.164
X159.406Y-75.958
X159.406Y-92.69
X159.406Y-95.484
X160.422Y-40.716
X160.422Y-60.242
X160.422Y-79.768
X160.422Y-99.294
X160.93Y-30.556
X160.93Y-50.082
X160.93Y-69.608
X160.93Y-89.134
X161.184Y-35.636
X161.184Y-55.162
X161.184Y-74.688
X161.184Y-94.214
X163.978Y-30.556
X163.978Y-50.082
X163.978Y-69.608
X163.978Y-89.134
X164.232Y-35.636
X164.232Y-55.162
X164.232Y-74.688
X164.232Y-94.214
X164.74Y-40.716
X164.74Y-60.242
X164.74Y-79.768
X164.74Y-99.294
X165.756Y-28.524
X165.756Y-34.112
X165.756Y-36.906
X165.756Y-42.24
X165.756Y-48.05
X165.756Y-53.638
X165.756Y-56.432
X165.756Y-61.766
X165.756Y-67.576
X165.756Y-73.164
X165.756Y-75.958
X165.756Y-81.292
X165.756Y-87.102
X165.756Y-92.69
X165.756Y-95.484
X165.756Y-100.818
X167.788Y-28.524
X167.788Y-34.112
X167.788Y-36.906
X167.788Y-42.24
X167.788Y-48.05
X167.788Y-53.638
X167.788Y-56.432
X167.788Y-61.766
X167.788Y-67.576
X167.788Y-73.164
X167.788Y-75.958
X167.788Y-81.292
X167.788Y-87.102
X167.788Y-92.69
X167.788Y-95.484
X167.788Y-100.818
X168.804Y-40.716
X168.804Y-60.242
X168.804Y-79.768
X168.804Y-99.294
X169.312Y-30.556
X169.312Y-35.636
X169.312Y-50.082
X169.312Y-55.162
X169.312Y-69.608
X169.312Y-74.688
X169.312Y-89.134
X169.312Y-94.214
X172.106Y-35.636
X172.106Y-55.162
X172.106Y-74.688
X172.106Y-94.214
X172.36Y-30.556
X172.36Y-50.082
X172.36Y-69.608
X172.36Y-89.134
X172.868Y-40.716
X172.868Y-60.242
X172.868Y-79.768
X172.868Y-99.294
X173.855Y-34.21
X173.855Y-53.736
X173.855Y-73.262
X173.855Y-92.788
X173.884Y-28.016
X173.884Y-36.906
X173.884Y-42.24
X173.884Y-47.542
X173.884Y-56.432
X173.884Y-61.766
X173.884Y-67.068
X173.884Y-75.958
X173.884Y-81.292
X173.884Y-86.594
X173.884Y-95.484
X173.884Y-100.818
X175.916Y-28.016
X175.916Y-36.906
X175.916Y-42.24
X175.916Y-47.542
X175.916Y-56.432
X175.916Y-61.766
X175.916Y-67.068
X175.916Y-75.958
X175.916Y-81.292
X175.916Y-86.594
X175.916Y-95.484
X175.916Y-100.818
X175.945Y-34.21
X175.945Y-53.736
X175.945Y-73.262
X175.945Y-92.788
X176.932Y-40.716
X176.932Y-60.242
X176.932Y-79.768
X176.932Y-99.294
X177.694Y-35.636
X177.694Y-55.162
X177.694Y-74.688
X177.694Y-94.214
X177.948Y-30.302
X177.948Y-49.828
X177.948Y-69.354
X177.948Y-88.88
X180.488Y-30.302
X180.488Y-40.716
X180.488Y-49.828
X180.488Y-60.242
X180.488Y-69.354
X180.488Y-79.768
X180.488Y-88.88
X180.488Y-99.294
X181.758Y-35.636
X181.758Y-55.162
X181.758Y-74.688
X181.758Y-94.214
X182.266Y-39.7
X182.266Y-59.226
X182.266Y-78.752
X182.266Y-98.278
X182.52Y-31.318
X182.52Y-50.844
X182.52Y-70.37
X182.52Y-89.896
X183.79Y-33.096
X183.79Y-38.176
X183.79Y-52.622
X183.79Y-57.702
X183.79Y-72.148
X183.79Y-77.228
X183.79Y-91.674
X183.79Y-96.754
X185.695Y-31.445
X185.695Y-39.954
X185.695Y-50.971
X185.695Y-59.48
X185.695Y-70.497
X185.695Y-79.006
X185.695Y-90.023
X185.695Y-98.532
X186.076Y-34.112
X186.076Y-37.16
X186.076Y-53.638
X186.076Y-56.686
X186.076Y-73.164
X186.076Y-76.212
X186.076Y-92.69
X186.076Y-95.738
T2
X139.118Y-40.208
X139.118Y-40.208
X139.118Y-40.208
X139.118Y-40.208
X139.118Y-40.208
X139.118Y-40.208
X139.118Y-40.208
X139.118Y-40.208
X139.118Y-59.734
X139.118Y-59.734
X139.118Y-59.734
X139.118Y-59.734
X139.118Y-59.734
X139.118Y-59.734
X139.118Y-59.734
X139.118Y-59.734
X139.118Y-79.26
X139.118Y-79.26
X139.118Y-79.26
X139.118Y-79.26
X139.118Y-79.26
X139.118Y-79.26
X139.118Y-79.26
X139.118Y-79.26
X139.118Y-98.786
X139.118Y-98.786
X139.118Y-98.786
X139.118Y-98.786
X139.118Y-98.786
X139.118Y-98.786
X139.118Y-98.786
X139.118Y-98.786
X139.372Y-31.572
X139.372Y-31.572
X139.372Y-31.572
X139.372Y-31.572
X139.372Y-51.098
X139.372Y-51.098
X139.372Y-51.098
X139.372Y-51.098
X139.372Y-70.624
X139.372Y-70.624
X139.372Y-70.624
X139.372Y-70.624
X139.372Y-90.15
X139.372Y-90.15
X139.372Y-90.15
X139.372Y-90.15
X157.628Y-39.954
X157.628Y-39.954
X157.628Y-39.954
X157.628Y-39.954
X157.628Y-59.48
X157.628Y-59.48
X157.628Y-59.48
X157.628Y-59.48
X157.628Y-79.006
X157.628Y-79.006
X157.628Y-79.006
X157.628Y-79.006
X157.628Y-98.532
X157.628Y-98.532
X157.628Y-98.532
X157.628Y-98.532
X157.882Y-31.318
X157.882Y-31.318
X157.882Y-31.318
X157.882Y-31.318
X157.882Y-31.318
X157.882Y-31.318
X157.882Y-31.318
X157.882Y-31.318
X157.882Y-50.844
X157.882Y-50.844
X157.882Y-50.844
X157.882Y-50.844
X157.882Y-50.844
X157.882Y-50.844
X157.882Y-50.844
X157.882Y-50.844
X157.882Y-70.37
X157.882Y-70.37
X157.882Y-70.37
X157.882Y-70.37
X157.882Y-70.37
X157.882Y-70.37
X157.882Y-70.37
X157.882Y-70.37
X157.882Y-89.896
X157.882Y-89.896
X157.882Y-89.896
X157.882Y-89.896
X157.882Y-89.896
X157.882Y-89.896
X157.882Y-89.896
X157.882Y-89.896
T3
X144.706Y-29.032
X144.706Y-29.032
X144.706Y-48.558
X144.706Y-48.558
X144.706Y-68.084
X144.706Y-68.084
X144.706Y-87.61
X144.706Y-87.61
X144.833Y-34.112
X144.833Y-34.112
X144.833Y-37.668
X144.833Y-37.668
X144.833Y-37.668
X144.833Y-42.748
X144.833Y-42.748
X144.833Y-42.748
X144.833Y-53.638
X144.833Y-53.638
X144.833Y-57.194
X144.833Y-57.194
X144.833Y-57.194
X144.833Y-62.274
X144.833Y-62.274
X144.833Y-62.274
X144.833Y-73.164
X144.833Y-73.164
X144.833Y-76.72
X144.833Y-76.72
X144.833Y-76.72
X144.833Y-81.8
X144.833Y-81.8
X144.833Y-81.8
X144.833Y-92.69
X144.833Y-92.69
X144.833Y-96.246
X144.833Y-96.246
X144.833Y-96.246
X144.833Y-101.326
X144.833Y-101.326
X144.833Y-101.326
X152.167Y-28.778
X152.167Y-28.778
X152.167Y-28.778
X152.167Y-33.858
X152.167Y-33.858
X152.167Y-33.858
X152.167Y-37.414
X152.167Y-37.414
X152.167Y-48.304
X152.167Y-48.304
X152.167Y-48.304
X152.167Y-53.384
X152.167Y-53.384
X152.167Y-53.384
X152.167Y-56.94
X152.167Y-56.94
X152.167Y-67.83
X152.167Y-67.83
X152.167Y-67.83
X152.167Y-72.91
X152.167Y-72.91
X152.167Y-72.91
X152.167Y-76.466
X152.167Y-76.466
X152.167Y-87.356
X152.167Y-87.356
X152.167Y-87.356
X152.167Y-92.436
X152.167Y-92.436
X152.167Y-92.436
X152.167Y-95.992
X152.167Y-95.992
X152.294Y-42.494
X152.294Y-42.494
X152.294Y-62.02
X152.294Y-62.02
X152.294Y-81.546
X152.294Y-81.546
X152.294Y-101.072
X152.294Y-101.072
T0
M30
