%TF.GenerationSoftware,KiCad,Pcbnew,(6.0.10)*%
%TF.CreationDate,2023-02-03T22:17:50+05:30*%
%TF.ProjectId,Diplexer Panel,4469706c-6578-4657-9220-50616e656c2e,rev?*%
%TF.SameCoordinates,Original*%
%TF.FileFunction,Soldermask,Top*%
%TF.FilePolarity,Negative*%
%FSLAX46Y46*%
G04 Gerber Fmt 4.6, Leading zero omitted, Abs format (unit mm)*
G04 Created by KiCad (PCBNEW (6.0.10)) date 2023-02-03 22:17:50*
%MOMM*%
%LPD*%
G01*
G04 APERTURE LIST*
G04 Aperture macros list*
%AMRoundRect*
0 Rectangle with rounded corners*
0 $1 Rounding radius*
0 $2 $3 $4 $5 $6 $7 $8 $9 X,Y pos of 4 corners*
0 Add a 4 corners polygon primitive as box body*
4,1,4,$2,$3,$4,$5,$6,$7,$8,$9,$2,$3,0*
0 Add four circle primitives for the rounded corners*
1,1,$1+$1,$2,$3*
1,1,$1+$1,$4,$5*
1,1,$1+$1,$6,$7*
1,1,$1+$1,$8,$9*
0 Add four rect primitives between the rounded corners*
20,1,$1+$1,$2,$3,$4,$5,0*
20,1,$1+$1,$4,$5,$6,$7,0*
20,1,$1+$1,$6,$7,$8,$9,0*
20,1,$1+$1,$8,$9,$2,$3,0*%
G04 Aperture macros list end*
%ADD10C,0.500000*%
%ADD11RoundRect,0.250000X0.325000X0.650000X-0.325000X0.650000X-0.325000X-0.650000X0.325000X-0.650000X0*%
%ADD12RoundRect,0.250000X-0.650000X0.325000X-0.650000X-0.325000X0.650000X-0.325000X0.650000X0.325000X0*%
%ADD13RoundRect,0.250000X-0.375000X-0.850000X0.375000X-0.850000X0.375000X0.850000X-0.375000X0.850000X0*%
%ADD14C,2.550000*%
%ADD15RoundRect,0.250000X-0.850000X0.375000X-0.850000X-0.375000X0.850000X-0.375000X0.850000X0.375000X0*%
%ADD16RoundRect,0.250000X0.650000X-0.325000X0.650000X0.325000X-0.650000X0.325000X-0.650000X-0.325000X0*%
%ADD17C,1.850000*%
%ADD18RoundRect,0.250000X0.850000X-0.375000X0.850000X0.375000X-0.850000X0.375000X-0.850000X-0.375000X0*%
%ADD19R,5.080000X1.500000*%
%ADD20RoundRect,0.250000X0.375000X0.850000X-0.375000X0.850000X-0.375000X-0.850000X0.375000X-0.850000X0*%
%ADD21RoundRect,0.250000X-0.325000X-0.650000X0.325000X-0.650000X0.325000X0.650000X-0.325000X0.650000X0*%
G04 APERTURE END LIST*
D10*
%TO.C,REF\u002A\u002A*%
X128902333Y-44776000D03*
%TD*%
%TO.C,REF\u002A\u002A*%
X147750000Y-53622333D03*
%TD*%
D11*
%TO.C,C1*%
X135767000Y-91580000D03*
X132817000Y-91580000D03*
%TD*%
D12*
%TO.C,C2*%
X174900000Y-88167000D03*
X174900000Y-91117000D03*
%TD*%
D13*
%TO.C,L4*%
X169761000Y-71640000D03*
X171911000Y-71640000D03*
%TD*%
D14*
%TO.C,Gnd*%
X152167000Y-92436000D03*
X152167000Y-92436000D03*
X152167000Y-92436000D03*
%TD*%
D10*
%TO.C,REF\u002A\u002A*%
X127235667Y-46276000D03*
%TD*%
%TO.C,REF\u002A\u002A*%
X169764333Y-85328000D03*
%TD*%
%TO.C,REF\u002A\u002A*%
X168931000Y-44776000D03*
%TD*%
D15*
%TO.C,L2*%
X122100000Y-89329000D03*
X122100000Y-91479000D03*
%TD*%
D10*
%TO.C,REF\u002A\u002A*%
X129735666Y-85328000D03*
%TD*%
%TO.C,REF\u002A\u002A*%
X128902333Y-65802000D03*
%TD*%
D14*
%TO.C,Gnd*%
X152167000Y-33858000D03*
X152167000Y-33858000D03*
X152167000Y-33858000D03*
%TD*%
D10*
%TO.C,REF\u002A\u002A*%
X127235667Y-26750000D03*
%TD*%
%TO.C,REF\u002A\u002A*%
X168097666Y-44776000D03*
%TD*%
%TO.C,REF\u002A\u002A*%
X127235667Y-103354000D03*
%TD*%
%TO.C,REF\u002A\u002A*%
X149250000Y-76481666D03*
%TD*%
D16*
%TO.C,C2*%
X130228000Y-61463000D03*
X130228000Y-58513000D03*
%TD*%
D13*
%TO.C,L3*%
X178143000Y-91166000D03*
X180293000Y-91166000D03*
%TD*%
%TO.C,L3*%
X178143000Y-32588000D03*
X180293000Y-32588000D03*
%TD*%
D14*
%TO.C,Gnd*%
X144833000Y-76720000D03*
X144833000Y-76720000D03*
X144833000Y-76720000D03*
%TD*%
D17*
%TO.C,2m*%
X157882000Y-31318000D03*
X157882000Y-31318000D03*
X157882000Y-31318000D03*
X157882000Y-31318000D03*
%TD*%
D15*
%TO.C,L2*%
X122100000Y-30751000D03*
X122100000Y-32901000D03*
%TD*%
D10*
%TO.C,REF\u002A\u002A*%
X126402334Y-64302000D03*
%TD*%
D18*
%TO.C,L1*%
X166772000Y-99353000D03*
X166772000Y-97203000D03*
%TD*%
D10*
%TO.C,REF\u002A\u002A*%
X147750000Y-36596333D03*
%TD*%
D17*
%TO.C,2m*%
X157882000Y-50844000D03*
X157882000Y-50844000D03*
X157882000Y-50844000D03*
X157882000Y-50844000D03*
%TD*%
D13*
%TO.C,L3*%
X178143000Y-52114000D03*
X180293000Y-52114000D03*
%TD*%
D10*
%TO.C,REF\u002A\u002A*%
X126402334Y-103354000D03*
%TD*%
D14*
%TO.C,Gnd*%
X152294000Y-81546000D03*
X152294000Y-81546000D03*
%TD*%
D10*
%TO.C,REF\u002A\u002A*%
X127235667Y-65802000D03*
%TD*%
%TO.C,REF\u002A\u002A*%
X168931000Y-85328000D03*
%TD*%
%TO.C,REF\u002A\u002A*%
X127235667Y-83828000D03*
%TD*%
D19*
%TO.C,2m+70cm*%
X185666500Y-55162000D03*
X185666500Y-59412000D03*
X185666500Y-50912000D03*
%TD*%
D11*
%TO.C,C2*%
X127639000Y-91580000D03*
X124689000Y-91580000D03*
%TD*%
D20*
%TO.C,L5*%
X135621000Y-97516000D03*
X133471000Y-97516000D03*
%TD*%
D17*
%TO.C,2m*%
X157882000Y-89896000D03*
X157882000Y-89896000D03*
X157882000Y-89896000D03*
X157882000Y-89896000D03*
%TD*%
D10*
%TO.C,REF\u002A\u002A*%
X126402334Y-83828000D03*
%TD*%
D14*
%TO.C,Gnd*%
X152167000Y-87356000D03*
X152167000Y-87356000D03*
X152167000Y-87356000D03*
%TD*%
D10*
%TO.C,REF\u002A\u002A*%
X149250000Y-96007666D03*
%TD*%
D17*
%TO.C,2m*%
X157882000Y-70370000D03*
X157882000Y-70370000D03*
X157882000Y-70370000D03*
X157882000Y-70370000D03*
%TD*%
D14*
%TO.C,Gnd*%
X152167000Y-67830000D03*
X152167000Y-67830000D03*
X152167000Y-67830000D03*
%TD*%
D21*
%TO.C,C1*%
X161233000Y-38524000D03*
X164183000Y-38524000D03*
%TD*%
D18*
%TO.C,L2*%
X174900000Y-60301000D03*
X174900000Y-58151000D03*
%TD*%
D13*
%TO.C,L5*%
X161379000Y-71640000D03*
X163529000Y-71640000D03*
%TD*%
D18*
%TO.C,L1*%
X166772000Y-79827000D03*
X166772000Y-77677000D03*
%TD*%
D12*
%TO.C,C2*%
X166772000Y-68641000D03*
X166772000Y-71591000D03*
%TD*%
D10*
%TO.C,REF\u002A\u002A*%
X149250000Y-34929667D03*
%TD*%
D19*
%TO.C,2m+70cm*%
X111333500Y-94468000D03*
X111333500Y-98718000D03*
X111333500Y-90218000D03*
%TD*%
D16*
%TO.C,C2*%
X122100000Y-61463000D03*
X122100000Y-58513000D03*
%TD*%
D17*
%TO.C,2m*%
X157882000Y-70370000D03*
X157882000Y-70370000D03*
X157882000Y-70370000D03*
X157882000Y-70370000D03*
%TD*%
D10*
%TO.C,REF\u002A\u002A*%
X170597666Y-26750000D03*
%TD*%
%TO.C,REF\u002A\u002A*%
X169764333Y-65802000D03*
%TD*%
D14*
%TO.C,Gnd*%
X152167000Y-56940000D03*
X152167000Y-56940000D03*
%TD*%
%TO.C,Gnd*%
X144706000Y-29032000D03*
X144706000Y-29032000D03*
%TD*%
D10*
%TO.C,REF\u002A\u002A*%
X168097666Y-85328000D03*
%TD*%
D17*
%TO.C,2m*%
X139118000Y-98786000D03*
X139118000Y-98786000D03*
X139118000Y-98786000D03*
X139118000Y-98786000D03*
%TD*%
D18*
%TO.C,L1*%
X166772000Y-40775000D03*
X166772000Y-38625000D03*
%TD*%
D17*
%TO.C,70cm*%
X139372000Y-70624000D03*
X139372000Y-70624000D03*
X139372000Y-70624000D03*
X139372000Y-70624000D03*
%TD*%
D21*
%TO.C,C3*%
X177489000Y-38524000D03*
X180439000Y-38524000D03*
%TD*%
D14*
%TO.C,Gnd*%
X152167000Y-76466000D03*
X152167000Y-76466000D03*
%TD*%
D10*
%TO.C,REF\u002A\u002A*%
X127235667Y-44776000D03*
%TD*%
D17*
%TO.C,70cm*%
X139372000Y-31572000D03*
X139372000Y-31572000D03*
X139372000Y-31572000D03*
X139372000Y-31572000D03*
%TD*%
%TO.C,2m*%
X157882000Y-89896000D03*
X157882000Y-89896000D03*
X157882000Y-89896000D03*
X157882000Y-89896000D03*
%TD*%
D21*
%TO.C,C2*%
X169361000Y-58050000D03*
X172311000Y-58050000D03*
%TD*%
D10*
%TO.C,REF\u002A\u002A*%
X126402334Y-85328000D03*
%TD*%
%TO.C,REF\u002A\u002A*%
X128069000Y-85328000D03*
%TD*%
D17*
%TO.C,2m*%
X139118000Y-98786000D03*
X139118000Y-98786000D03*
X139118000Y-98786000D03*
X139118000Y-98786000D03*
%TD*%
D10*
%TO.C,REF\u002A\u002A*%
X147750000Y-94341000D03*
%TD*%
D20*
%TO.C,L4*%
X127239000Y-97516000D03*
X125089000Y-97516000D03*
%TD*%
D10*
%TO.C,REF\u002A\u002A*%
X168097666Y-83828000D03*
%TD*%
D20*
%TO.C,L3*%
X118857000Y-38938000D03*
X116707000Y-38938000D03*
%TD*%
D10*
%TO.C,REF\u002A\u002A*%
X169764333Y-26750000D03*
%TD*%
D14*
%TO.C,Gnd*%
X144833000Y-57194000D03*
X144833000Y-57194000D03*
X144833000Y-57194000D03*
%TD*%
D12*
%TO.C,C2*%
X174900000Y-68641000D03*
X174900000Y-71591000D03*
%TD*%
D11*
%TO.C,C3*%
X119511000Y-33002000D03*
X116561000Y-33002000D03*
%TD*%
D21*
%TO.C,C1*%
X161233000Y-97102000D03*
X164183000Y-97102000D03*
%TD*%
D10*
%TO.C,REF\u002A\u002A*%
X168931000Y-83828000D03*
%TD*%
D14*
%TO.C,Gnd*%
X152167000Y-37414000D03*
X152167000Y-37414000D03*
%TD*%
D17*
%TO.C,70cm*%
X139372000Y-51098000D03*
X139372000Y-51098000D03*
X139372000Y-51098000D03*
X139372000Y-51098000D03*
%TD*%
D10*
%TO.C,REF\u002A\u002A*%
X127235667Y-85328000D03*
%TD*%
D17*
%TO.C,2m*%
X157882000Y-31318000D03*
X157882000Y-31318000D03*
X157882000Y-31318000D03*
X157882000Y-31318000D03*
%TD*%
D10*
%TO.C,REF\u002A\u002A*%
X128069000Y-64302000D03*
%TD*%
%TO.C,REF\u002A\u002A*%
X149250000Y-95174333D03*
%TD*%
D16*
%TO.C,C2*%
X130228000Y-100515000D03*
X130228000Y-97565000D03*
%TD*%
D10*
%TO.C,REF\u002A\u002A*%
X147750000Y-96007666D03*
%TD*%
%TO.C,REF\u002A\u002A*%
X168931000Y-65802000D03*
%TD*%
D17*
%TO.C,70cm*%
X157628000Y-79006000D03*
X157628000Y-79006000D03*
X157628000Y-79006000D03*
X157628000Y-79006000D03*
%TD*%
D14*
%TO.C,Gnd*%
X144833000Y-53638000D03*
X144833000Y-53638000D03*
%TD*%
D17*
%TO.C,2m*%
X139118000Y-59734000D03*
X139118000Y-59734000D03*
X139118000Y-59734000D03*
X139118000Y-59734000D03*
%TD*%
D10*
%TO.C,REF\u002A\u002A*%
X169764333Y-44776000D03*
%TD*%
D19*
%TO.C,2m+70cm*%
X185666500Y-35636000D03*
X185666500Y-31386000D03*
X185666500Y-39886000D03*
%TD*%
D13*
%TO.C,L5*%
X161379000Y-32588000D03*
X163529000Y-32588000D03*
%TD*%
D10*
%TO.C,REF\u002A\u002A*%
X170597666Y-85328000D03*
%TD*%
%TO.C,REF\u002A\u002A*%
X128069000Y-103354000D03*
%TD*%
%TO.C,REF\u002A\u002A*%
X147750000Y-74815000D03*
%TD*%
D14*
%TO.C,Gnd*%
X152294000Y-42494000D03*
X152294000Y-42494000D03*
%TD*%
D10*
%TO.C,REF\u002A\u002A*%
X169764333Y-46276000D03*
%TD*%
D16*
%TO.C,C2*%
X122100000Y-100515000D03*
X122100000Y-97565000D03*
%TD*%
D10*
%TO.C,REF\u002A\u002A*%
X149250000Y-53622333D03*
%TD*%
D17*
%TO.C,2m*%
X139118000Y-40208000D03*
X139118000Y-40208000D03*
X139118000Y-40208000D03*
X139118000Y-40208000D03*
%TD*%
D14*
%TO.C,Gnd*%
X152294000Y-62020000D03*
X152294000Y-62020000D03*
%TD*%
D10*
%TO.C,REF\u002A\u002A*%
X129735666Y-103354000D03*
%TD*%
%TO.C,REF\u002A\u002A*%
X169764333Y-64302000D03*
%TD*%
D13*
%TO.C,L4*%
X169761000Y-91166000D03*
X171911000Y-91166000D03*
%TD*%
D11*
%TO.C,C3*%
X119511000Y-52528000D03*
X116561000Y-52528000D03*
%TD*%
D10*
%TO.C,REF\u002A\u002A*%
X128902333Y-83828000D03*
%TD*%
%TO.C,REF\u002A\u002A*%
X147750000Y-34929667D03*
%TD*%
%TO.C,REF\u002A\u002A*%
X168097666Y-103354000D03*
%TD*%
%TO.C,REF\u002A\u002A*%
X167264333Y-65802000D03*
%TD*%
%TO.C,REF\u002A\u002A*%
X147750000Y-56955666D03*
%TD*%
D17*
%TO.C,70cm*%
X157628000Y-59480000D03*
X157628000Y-59480000D03*
X157628000Y-59480000D03*
X157628000Y-59480000D03*
%TD*%
D16*
%TO.C,C2*%
X130228000Y-80989000D03*
X130228000Y-78039000D03*
%TD*%
D10*
%TO.C,REF\u002A\u002A*%
X168097666Y-26750000D03*
%TD*%
D16*
%TO.C,C2*%
X122100000Y-41937000D03*
X122100000Y-38987000D03*
%TD*%
D10*
%TO.C,REF\u002A\u002A*%
X168931000Y-26750000D03*
%TD*%
%TO.C,REF\u002A\u002A*%
X149250000Y-74815000D03*
%TD*%
%TO.C,REF\u002A\u002A*%
X170597666Y-44776000D03*
%TD*%
D11*
%TO.C,C3*%
X119511000Y-72054000D03*
X116561000Y-72054000D03*
%TD*%
D10*
%TO.C,REF\u002A\u002A*%
X147750000Y-92674333D03*
%TD*%
%TO.C,REF\u002A\u002A*%
X149250000Y-92674333D03*
%TD*%
D17*
%TO.C,2m*%
X139118000Y-79260000D03*
X139118000Y-79260000D03*
X139118000Y-79260000D03*
X139118000Y-79260000D03*
%TD*%
%TO.C,2m*%
X139118000Y-79260000D03*
X139118000Y-79260000D03*
X139118000Y-79260000D03*
X139118000Y-79260000D03*
%TD*%
D13*
%TO.C,L5*%
X161379000Y-52114000D03*
X163529000Y-52114000D03*
%TD*%
D14*
%TO.C,Gnd*%
X144833000Y-92690000D03*
X144833000Y-92690000D03*
%TD*%
D15*
%TO.C,L2*%
X122100000Y-50277000D03*
X122100000Y-52427000D03*
%TD*%
D19*
%TO.C,2m+70cm*%
X185666500Y-74688000D03*
X185666500Y-78938000D03*
X185666500Y-70438000D03*
%TD*%
D14*
%TO.C,Gnd*%
X152167000Y-48304000D03*
X152167000Y-48304000D03*
X152167000Y-48304000D03*
%TD*%
D15*
%TO.C,L2*%
X122100000Y-69803000D03*
X122100000Y-71953000D03*
%TD*%
D10*
%TO.C,REF\u002A\u002A*%
X129735666Y-44776000D03*
%TD*%
D11*
%TO.C,C2*%
X127639000Y-72054000D03*
X124689000Y-72054000D03*
%TD*%
D12*
%TO.C,C2*%
X166772000Y-88167000D03*
X166772000Y-91117000D03*
%TD*%
D14*
%TO.C,Gnd*%
X144706000Y-87610000D03*
X144706000Y-87610000D03*
%TD*%
D10*
%TO.C,REF\u002A\u002A*%
X170597666Y-65802000D03*
%TD*%
%TO.C,REF\u002A\u002A*%
X149250000Y-37429666D03*
%TD*%
%TO.C,REF\u002A\u002A*%
X149250000Y-34096334D03*
%TD*%
%TO.C,REF\u002A\u002A*%
X128069000Y-26750000D03*
%TD*%
%TO.C,REF\u002A\u002A*%
X147750000Y-34096334D03*
%TD*%
D16*
%TO.C,C2*%
X130228000Y-41937000D03*
X130228000Y-38987000D03*
%TD*%
D10*
%TO.C,REF\u002A\u002A*%
X147750000Y-37429666D03*
%TD*%
D14*
%TO.C,Gnd*%
X144706000Y-48558000D03*
X144706000Y-48558000D03*
%TD*%
D20*
%TO.C,L4*%
X127239000Y-38938000D03*
X125089000Y-38938000D03*
%TD*%
D10*
%TO.C,REF\u002A\u002A*%
X168097666Y-65802000D03*
%TD*%
D18*
%TO.C,L2*%
X174900000Y-40775000D03*
X174900000Y-38625000D03*
%TD*%
D21*
%TO.C,C3*%
X177489000Y-97102000D03*
X180439000Y-97102000D03*
%TD*%
D17*
%TO.C,2m*%
X139118000Y-40208000D03*
X139118000Y-40208000D03*
X139118000Y-40208000D03*
X139118000Y-40208000D03*
%TD*%
D19*
%TO.C,2m+70cm*%
X185666500Y-94214000D03*
X185666500Y-98464000D03*
X185666500Y-89964000D03*
%TD*%
D10*
%TO.C,REF\u002A\u002A*%
X149250000Y-56955666D03*
%TD*%
%TO.C,REF\u002A\u002A*%
X147750000Y-93507666D03*
%TD*%
D19*
%TO.C,2m+70cm*%
X111333500Y-35890000D03*
X111333500Y-40140000D03*
X111333500Y-31640000D03*
%TD*%
D10*
%TO.C,REF\u002A\u002A*%
X126402334Y-65802000D03*
%TD*%
%TO.C,REF\u002A\u002A*%
X149250000Y-55289000D03*
%TD*%
%TO.C,REF\u002A\u002A*%
X147750000Y-35763000D03*
%TD*%
%TO.C,REF\u002A\u002A*%
X149250000Y-56122333D03*
%TD*%
%TO.C,REF\u002A\u002A*%
X167264333Y-44776000D03*
%TD*%
D13*
%TO.C,L5*%
X161379000Y-91166000D03*
X163529000Y-91166000D03*
%TD*%
D14*
%TO.C,Gnd*%
X144833000Y-34112000D03*
X144833000Y-34112000D03*
%TD*%
D21*
%TO.C,C1*%
X161233000Y-77576000D03*
X164183000Y-77576000D03*
%TD*%
D18*
%TO.C,L2*%
X174900000Y-79827000D03*
X174900000Y-77677000D03*
%TD*%
D14*
%TO.C,Gnd*%
X144833000Y-81800000D03*
X144833000Y-81800000D03*
X144833000Y-81800000D03*
%TD*%
D10*
%TO.C,REF\u002A\u002A*%
X170597666Y-103354000D03*
%TD*%
%TO.C,REF\u002A\u002A*%
X167264333Y-103354000D03*
%TD*%
D14*
%TO.C,Gnd*%
X144833000Y-62274000D03*
X144833000Y-62274000D03*
X144833000Y-62274000D03*
%TD*%
D10*
%TO.C,REF\u002A\u002A*%
X168097666Y-46276000D03*
%TD*%
%TO.C,REF\u002A\u002A*%
X167264333Y-85328000D03*
%TD*%
%TO.C,REF\u002A\u002A*%
X168931000Y-103354000D03*
%TD*%
D14*
%TO.C,Gnd*%
X144833000Y-42748000D03*
X144833000Y-42748000D03*
X144833000Y-42748000D03*
%TD*%
%TO.C,Gnd*%
X152167000Y-95992000D03*
X152167000Y-95992000D03*
%TD*%
%TO.C,Gnd*%
X152167000Y-53384000D03*
X152167000Y-53384000D03*
X152167000Y-53384000D03*
%TD*%
D10*
%TO.C,REF\u002A\u002A*%
X167264333Y-26750000D03*
%TD*%
D17*
%TO.C,70cm*%
X157628000Y-39954000D03*
X157628000Y-39954000D03*
X157628000Y-39954000D03*
X157628000Y-39954000D03*
%TD*%
D10*
%TO.C,REF\u002A\u002A*%
X149250000Y-75648333D03*
%TD*%
D11*
%TO.C,C1*%
X135767000Y-33002000D03*
X132817000Y-33002000D03*
%TD*%
D14*
%TO.C,Gnd*%
X152294000Y-101072000D03*
X152294000Y-101072000D03*
%TD*%
D10*
%TO.C,REF\u002A\u002A*%
X129735666Y-64302000D03*
%TD*%
%TO.C,REF\u002A\u002A*%
X149250000Y-36596333D03*
%TD*%
D20*
%TO.C,L3*%
X118857000Y-77990000D03*
X116707000Y-77990000D03*
%TD*%
D12*
%TO.C,C2*%
X166772000Y-29589000D03*
X166772000Y-32539000D03*
%TD*%
D11*
%TO.C,C2*%
X127639000Y-33002000D03*
X124689000Y-33002000D03*
%TD*%
D14*
%TO.C,Gnd*%
X144833000Y-101326000D03*
X144833000Y-101326000D03*
X144833000Y-101326000D03*
%TD*%
D10*
%TO.C,REF\u002A\u002A*%
X128069000Y-83828000D03*
%TD*%
%TO.C,REF\u002A\u002A*%
X149250000Y-94341000D03*
%TD*%
D20*
%TO.C,L5*%
X135621000Y-38938000D03*
X133471000Y-38938000D03*
%TD*%
D10*
%TO.C,REF\u002A\u002A*%
X129735666Y-46276000D03*
%TD*%
D15*
%TO.C,L1*%
X130228000Y-30751000D03*
X130228000Y-32901000D03*
%TD*%
D10*
%TO.C,REF\u002A\u002A*%
X128902333Y-103354000D03*
%TD*%
%TO.C,REF\u002A\u002A*%
X128069000Y-65802000D03*
%TD*%
%TO.C,REF\u002A\u002A*%
X147750000Y-75648333D03*
%TD*%
%TO.C,REF\u002A\u002A*%
X128902333Y-46276000D03*
%TD*%
%TO.C,REF\u002A\u002A*%
X128069000Y-46276000D03*
%TD*%
%TO.C,REF\u002A\u002A*%
X127235667Y-64302000D03*
%TD*%
%TO.C,REF\u002A\u002A*%
X126402334Y-46276000D03*
%TD*%
D20*
%TO.C,L3*%
X118857000Y-58464000D03*
X116707000Y-58464000D03*
%TD*%
D10*
%TO.C,REF\u002A\u002A*%
X170597666Y-64302000D03*
%TD*%
%TO.C,REF\u002A\u002A*%
X128069000Y-44776000D03*
%TD*%
D21*
%TO.C,C3*%
X177489000Y-58050000D03*
X180439000Y-58050000D03*
%TD*%
D13*
%TO.C,L4*%
X169761000Y-52114000D03*
X171911000Y-52114000D03*
%TD*%
D20*
%TO.C,L4*%
X127239000Y-77990000D03*
X125089000Y-77990000D03*
%TD*%
D15*
%TO.C,L1*%
X130228000Y-50277000D03*
X130228000Y-52427000D03*
%TD*%
D10*
%TO.C,REF\u002A\u002A*%
X170597666Y-83828000D03*
%TD*%
D17*
%TO.C,2m*%
X157882000Y-50844000D03*
X157882000Y-50844000D03*
X157882000Y-50844000D03*
X157882000Y-50844000D03*
%TD*%
D10*
%TO.C,REF\u002A\u002A*%
X126402334Y-44776000D03*
%TD*%
%TO.C,REF\u002A\u002A*%
X168097666Y-64302000D03*
%TD*%
D16*
%TO.C,C2*%
X122100000Y-80989000D03*
X122100000Y-78039000D03*
%TD*%
D10*
%TO.C,REF\u002A\u002A*%
X147750000Y-73148333D03*
%TD*%
D13*
%TO.C,L3*%
X178143000Y-71640000D03*
X180293000Y-71640000D03*
%TD*%
D17*
%TO.C,2m*%
X139118000Y-59734000D03*
X139118000Y-59734000D03*
X139118000Y-59734000D03*
X139118000Y-59734000D03*
%TD*%
D21*
%TO.C,C1*%
X161233000Y-58050000D03*
X164183000Y-58050000D03*
%TD*%
D10*
%TO.C,REF\u002A\u002A*%
X167264333Y-64302000D03*
%TD*%
D12*
%TO.C,C2*%
X174900000Y-29589000D03*
X174900000Y-32539000D03*
%TD*%
D10*
%TO.C,REF\u002A\u002A*%
X126402334Y-26750000D03*
%TD*%
%TO.C,REF\u002A\u002A*%
X149250000Y-93507666D03*
%TD*%
%TO.C,REF\u002A\u002A*%
X147750000Y-54455666D03*
%TD*%
D21*
%TO.C,C3*%
X177489000Y-77576000D03*
X180439000Y-77576000D03*
%TD*%
D11*
%TO.C,C2*%
X127639000Y-52528000D03*
X124689000Y-52528000D03*
%TD*%
D10*
%TO.C,REF\u002A\u002A*%
X149250000Y-35763000D03*
%TD*%
D14*
%TO.C,Gnd*%
X152167000Y-28778000D03*
X152167000Y-28778000D03*
X152167000Y-28778000D03*
%TD*%
D10*
%TO.C,REF\u002A\u002A*%
X149250000Y-73981666D03*
%TD*%
D20*
%TO.C,L3*%
X118857000Y-97516000D03*
X116707000Y-97516000D03*
%TD*%
D14*
%TO.C,Gnd*%
X152167000Y-72910000D03*
X152167000Y-72910000D03*
X152167000Y-72910000D03*
%TD*%
D10*
%TO.C,REF\u002A\u002A*%
X147750000Y-56122333D03*
%TD*%
D17*
%TO.C,70cm*%
X157628000Y-98532000D03*
X157628000Y-98532000D03*
X157628000Y-98532000D03*
X157628000Y-98532000D03*
%TD*%
D11*
%TO.C,C1*%
X135767000Y-72054000D03*
X132817000Y-72054000D03*
%TD*%
D18*
%TO.C,L1*%
X166772000Y-60301000D03*
X166772000Y-58151000D03*
%TD*%
D10*
%TO.C,REF\u002A\u002A*%
X170597666Y-46276000D03*
%TD*%
D20*
%TO.C,L4*%
X127239000Y-58464000D03*
X125089000Y-58464000D03*
%TD*%
D10*
%TO.C,REF\u002A\u002A*%
X147750000Y-73981666D03*
%TD*%
%TO.C,REF\u002A\u002A*%
X147750000Y-76481666D03*
%TD*%
D14*
%TO.C,Gnd*%
X144833000Y-73164000D03*
X144833000Y-73164000D03*
%TD*%
D10*
%TO.C,REF\u002A\u002A*%
X167264333Y-83828000D03*
%TD*%
%TO.C,REF\u002A\u002A*%
X147750000Y-55289000D03*
%TD*%
D14*
%TO.C,Gnd*%
X144833000Y-96246000D03*
X144833000Y-96246000D03*
X144833000Y-96246000D03*
%TD*%
D10*
%TO.C,REF\u002A\u002A*%
X129735666Y-26750000D03*
%TD*%
D11*
%TO.C,C3*%
X119511000Y-91580000D03*
X116561000Y-91580000D03*
%TD*%
D20*
%TO.C,L5*%
X135621000Y-77990000D03*
X133471000Y-77990000D03*
%TD*%
D10*
%TO.C,REF\u002A\u002A*%
X149250000Y-54455666D03*
%TD*%
D15*
%TO.C,L1*%
X130228000Y-89329000D03*
X130228000Y-91479000D03*
%TD*%
D12*
%TO.C,C2*%
X174900000Y-49115000D03*
X174900000Y-52065000D03*
%TD*%
D17*
%TO.C,70cm*%
X139372000Y-90150000D03*
X139372000Y-90150000D03*
X139372000Y-90150000D03*
X139372000Y-90150000D03*
%TD*%
D10*
%TO.C,REF\u002A\u002A*%
X169764333Y-83828000D03*
%TD*%
%TO.C,REF\u002A\u002A*%
X168931000Y-64302000D03*
%TD*%
D21*
%TO.C,C2*%
X169361000Y-97102000D03*
X172311000Y-97102000D03*
%TD*%
D15*
%TO.C,L1*%
X130228000Y-69803000D03*
X130228000Y-71953000D03*
%TD*%
D12*
%TO.C,C2*%
X166772000Y-49115000D03*
X166772000Y-52065000D03*
%TD*%
D10*
%TO.C,REF\u002A\u002A*%
X128902333Y-26750000D03*
%TD*%
%TO.C,REF\u002A\u002A*%
X128902333Y-64302000D03*
%TD*%
%TO.C,REF\u002A\u002A*%
X168931000Y-46276000D03*
%TD*%
D20*
%TO.C,L5*%
X135621000Y-58464000D03*
X133471000Y-58464000D03*
%TD*%
D14*
%TO.C,Gnd*%
X144833000Y-37668000D03*
X144833000Y-37668000D03*
X144833000Y-37668000D03*
%TD*%
D11*
%TO.C,C1*%
X135767000Y-52528000D03*
X132817000Y-52528000D03*
%TD*%
D19*
%TO.C,2m+70cm*%
X111333500Y-55416000D03*
X111333500Y-59666000D03*
X111333500Y-51166000D03*
%TD*%
D10*
%TO.C,REF\u002A\u002A*%
X129735666Y-65802000D03*
%TD*%
D21*
%TO.C,C2*%
X169361000Y-77576000D03*
X172311000Y-77576000D03*
%TD*%
D10*
%TO.C,REF\u002A\u002A*%
X129735666Y-83828000D03*
%TD*%
%TO.C,REF\u002A\u002A*%
X167264333Y-46276000D03*
%TD*%
D14*
%TO.C,Gnd*%
X144706000Y-68084000D03*
X144706000Y-68084000D03*
%TD*%
D19*
%TO.C,2m+70cm*%
X111333500Y-74942000D03*
X111333500Y-79192000D03*
X111333500Y-70692000D03*
%TD*%
D10*
%TO.C,REF\u002A\u002A*%
X169764333Y-103354000D03*
%TD*%
%TO.C,REF\u002A\u002A*%
X149250000Y-73148333D03*
%TD*%
D21*
%TO.C,C2*%
X169361000Y-38524000D03*
X172311000Y-38524000D03*
%TD*%
D18*
%TO.C,L2*%
X174900000Y-99353000D03*
X174900000Y-97203000D03*
%TD*%
D10*
%TO.C,REF\u002A\u002A*%
X128902333Y-85328000D03*
%TD*%
D13*
%TO.C,L4*%
X169761000Y-32588000D03*
X171911000Y-32588000D03*
%TD*%
D10*
%TO.C,REF\u002A\u002A*%
X147750000Y-95174333D03*
%TD*%
M02*
