%TF.GenerationSoftware,KiCad,Pcbnew,(6.0.10)*%
%TF.CreationDate,2023-02-03T22:17:50+05:30*%
%TF.ProjectId,Diplexer Panel,4469706c-6578-4657-9220-50616e656c2e,rev?*%
%TF.SameCoordinates,Original*%
%TF.FileFunction,Paste,Top*%
%TF.FilePolarity,Positive*%
%FSLAX46Y46*%
G04 Gerber Fmt 4.6, Leading zero omitted, Abs format (unit mm)*
G04 Created by KiCad (PCBNEW (6.0.10)) date 2023-02-03 22:17:50*
%MOMM*%
%LPD*%
G01*
G04 APERTURE LIST*
G04 Aperture macros list*
%AMRoundRect*
0 Rectangle with rounded corners*
0 $1 Rounding radius*
0 $2 $3 $4 $5 $6 $7 $8 $9 X,Y pos of 4 corners*
0 Add a 4 corners polygon primitive as box body*
4,1,4,$2,$3,$4,$5,$6,$7,$8,$9,$2,$3,0*
0 Add four circle primitives for the rounded corners*
1,1,$1+$1,$2,$3*
1,1,$1+$1,$4,$5*
1,1,$1+$1,$6,$7*
1,1,$1+$1,$8,$9*
0 Add four rect primitives between the rounded corners*
20,1,$1+$1,$2,$3,$4,$5,0*
20,1,$1+$1,$4,$5,$6,$7,0*
20,1,$1+$1,$6,$7,$8,$9,0*
20,1,$1+$1,$8,$9,$2,$3,0*%
G04 Aperture macros list end*
%ADD10RoundRect,0.250000X0.325000X0.650000X-0.325000X0.650000X-0.325000X-0.650000X0.325000X-0.650000X0*%
%ADD11RoundRect,0.250000X-0.650000X0.325000X-0.650000X-0.325000X0.650000X-0.325000X0.650000X0.325000X0*%
%ADD12RoundRect,0.250000X-0.375000X-0.850000X0.375000X-0.850000X0.375000X0.850000X-0.375000X0.850000X0*%
%ADD13RoundRect,0.250000X-0.850000X0.375000X-0.850000X-0.375000X0.850000X-0.375000X0.850000X0.375000X0*%
%ADD14RoundRect,0.250000X0.650000X-0.325000X0.650000X0.325000X-0.650000X0.325000X-0.650000X-0.325000X0*%
%ADD15RoundRect,0.250000X0.850000X-0.375000X0.850000X0.375000X-0.850000X0.375000X-0.850000X-0.375000X0*%
%ADD16R,5.080000X1.500000*%
%ADD17RoundRect,0.250000X0.375000X0.850000X-0.375000X0.850000X-0.375000X-0.850000X0.375000X-0.850000X0*%
%ADD18RoundRect,0.250000X-0.325000X-0.650000X0.325000X-0.650000X0.325000X0.650000X-0.325000X0.650000X0*%
G04 APERTURE END LIST*
D10*
%TO.C,C1*%
X135767000Y-91580000D03*
X132817000Y-91580000D03*
%TD*%
D11*
%TO.C,C2*%
X174900000Y-88167000D03*
X174900000Y-91117000D03*
%TD*%
D12*
%TO.C,L4*%
X169761000Y-71640000D03*
X171911000Y-71640000D03*
%TD*%
D13*
%TO.C,L2*%
X122100000Y-89329000D03*
X122100000Y-91479000D03*
%TD*%
D14*
%TO.C,C2*%
X130228000Y-61463000D03*
X130228000Y-58513000D03*
%TD*%
D12*
%TO.C,L3*%
X178143000Y-91166000D03*
X180293000Y-91166000D03*
%TD*%
%TO.C,L3*%
X178143000Y-32588000D03*
X180293000Y-32588000D03*
%TD*%
D13*
%TO.C,L2*%
X122100000Y-30751000D03*
X122100000Y-32901000D03*
%TD*%
D15*
%TO.C,L1*%
X166772000Y-99353000D03*
X166772000Y-97203000D03*
%TD*%
D12*
%TO.C,L3*%
X178143000Y-52114000D03*
X180293000Y-52114000D03*
%TD*%
D16*
%TO.C,2m+70cm*%
X185666500Y-55162000D03*
X185666500Y-59412000D03*
X185666500Y-50912000D03*
%TD*%
D10*
%TO.C,C2*%
X127639000Y-91580000D03*
X124689000Y-91580000D03*
%TD*%
D17*
%TO.C,L5*%
X135621000Y-97516000D03*
X133471000Y-97516000D03*
%TD*%
D18*
%TO.C,C1*%
X161233000Y-38524000D03*
X164183000Y-38524000D03*
%TD*%
D15*
%TO.C,L2*%
X174900000Y-60301000D03*
X174900000Y-58151000D03*
%TD*%
D12*
%TO.C,L5*%
X161379000Y-71640000D03*
X163529000Y-71640000D03*
%TD*%
D15*
%TO.C,L1*%
X166772000Y-79827000D03*
X166772000Y-77677000D03*
%TD*%
D11*
%TO.C,C2*%
X166772000Y-68641000D03*
X166772000Y-71591000D03*
%TD*%
D16*
%TO.C,2m+70cm*%
X111333500Y-94468000D03*
X111333500Y-98718000D03*
X111333500Y-90218000D03*
%TD*%
D14*
%TO.C,C2*%
X122100000Y-61463000D03*
X122100000Y-58513000D03*
%TD*%
D15*
%TO.C,L1*%
X166772000Y-40775000D03*
X166772000Y-38625000D03*
%TD*%
D18*
%TO.C,C3*%
X177489000Y-38524000D03*
X180439000Y-38524000D03*
%TD*%
%TO.C,C2*%
X169361000Y-58050000D03*
X172311000Y-58050000D03*
%TD*%
D17*
%TO.C,L4*%
X127239000Y-97516000D03*
X125089000Y-97516000D03*
%TD*%
%TO.C,L3*%
X118857000Y-38938000D03*
X116707000Y-38938000D03*
%TD*%
D11*
%TO.C,C2*%
X174900000Y-68641000D03*
X174900000Y-71591000D03*
%TD*%
D10*
%TO.C,C3*%
X119511000Y-33002000D03*
X116561000Y-33002000D03*
%TD*%
D18*
%TO.C,C1*%
X161233000Y-97102000D03*
X164183000Y-97102000D03*
%TD*%
D14*
%TO.C,C2*%
X130228000Y-100515000D03*
X130228000Y-97565000D03*
%TD*%
D16*
%TO.C,2m+70cm*%
X185666500Y-35636000D03*
X185666500Y-31386000D03*
X185666500Y-39886000D03*
%TD*%
D12*
%TO.C,L5*%
X161379000Y-32588000D03*
X163529000Y-32588000D03*
%TD*%
D14*
%TO.C,C2*%
X122100000Y-100515000D03*
X122100000Y-97565000D03*
%TD*%
D12*
%TO.C,L4*%
X169761000Y-91166000D03*
X171911000Y-91166000D03*
%TD*%
D10*
%TO.C,C3*%
X119511000Y-52528000D03*
X116561000Y-52528000D03*
%TD*%
D14*
%TO.C,C2*%
X130228000Y-80989000D03*
X130228000Y-78039000D03*
%TD*%
%TO.C,C2*%
X122100000Y-41937000D03*
X122100000Y-38987000D03*
%TD*%
D10*
%TO.C,C3*%
X119511000Y-72054000D03*
X116561000Y-72054000D03*
%TD*%
D12*
%TO.C,L5*%
X161379000Y-52114000D03*
X163529000Y-52114000D03*
%TD*%
D13*
%TO.C,L2*%
X122100000Y-50277000D03*
X122100000Y-52427000D03*
%TD*%
D16*
%TO.C,2m+70cm*%
X185666500Y-74688000D03*
X185666500Y-78938000D03*
X185666500Y-70438000D03*
%TD*%
D13*
%TO.C,L2*%
X122100000Y-69803000D03*
X122100000Y-71953000D03*
%TD*%
D10*
%TO.C,C2*%
X127639000Y-72054000D03*
X124689000Y-72054000D03*
%TD*%
D11*
%TO.C,C2*%
X166772000Y-88167000D03*
X166772000Y-91117000D03*
%TD*%
D14*
%TO.C,C2*%
X130228000Y-41937000D03*
X130228000Y-38987000D03*
%TD*%
D17*
%TO.C,L4*%
X127239000Y-38938000D03*
X125089000Y-38938000D03*
%TD*%
D15*
%TO.C,L2*%
X174900000Y-40775000D03*
X174900000Y-38625000D03*
%TD*%
D18*
%TO.C,C3*%
X177489000Y-97102000D03*
X180439000Y-97102000D03*
%TD*%
D16*
%TO.C,2m+70cm*%
X185666500Y-94214000D03*
X185666500Y-98464000D03*
X185666500Y-89964000D03*
%TD*%
%TO.C,2m+70cm*%
X111333500Y-35890000D03*
X111333500Y-40140000D03*
X111333500Y-31640000D03*
%TD*%
D12*
%TO.C,L5*%
X161379000Y-91166000D03*
X163529000Y-91166000D03*
%TD*%
D18*
%TO.C,C1*%
X161233000Y-77576000D03*
X164183000Y-77576000D03*
%TD*%
D15*
%TO.C,L2*%
X174900000Y-79827000D03*
X174900000Y-77677000D03*
%TD*%
D10*
%TO.C,C1*%
X135767000Y-33002000D03*
X132817000Y-33002000D03*
%TD*%
D17*
%TO.C,L3*%
X118857000Y-77990000D03*
X116707000Y-77990000D03*
%TD*%
D11*
%TO.C,C2*%
X166772000Y-29589000D03*
X166772000Y-32539000D03*
%TD*%
D10*
%TO.C,C2*%
X127639000Y-33002000D03*
X124689000Y-33002000D03*
%TD*%
D17*
%TO.C,L5*%
X135621000Y-38938000D03*
X133471000Y-38938000D03*
%TD*%
D13*
%TO.C,L1*%
X130228000Y-30751000D03*
X130228000Y-32901000D03*
%TD*%
D17*
%TO.C,L3*%
X118857000Y-58464000D03*
X116707000Y-58464000D03*
%TD*%
D18*
%TO.C,C3*%
X177489000Y-58050000D03*
X180439000Y-58050000D03*
%TD*%
D12*
%TO.C,L4*%
X169761000Y-52114000D03*
X171911000Y-52114000D03*
%TD*%
D17*
%TO.C,L4*%
X127239000Y-77990000D03*
X125089000Y-77990000D03*
%TD*%
D13*
%TO.C,L1*%
X130228000Y-50277000D03*
X130228000Y-52427000D03*
%TD*%
D14*
%TO.C,C2*%
X122100000Y-80989000D03*
X122100000Y-78039000D03*
%TD*%
D12*
%TO.C,L3*%
X178143000Y-71640000D03*
X180293000Y-71640000D03*
%TD*%
D18*
%TO.C,C1*%
X161233000Y-58050000D03*
X164183000Y-58050000D03*
%TD*%
D11*
%TO.C,C2*%
X174900000Y-29589000D03*
X174900000Y-32539000D03*
%TD*%
D18*
%TO.C,C3*%
X177489000Y-77576000D03*
X180439000Y-77576000D03*
%TD*%
D10*
%TO.C,C2*%
X127639000Y-52528000D03*
X124689000Y-52528000D03*
%TD*%
D17*
%TO.C,L3*%
X118857000Y-97516000D03*
X116707000Y-97516000D03*
%TD*%
D10*
%TO.C,C1*%
X135767000Y-72054000D03*
X132817000Y-72054000D03*
%TD*%
D15*
%TO.C,L1*%
X166772000Y-60301000D03*
X166772000Y-58151000D03*
%TD*%
D17*
%TO.C,L4*%
X127239000Y-58464000D03*
X125089000Y-58464000D03*
%TD*%
D10*
%TO.C,C3*%
X119511000Y-91580000D03*
X116561000Y-91580000D03*
%TD*%
D17*
%TO.C,L5*%
X135621000Y-77990000D03*
X133471000Y-77990000D03*
%TD*%
D13*
%TO.C,L1*%
X130228000Y-89329000D03*
X130228000Y-91479000D03*
%TD*%
D11*
%TO.C,C2*%
X174900000Y-49115000D03*
X174900000Y-52065000D03*
%TD*%
D18*
%TO.C,C2*%
X169361000Y-97102000D03*
X172311000Y-97102000D03*
%TD*%
D13*
%TO.C,L1*%
X130228000Y-69803000D03*
X130228000Y-71953000D03*
%TD*%
D11*
%TO.C,C2*%
X166772000Y-49115000D03*
X166772000Y-52065000D03*
%TD*%
D17*
%TO.C,L5*%
X135621000Y-58464000D03*
X133471000Y-58464000D03*
%TD*%
D10*
%TO.C,C1*%
X135767000Y-52528000D03*
X132817000Y-52528000D03*
%TD*%
D16*
%TO.C,2m+70cm*%
X111333500Y-55416000D03*
X111333500Y-59666000D03*
X111333500Y-51166000D03*
%TD*%
D18*
%TO.C,C2*%
X169361000Y-77576000D03*
X172311000Y-77576000D03*
%TD*%
D16*
%TO.C,2m+70cm*%
X111333500Y-74942000D03*
X111333500Y-79192000D03*
X111333500Y-70692000D03*
%TD*%
D18*
%TO.C,C2*%
X169361000Y-38524000D03*
X172311000Y-38524000D03*
%TD*%
D15*
%TO.C,L2*%
X174900000Y-99353000D03*
X174900000Y-97203000D03*
%TD*%
D12*
%TO.C,L4*%
X169761000Y-32588000D03*
X171911000Y-32588000D03*
%TD*%
M02*
