M48
; DRILL file {KiCad (6.0.10)} date Fri Feb  3 22:18:11 2023
; FORMAT={-:-/ absolute / metric / decimal}
; #@! TF.CreationDate,2023-02-03T22:18:11+05:30
; #@! TF.GenerationSoftware,Kicad,Pcbnew,(6.0.10)
; #@! TF.FileFunction,NonPlated,1,2,NPTH
FMAT,2
METRIC
; #@! TA.AperFunction,NonPlated,NPTH,ComponentDrill
T1C0.500
%
G90
G05
T1
X126.402Y-26.75
X126.402Y-44.776
X126.402Y-46.276
X126.402Y-64.302
X126.402Y-65.802
X126.402Y-83.828
X126.402Y-85.328
X126.402Y-103.354
X127.236Y-26.75
X127.236Y-44.776
X127.236Y-46.276
X127.236Y-64.302
X127.236Y-65.802
X127.236Y-83.828
X127.236Y-85.328
X127.236Y-103.354
X128.069Y-26.75
X128.069Y-44.776
X128.069Y-46.276
X128.069Y-64.302
X128.069Y-65.802
X128.069Y-83.828
X128.069Y-85.328
X128.069Y-103.354
X128.902Y-26.75
X128.902Y-44.776
X128.902Y-46.276
X128.902Y-64.302
X128.902Y-65.802
X128.902Y-83.828
X128.902Y-85.328
X128.902Y-103.354
X129.736Y-26.75
X129.736Y-44.776
X129.736Y-46.276
X129.736Y-64.302
X129.736Y-65.802
X129.736Y-83.828
X129.736Y-85.328
X129.736Y-103.354
X147.75Y-34.096
X147.75Y-34.93
X147.75Y-35.763
X147.75Y-36.596
X147.75Y-37.43
X147.75Y-53.622
X147.75Y-54.456
X147.75Y-55.289
X147.75Y-56.122
X147.75Y-56.956
X147.75Y-73.148
X147.75Y-73.982
X147.75Y-74.815
X147.75Y-75.648
X147.75Y-76.482
X147.75Y-92.674
X147.75Y-93.508
X147.75Y-94.341
X147.75Y-95.174
X147.75Y-96.008
X149.25Y-34.096
X149.25Y-34.93
X149.25Y-35.763
X149.25Y-36.596
X149.25Y-37.43
X149.25Y-53.622
X149.25Y-54.456
X149.25Y-55.289
X149.25Y-56.122
X149.25Y-56.956
X149.25Y-73.148
X149.25Y-73.982
X149.25Y-74.815
X149.25Y-75.648
X149.25Y-76.482
X149.25Y-92.674
X149.25Y-93.508
X149.25Y-94.341
X149.25Y-95.174
X149.25Y-96.008
X167.264Y-26.75
X167.264Y-44.776
X167.264Y-46.276
X167.264Y-64.302
X167.264Y-65.802
X167.264Y-83.828
X167.264Y-85.328
X167.264Y-103.354
X168.098Y-26.75
X168.098Y-44.776
X168.098Y-46.276
X168.098Y-64.302
X168.098Y-65.802
X168.098Y-83.828
X168.098Y-85.328
X168.098Y-103.354
X168.931Y-26.75
X168.931Y-44.776
X168.931Y-46.276
X168.931Y-64.302
X168.931Y-65.802
X168.931Y-83.828
X168.931Y-85.328
X168.931Y-103.354
X169.764Y-26.75
X169.764Y-44.776
X169.764Y-46.276
X169.764Y-64.302
X169.764Y-65.802
X169.764Y-83.828
X169.764Y-85.328
X169.764Y-103.354
X170.598Y-26.75
X170.598Y-44.776
X170.598Y-46.276
X170.598Y-64.302
X170.598Y-65.802
X170.598Y-83.828
X170.598Y-85.328
X170.598Y-103.354
T0
M30
