%TF.GenerationSoftware,KiCad,Pcbnew,(6.0.10)*%
%TF.CreationDate,2023-02-03T22:17:50+05:30*%
%TF.ProjectId,Diplexer Panel,4469706c-6578-4657-9220-50616e656c2e,rev?*%
%TF.SameCoordinates,Original*%
%TF.FileFunction,Profile,NP*%
%FSLAX46Y46*%
G04 Gerber Fmt 4.6, Leading zero omitted, Abs format (unit mm)*
G04 Created by KiCad (PCBNEW (6.0.10)) date 2023-02-03 22:17:50*
%MOMM*%
%LPD*%
G01*
G04 APERTURE LIST*
%TA.AperFunction,Profile*%
%ADD10C,0.100000*%
%TD*%
G04 APERTURE END LIST*
D10*
X148267236Y-34235533D02*
X148243251Y-34229478D01*
X170471168Y-84297423D02*
X170478402Y-84273766D01*
X130348188Y-44550683D02*
X130372381Y-44545519D01*
X170796606Y-26773010D02*
X170777827Y-26757208D01*
X149402484Y-76884277D02*
X149412862Y-76906733D01*
X148868645Y-53718570D02*
X148845901Y-53727270D01*
X170871548Y-46354863D02*
X170851217Y-46340771D01*
X149500000Y-38263000D02*
X149500000Y-44526000D01*
X130495435Y-26997290D02*
X130470982Y-26995184D01*
X148487728Y-73314924D02*
X148462998Y-73314315D01*
X147605143Y-53235354D02*
X147594540Y-53213432D01*
X166455735Y-85577694D02*
X166431000Y-85578000D01*
X147500000Y-38263000D02*
X147500305Y-38238264D01*
X148080562Y-37355215D02*
X148103145Y-37345118D01*
X130569000Y-44526000D02*
X147500000Y-44526000D01*
X129780653Y-103488768D02*
X129795989Y-103469606D01*
X109347715Y-20043059D02*
X109255316Y-20076120D01*
X149431937Y-37900380D02*
X149440621Y-37923543D01*
X167159664Y-64367129D02*
X167176382Y-64385362D01*
X171356852Y-44528752D02*
X171381543Y-44527223D01*
X147644482Y-33780773D02*
X147631936Y-33759453D01*
X171356852Y-85575247D02*
X171332207Y-85573108D01*
X187926408Y-63869895D02*
X187967899Y-63839428D01*
X129893122Y-64314985D02*
X129911560Y-64298492D01*
X170440228Y-65187545D02*
X170437179Y-65162996D01*
X170623405Y-44936262D02*
X170638239Y-44916466D01*
X149456259Y-37970479D02*
X149463202Y-37994222D01*
X126168759Y-85378180D02*
X126148782Y-85392771D01*
X171211898Y-103128297D02*
X171235909Y-103123214D01*
X148108829Y-53709318D02*
X148086536Y-53699520D01*
X148985593Y-92715184D02*
X148963820Y-92726929D01*
X109253334Y-27082338D02*
X109206559Y-27103830D01*
X188350283Y-43663850D02*
X188356787Y-43612787D01*
X130072546Y-44657936D02*
X130094171Y-44645921D01*
X129930400Y-46295538D02*
X129911560Y-46279507D01*
X130116085Y-64160445D02*
X130138277Y-64149515D01*
X167120540Y-103379752D02*
X167138106Y-103396893D01*
X126400469Y-103548429D02*
X126413853Y-103569002D01*
X166651811Y-83602683D02*
X166675869Y-83608443D01*
X170871548Y-64223136D02*
X170892222Y-64209551D01*
X147524683Y-72535811D02*
X147519519Y-72511618D01*
X171186130Y-46495556D02*
X171162222Y-46489202D01*
X167387940Y-103813715D02*
X167394776Y-103837287D01*
X125789811Y-66027316D02*
X125765618Y-66032480D01*
X167421771Y-84442454D02*
X167424820Y-84467003D01*
X171114914Y-64103269D02*
X171138479Y-64095740D01*
X108638000Y-43510000D02*
X109654000Y-44526000D01*
X166650101Y-103128297D02*
X166673980Y-103133968D01*
X149139714Y-53557612D02*
X149120809Y-53572961D01*
X125569000Y-44526000D02*
X125593735Y-44526305D01*
X188362000Y-25000000D02*
X188362000Y-21000000D01*
X148708635Y-76337006D02*
X148732763Y-76342466D01*
X126144808Y-26817584D02*
X126124570Y-26831469D01*
X129861893Y-26707106D02*
X129844752Y-26689540D01*
X170486219Y-64724296D02*
X170494614Y-64701026D01*
X166578886Y-64062995D02*
X166603305Y-64066956D01*
X148732763Y-73287533D02*
X148708635Y-73292993D01*
X129733226Y-85127074D02*
X129719900Y-85106233D01*
X126103997Y-103259146D02*
X126124570Y-103272530D01*
X126258540Y-103379752D02*
X126276106Y-103396893D01*
X188243921Y-109575396D02*
X188285879Y-109486683D01*
X126496417Y-84203971D02*
X126505385Y-84227026D01*
X126450921Y-103632603D02*
X126462224Y-103654388D01*
X148125971Y-34190417D02*
X148103145Y-34180881D01*
X126086773Y-64196482D02*
X126107777Y-64209551D01*
X126390935Y-84008419D02*
X126404773Y-84028925D01*
X170851217Y-46340771D02*
X170831240Y-46326180D01*
X108883101Y-46880205D02*
X108850571Y-46920100D01*
X109500149Y-85589716D02*
X109449480Y-85598797D01*
X170978085Y-64160445D02*
X171000277Y-64149515D01*
X166927453Y-83709936D02*
X166948773Y-83722482D01*
X109301137Y-66115243D02*
X109253334Y-66134338D01*
X166905828Y-65932078D02*
X166883914Y-65943554D01*
X126559771Y-45390454D02*
X126562820Y-45415003D01*
X166969777Y-83735551D02*
X166990451Y-83749136D01*
X109602540Y-66053304D02*
X109551212Y-66057212D01*
X171094110Y-103162455D02*
X171117318Y-103154471D01*
X170657989Y-26634393D02*
X170642653Y-26615231D01*
X170569094Y-45018931D02*
X170581900Y-44997766D01*
X129602521Y-45269251D02*
X129609168Y-45245423D01*
X148315619Y-92823854D02*
X148291364Y-92818993D01*
X108864989Y-109738393D02*
X108930893Y-109811106D01*
X129586145Y-84762380D02*
X129581884Y-84738011D01*
X149402484Y-72745722D02*
X149391554Y-72767914D01*
X170831240Y-65852180D02*
X170811630Y-65837099D01*
X149497247Y-72389147D02*
X149495108Y-72413792D01*
X129733226Y-65601074D02*
X129719900Y-65580233D01*
X125885085Y-83629269D02*
X125908456Y-83637378D01*
X147501223Y-77265543D02*
X147502752Y-77240852D01*
X167106877Y-83840985D02*
X167124901Y-83857929D01*
X126561479Y-103981589D02*
X126564184Y-104005982D01*
X147536797Y-92109777D02*
X147530443Y-92085869D01*
X149463202Y-77046222D02*
X149469556Y-77070130D01*
X148500074Y-53789074D02*
X148500000Y-53795136D01*
X130119388Y-26893224D02*
X130097603Y-26881921D01*
X170448145Y-84762380D02*
X170443884Y-84738011D01*
X167413854Y-65236380D02*
X167408993Y-65260635D01*
X166790895Y-26932992D02*
X166767889Y-26941544D01*
X149049074Y-34098773D02*
X149028233Y-34112099D01*
X167394776Y-103837287D02*
X167401031Y-103861019D01*
X126021914Y-85469554D02*
X125999722Y-85480484D01*
X148609459Y-53782991D02*
X148585224Y-53785361D01*
X148610996Y-76321179D02*
X148635545Y-76324228D01*
X109654000Y-27000000D02*
X109602540Y-27001304D01*
X126107777Y-64209551D02*
X126128451Y-64223136D01*
X166770456Y-85518621D02*
X166747085Y-85526730D01*
X108756078Y-109575396D02*
X108806530Y-109659570D01*
X167431074Y-65052074D02*
X167430924Y-65064271D01*
X167375780Y-45853703D02*
X167367385Y-45876973D01*
X129934606Y-26773010D02*
X129915827Y-26757208D01*
X171210188Y-83602683D02*
X171234381Y-83597519D01*
X148963820Y-95955070D02*
X148985593Y-95966815D01*
X149244801Y-57121714D02*
X149260829Y-57140047D01*
X126568924Y-84565728D02*
X126569074Y-84577925D01*
X170581900Y-65580233D02*
X170569094Y-65559068D01*
X148957301Y-56899688D02*
X148978820Y-56911087D01*
X167006808Y-26817584D02*
X166986570Y-26831469D01*
X129632614Y-45175026D02*
X129641582Y-45151971D01*
X125692377Y-46518359D02*
X125667792Y-46521108D01*
X171162222Y-85541202D02*
X171138479Y-85534259D01*
X149495108Y-33361792D02*
X149492359Y-33386377D01*
X126539031Y-26242980D02*
X126532776Y-26266712D01*
X149456259Y-72607520D02*
X149448730Y-72631085D01*
X148014406Y-76440815D02*
X148036179Y-76429070D01*
X170533868Y-65493764D02*
X170523215Y-65471437D01*
X149498814Y-52837684D02*
X149497332Y-52861990D01*
X166813683Y-26923879D02*
X166790895Y-26932992D01*
X171138479Y-66008259D02*
X171114914Y-66000730D01*
X126258540Y-26724247D02*
X126240558Y-26740951D01*
X125837777Y-64088797D02*
X125861520Y-64095740D01*
X147608445Y-96388085D02*
X147619921Y-96366171D01*
X147507640Y-33386377D02*
X147504891Y-33361792D01*
X170916897Y-103246271D02*
X170938101Y-103233913D01*
X170431684Y-84615001D02*
X170431075Y-84590271D01*
X170669355Y-64404004D02*
X170685617Y-64385362D01*
X125716886Y-85567004D02*
X125692377Y-85570359D01*
X109500149Y-66063716D02*
X109449480Y-66072797D01*
X147619921Y-76840171D02*
X147631936Y-76818546D01*
X166553410Y-103111520D02*
X166577730Y-103114823D01*
X129588214Y-103908909D02*
X129593297Y-103884898D01*
X167292905Y-65559068D02*
X167280099Y-65580233D01*
X149041622Y-53629621D02*
X149020993Y-53642560D01*
X148850973Y-95904614D02*
X148874028Y-95913582D01*
X129993191Y-103286415D02*
X130013429Y-103272530D01*
X147723594Y-53419233D02*
X147708478Y-53400141D01*
X108638000Y-63036000D02*
X109654000Y-64052000D01*
X149489344Y-57643407D02*
X149492596Y-57667540D01*
X126361760Y-83968466D02*
X126376594Y-83988262D01*
X129893122Y-46263014D02*
X129875098Y-46246070D01*
X148172296Y-95896219D02*
X148195766Y-95888402D01*
X147519519Y-92037618D02*
X147514956Y-92013305D01*
X170569094Y-84070931D02*
X170581900Y-84049766D01*
X171235909Y-103123214D02*
X171260038Y-103118722D01*
X166883914Y-65943554D02*
X166861722Y-65954484D01*
X147640110Y-53299479D02*
X147627935Y-53278390D01*
X126562820Y-64941003D02*
X126565262Y-64965620D01*
X171022733Y-64139137D02*
X171045439Y-64129317D01*
X166861722Y-85480484D02*
X166839266Y-85490862D01*
X126505385Y-84227026D02*
X126513780Y-84250296D01*
X170573271Y-26514102D02*
X170560913Y-26492898D01*
X126454929Y-84114179D02*
X126466131Y-84136235D01*
X167358417Y-45900028D02*
X167348881Y-45922854D01*
X148874028Y-92768417D02*
X148850973Y-92777385D01*
X130494852Y-64054752D02*
X130519543Y-64053223D01*
X167380528Y-26313681D02*
X167372544Y-26336889D01*
X126168759Y-46326180D02*
X126148782Y-46340771D01*
X170595226Y-44976925D02*
X170609064Y-44956419D01*
X171258694Y-44540956D02*
X171283113Y-44536995D01*
X148708635Y-34240993D02*
X148684380Y-34245854D01*
X170545070Y-85041820D02*
X170533868Y-85019764D01*
X149147995Y-37501355D02*
X149166637Y-37517617D01*
X148919437Y-76407215D02*
X148941764Y-76417868D01*
X149480480Y-38066381D02*
X149485043Y-38090694D01*
X129569684Y-45563001D02*
X129569075Y-45538271D01*
X166455541Y-103104301D02*
X166480067Y-103105204D01*
X166480456Y-66050776D02*
X166455735Y-66051694D01*
X125667792Y-44530891D02*
X125692377Y-44533640D01*
X129569000Y-25006136D02*
X129568925Y-25000074D01*
X167334989Y-103676444D02*
X167345209Y-103698758D01*
X148270621Y-53762337D02*
X148246988Y-53756463D01*
X170503582Y-45151971D02*
X170513118Y-45129145D01*
X148756748Y-37296521D02*
X148780576Y-37303168D01*
X126454929Y-65515820D02*
X126443184Y-65537593D01*
X132514000Y-88118000D02*
X132514000Y-88118000D01*
X129807355Y-46173995D02*
X129791559Y-46154957D01*
X149342448Y-37724222D02*
X149355517Y-37745226D01*
X147992931Y-95979094D02*
X148014406Y-95966815D01*
X148223506Y-53750015D02*
X148200188Y-53742998D01*
X166770456Y-65992621D02*
X166747085Y-66000730D01*
X126065453Y-83709936D02*
X126086773Y-83722482D01*
X149402484Y-92271722D02*
X149391554Y-92293914D01*
X149500000Y-96841000D02*
X149500000Y-103104000D01*
X149492359Y-91964377D02*
X149489004Y-91988886D01*
X126568315Y-45563001D02*
X126567094Y-45587709D01*
X187448787Y-83572787D02*
X187499850Y-83566283D01*
X167338784Y-84158562D02*
X167348881Y-84181145D01*
X149431937Y-92203619D02*
X149422682Y-92226560D01*
X171284269Y-103114823D02*
X171308589Y-103111520D01*
X125861520Y-66008259D02*
X125837777Y-66015202D01*
X125813869Y-46495556D02*
X125789811Y-46501316D01*
X170609064Y-65621580D02*
X170595226Y-65601074D01*
X170690048Y-26671558D02*
X170673791Y-26653172D01*
X160676000Y-61512000D02*
X164486000Y-61512000D01*
X108670433Y-86339337D02*
X108658797Y-86389480D01*
X126568924Y-84590271D02*
X126568315Y-84615001D01*
X170523215Y-64632562D02*
X170533868Y-64610235D01*
X125716886Y-64062995D02*
X125741305Y-64066956D01*
X188116898Y-102749794D02*
X188149428Y-102709899D01*
X148635545Y-95850228D02*
X148660011Y-95853884D01*
X109206559Y-27103830D02*
X109160933Y-27127663D01*
X149166637Y-37517617D02*
X149184870Y-37534335D01*
X188285879Y-109486683D02*
X188318940Y-109394284D01*
X170702335Y-65736870D02*
X170685617Y-65718637D01*
X109347715Y-20043059D02*
X109347715Y-20043059D01*
X130160733Y-46438862D02*
X130138277Y-46428484D01*
X177313000Y-41986000D02*
X181123000Y-41986000D01*
X149237014Y-76639122D02*
X149253507Y-76657560D01*
X149285099Y-96221630D02*
X149300180Y-96241240D01*
X149470495Y-53030119D02*
X149464336Y-53053679D01*
X149412862Y-76906733D02*
X149422682Y-76929439D01*
X187346000Y-46526000D02*
X171431000Y-46526000D01*
X149412862Y-37854733D02*
X149422682Y-37877439D01*
X148243251Y-34229478D02*
X148219423Y-34222831D01*
X130163758Y-103189790D02*
X130186316Y-103180120D01*
X177287600Y-68592000D02*
X177287600Y-68592000D01*
X188350283Y-82715850D02*
X188356787Y-82664787D01*
X167338784Y-45106562D02*
X167348881Y-45129145D01*
X126346440Y-46154957D02*
X126330644Y-46173995D01*
X166651811Y-46501316D02*
X166627618Y-46506480D01*
X147730461Y-72953599D02*
X147714900Y-72934369D01*
X147714900Y-96221630D02*
X147730461Y-96202400D01*
X148042698Y-53678311D02*
X148021179Y-53666912D01*
X126575136Y-45526000D02*
X126575136Y-45526000D01*
X147815129Y-73043664D02*
X147797314Y-73026500D01*
X108658797Y-66863480D02*
X108649716Y-66914149D01*
X166455735Y-44526305D02*
X166480456Y-44527223D01*
X109166603Y-20118078D02*
X109082429Y-20168530D01*
X149237014Y-96165122D02*
X149253507Y-96183560D01*
X147504740Y-52886253D02*
X147502667Y-52861990D01*
X170507120Y-103721316D02*
X170516790Y-103698758D01*
X130276479Y-66008259D02*
X130252914Y-66000730D01*
X125837777Y-66015202D02*
X125813869Y-66021556D01*
X170523215Y-45106562D02*
X170533868Y-45084235D01*
X126565262Y-45612379D02*
X126562820Y-45636996D01*
X129636007Y-103744104D02*
X129645120Y-103721316D01*
X126528831Y-64771423D02*
X126535478Y-64795251D01*
X170556815Y-85063593D02*
X170545070Y-85041820D01*
X187917570Y-20168530D02*
X187833396Y-20118078D01*
X170464521Y-65308748D02*
X170458466Y-65284763D01*
X188069106Y-20292893D02*
X187996393Y-20226989D01*
X166990451Y-65880863D02*
X166969777Y-65894448D01*
X148500074Y-56788925D02*
X148512271Y-56789075D01*
X129575179Y-64941003D02*
X129578228Y-64916454D01*
X167372544Y-26336889D02*
X167363992Y-26359895D01*
X166675869Y-44556443D02*
X166699777Y-44562797D01*
X108917610Y-66368009D02*
X108883101Y-66406205D01*
X148776493Y-56827984D02*
X148799811Y-56835001D01*
X187793440Y-83474169D02*
X187839066Y-83450336D01*
X129707094Y-46033068D02*
X129694815Y-46011593D01*
X147685228Y-76735217D02*
X147699819Y-76715240D01*
X129602521Y-64795251D02*
X129609168Y-64771423D01*
X147930419Y-96019064D02*
X147950925Y-96005226D01*
X167358417Y-45151971D02*
X167367385Y-45175026D01*
X149253507Y-96183560D02*
X149269538Y-96202400D01*
X125789811Y-83602683D02*
X125813869Y-83608443D01*
X170811630Y-85363099D02*
X170792400Y-85347538D01*
X148058235Y-95943868D02*
X148080562Y-95933215D01*
X109082429Y-109935469D02*
X109166603Y-109985921D01*
X149440621Y-33602456D02*
X149431937Y-33625619D01*
X126567795Y-26049067D02*
X126566290Y-26073564D01*
X126188369Y-64266900D02*
X126207599Y-64282461D01*
X147619921Y-33737828D02*
X147608445Y-33715914D01*
X187967899Y-102891428D02*
X188007794Y-102858898D01*
X149069580Y-34084935D02*
X149049074Y-34098773D01*
X170916897Y-26857728D02*
X170896002Y-26844853D01*
X149476078Y-53006417D02*
X149470495Y-53030119D01*
X125715730Y-103114823D02*
X125739961Y-103118722D01*
X108643212Y-66965212D02*
X108639304Y-67016540D01*
X129579823Y-26146730D02*
X129576520Y-26122410D01*
X170513118Y-65448854D02*
X170503582Y-65426028D01*
X129641582Y-65426028D02*
X129632614Y-65402973D01*
X149500000Y-57789000D02*
X149500000Y-64052000D01*
X125788101Y-103128297D02*
X125811980Y-103133968D01*
X130278715Y-26956940D02*
X130255318Y-26949528D01*
X126168759Y-44725819D02*
X126188369Y-44740900D01*
X126532776Y-26266712D02*
X126525940Y-26290284D01*
X125593735Y-85577694D02*
X125569000Y-85578000D01*
X149434024Y-57431789D02*
X149442445Y-57454638D01*
X171381932Y-26998795D02*
X171357435Y-26997290D01*
X170737098Y-46246070D02*
X170719499Y-46228685D01*
X148267236Y-76342466D02*
X148291364Y-76337006D01*
X167431074Y-65051925D02*
X167437136Y-65052000D01*
X167252935Y-44956419D02*
X167266773Y-44976925D01*
X166965997Y-103259146D02*
X166986570Y-103272530D01*
X109206559Y-46629830D02*
X109160933Y-46653663D01*
X147640110Y-57278520D02*
X147652795Y-57257733D01*
X148499925Y-34263074D02*
X148487728Y-34262924D01*
X148177047Y-56842584D02*
X148200188Y-56835001D01*
X167367385Y-65402973D02*
X167358417Y-65426028D01*
X147631936Y-72811453D02*
X147619921Y-72789828D01*
X130186316Y-26923879D02*
X130163758Y-26914209D01*
X129624219Y-84905703D02*
X129616402Y-84882233D01*
X147652795Y-57257733D02*
X147665982Y-57237262D01*
X125954560Y-85500682D02*
X125931619Y-85509937D01*
X171234381Y-64071519D02*
X171258694Y-64066956D01*
X147779929Y-92534901D02*
X147762985Y-92516877D01*
X148684380Y-73297854D02*
X148660011Y-73302115D01*
X149480480Y-96644381D02*
X149485043Y-96668694D01*
X148780576Y-73274831D02*
X148756748Y-73281478D01*
X170755122Y-65789014D02*
X170737098Y-65772070D01*
X147699819Y-92440759D02*
X147685228Y-92420782D01*
X148537001Y-37263684D02*
X148561709Y-37264905D01*
X170431075Y-84590271D02*
X170430925Y-84578074D01*
X167358417Y-64677971D02*
X167367385Y-64701026D01*
X130519543Y-85576776D02*
X130494852Y-85575247D01*
X126418099Y-64523766D02*
X126430905Y-64544931D01*
X149485506Y-52958639D02*
X149481083Y-52982585D01*
X170831240Y-64251819D02*
X170851217Y-64237228D01*
X170431684Y-45563001D02*
X170431075Y-45538271D01*
X170453006Y-45317364D02*
X170458466Y-45293236D01*
X148919437Y-95933215D02*
X148941764Y-95943868D01*
X170453006Y-84369364D02*
X170458466Y-84345236D01*
X129875098Y-44805929D02*
X129893122Y-44788985D01*
X187448787Y-103098787D02*
X187499850Y-103092283D01*
X149480480Y-33459618D02*
X149475316Y-33483811D01*
X170435815Y-26098017D02*
X170433709Y-26073564D01*
X130206380Y-64120062D02*
X130229543Y-64111378D01*
X147568062Y-76952380D02*
X147577317Y-76929439D01*
X149342448Y-33801777D02*
X149328863Y-33822451D01*
X126346440Y-83949042D02*
X126361760Y-83968466D01*
X187917570Y-109935469D02*
X187996393Y-109877010D01*
X188315405Y-43814152D02*
X188329566Y-43764662D01*
X149480480Y-77118381D02*
X149485043Y-77142694D01*
X170706752Y-26689540D02*
X170690048Y-26671558D01*
X109003606Y-109877010D02*
X109082429Y-109935469D01*
X167429094Y-84516290D02*
X167430315Y-84540998D01*
X126454929Y-45062179D02*
X126466131Y-45084235D01*
X147507640Y-96717622D02*
X147510995Y-96693113D01*
X170458466Y-84810763D02*
X170453006Y-84786635D01*
X166601961Y-26985277D02*
X166577730Y-26989176D01*
X148780576Y-95881168D02*
X148804233Y-95888402D01*
X148364454Y-95850228D02*
X148389003Y-95847179D01*
X167030759Y-83777819D02*
X167050369Y-83792900D01*
X170595226Y-85127074D02*
X170581900Y-85106233D01*
X170556815Y-45040406D02*
X170569094Y-45018931D01*
X129583722Y-26170961D02*
X129579823Y-26146730D01*
X125741305Y-85563043D02*
X125716886Y-85567004D01*
X148827703Y-95896219D02*
X148850973Y-95904614D01*
X116283400Y-43510000D02*
X115902400Y-41986000D01*
X188069106Y-109811106D02*
X188135010Y-109738393D01*
X109032100Y-66264571D02*
X108992205Y-66297101D01*
X171138479Y-46482259D02*
X171114914Y-46474730D01*
X166504564Y-26997290D02*
X166480067Y-26998795D01*
X148500000Y-37256863D02*
X148500000Y-37256863D01*
X126476784Y-45106562D02*
X126486881Y-45129145D01*
X147652795Y-53320266D02*
X147640110Y-53299479D01*
X149328863Y-76755548D02*
X149342448Y-76776222D01*
X170432905Y-45464290D02*
X170434737Y-45439620D01*
X126184231Y-26788346D02*
X126164699Y-26803207D01*
X188362000Y-43510000D02*
X188362000Y-28016000D01*
X164105000Y-43510000D02*
X161057000Y-43510000D01*
X148845901Y-53727270D02*
X148822952Y-53735415D01*
X149463202Y-33531777D02*
X149456259Y-33555520D01*
X125643147Y-46523247D02*
X125618456Y-46524776D01*
X126559771Y-84713545D02*
X126556115Y-84738011D01*
X108741830Y-27568559D02*
X108720338Y-27615334D01*
X129807355Y-64404004D02*
X129823617Y-64385362D01*
X126486881Y-64655145D02*
X126496417Y-64677971D01*
X126492879Y-26382683D02*
X126483209Y-26405241D01*
X167431074Y-84578074D02*
X167430924Y-84590271D01*
X148014406Y-92715184D02*
X147992931Y-92702905D01*
X147723594Y-57158766D02*
X147739170Y-57140047D01*
X130494852Y-66049247D02*
X130470207Y-66047108D01*
X136324000Y-61512000D02*
X135943000Y-63036000D01*
X149000055Y-56923006D02*
X149020993Y-56935439D01*
X126314382Y-46192637D02*
X126297664Y-46210870D01*
X148267236Y-73287533D02*
X148243251Y-73281478D01*
X177313000Y-61512000D02*
X181123000Y-61512000D01*
X130160733Y-44613137D02*
X130183439Y-44603317D01*
X171186130Y-83608443D02*
X171210188Y-83602683D01*
X160676000Y-68592000D02*
X161057000Y-67068000D01*
X170978085Y-44634445D02*
X171000277Y-44623515D01*
X129609168Y-64771423D02*
X129616402Y-64747766D01*
X170533868Y-85019764D02*
X170523215Y-84997437D01*
X148064488Y-56888817D02*
X148086536Y-56878479D01*
X148463384Y-53788329D02*
X148439062Y-53787141D01*
X167354879Y-26382683D02*
X167345209Y-26405241D01*
X188135010Y-20365606D02*
X188069106Y-20292893D01*
X167431000Y-104104000D02*
X167431000Y-105097863D01*
X170431301Y-26024541D02*
X170431000Y-26000000D01*
X166554377Y-44533640D02*
X166578886Y-44536995D01*
X149355517Y-72832773D02*
X149342448Y-72853777D01*
X130141444Y-103200010D02*
X130163758Y-103189790D01*
X149276405Y-53419233D02*
X149260829Y-53437952D01*
X109301137Y-85641243D02*
X109253334Y-85660338D01*
X166883914Y-44634445D02*
X166905828Y-44645921D01*
X129707094Y-45018931D02*
X129719900Y-44997766D01*
X167106877Y-44788985D02*
X167124901Y-44805929D01*
X170586146Y-26534997D02*
X170573271Y-26514102D01*
X147971766Y-76465900D02*
X147992931Y-76453094D01*
X129915827Y-26757208D02*
X129897441Y-26740951D01*
X187397459Y-103102695D02*
X187448787Y-103098787D01*
X148780576Y-92800831D02*
X148756748Y-92807478D01*
X149101535Y-56990154D02*
X149120809Y-57005038D01*
X148246988Y-56821536D02*
X148270621Y-56815662D01*
X148919437Y-34170784D02*
X148896854Y-34180881D01*
X129598968Y-26242980D02*
X129593297Y-26219101D01*
X167266773Y-84028925D02*
X167280099Y-84049766D01*
X129911560Y-65805507D02*
X129893122Y-65789014D01*
X170851217Y-65866771D02*
X170831240Y-65852180D01*
X108658797Y-27811480D02*
X108649716Y-27862149D01*
X149320335Y-53360882D02*
X149306167Y-53380687D01*
X188193469Y-20444429D02*
X188135010Y-20365606D01*
X126521597Y-65356233D02*
X126513780Y-65379703D01*
X149220070Y-92534901D02*
X149202685Y-92552500D01*
X125954560Y-64129317D02*
X125977266Y-64139137D01*
X148500000Y-56782863D02*
X148500074Y-56788925D01*
X171138479Y-83621740D02*
X171162222Y-83614797D01*
X147524683Y-77094188D02*
X147530443Y-77070130D01*
X148635545Y-92831771D02*
X148610996Y-92834820D01*
X108883101Y-66406205D02*
X108850571Y-66446100D01*
X148919437Y-92748784D02*
X148896854Y-92758881D01*
X170513118Y-45922854D02*
X170503582Y-45900028D01*
X147971766Y-73164099D02*
X147950925Y-73150773D01*
X130324130Y-64082443D02*
X130348188Y-64076683D01*
X148014406Y-34137184D02*
X147992931Y-34124905D01*
X149020993Y-53642560D02*
X149000055Y-53654993D01*
X167301086Y-26492898D02*
X167288728Y-26514102D01*
X125837777Y-85541202D02*
X125813869Y-85547556D01*
X130206380Y-46457937D02*
X130183439Y-46448682D01*
X170507120Y-26382683D02*
X170498007Y-26359895D01*
X129569075Y-65039728D02*
X129569684Y-65014998D01*
X188179895Y-102668408D02*
X188208222Y-102625427D01*
X166577730Y-103114823D02*
X166601961Y-103118722D01*
X171258694Y-66037043D02*
X171234381Y-66032480D01*
X181123000Y-41986000D02*
X181123000Y-41986000D01*
X171406264Y-46525694D02*
X171381543Y-46524776D01*
X108883101Y-27354205D02*
X108850571Y-27394100D01*
X148499925Y-95840925D02*
X148500000Y-95834863D01*
X164105000Y-67068000D02*
X164486000Y-68592000D01*
X126280500Y-65754685D02*
X126262901Y-65772070D01*
X147762985Y-33938877D02*
X147746492Y-33920439D01*
X126454929Y-64588179D02*
X126466131Y-64610235D01*
X188116898Y-83223794D02*
X188149428Y-83183899D01*
X171186130Y-85547556D02*
X171162222Y-85541202D01*
X130569000Y-103104000D02*
X147500000Y-103104000D01*
X129949630Y-46311099D02*
X129930400Y-46295538D01*
X166554377Y-64059640D02*
X166578886Y-64062995D01*
X167046231Y-103315653D02*
X167065393Y-103330989D01*
X130324130Y-46495556D02*
X130300222Y-46489202D01*
X166816560Y-46448682D02*
X166793619Y-46457937D01*
X170448145Y-64867619D02*
X170453006Y-64843364D01*
X126476784Y-45945437D02*
X126466131Y-45967764D01*
X132514000Y-29540000D02*
X132895000Y-28016000D01*
X148560937Y-56790858D02*
X148585224Y-56792638D01*
X170435815Y-104005982D02*
X170438520Y-103981589D01*
X166969777Y-85420448D02*
X166948773Y-85433517D01*
X149391554Y-92293914D02*
X149380078Y-92315828D01*
X135943000Y-47542000D02*
X136324000Y-49066000D01*
X180742000Y-102088000D02*
X177694000Y-102088000D01*
X171138479Y-64095740D02*
X171162222Y-64088797D01*
X166945102Y-103246271D02*
X166965997Y-103259146D01*
X149412862Y-96432733D02*
X149422682Y-96455439D01*
X148635545Y-73305771D02*
X148610996Y-73308820D01*
X148291364Y-73292993D02*
X148267236Y-73287533D01*
X129568925Y-84578074D02*
X129562863Y-84578000D01*
X171332982Y-26995184D02*
X171308589Y-26992479D01*
X166675869Y-85547556D02*
X166651811Y-85553316D01*
X166651811Y-66027316D02*
X166627618Y-66032480D01*
X170437179Y-84467003D02*
X170440228Y-84442454D01*
X188234336Y-102581066D02*
X188258169Y-102535440D01*
X125813869Y-44556443D02*
X125837777Y-44562797D01*
X115877000Y-29540000D02*
X116258000Y-28016000D01*
X167069599Y-83808461D02*
X167088439Y-83824492D01*
X147587137Y-92249266D02*
X147577317Y-92226560D01*
X148219423Y-73274831D02*
X148195766Y-73267597D01*
X148985593Y-95966815D02*
X149007068Y-95979094D01*
X147699819Y-72914759D02*
X147685228Y-72894782D01*
X126297664Y-65736870D02*
X126280500Y-65754685D01*
X129602521Y-84321251D02*
X129609168Y-84297423D01*
X126361760Y-65661533D02*
X126346440Y-65680957D01*
X188329566Y-82816662D02*
X188341202Y-82766519D01*
X129570905Y-45464290D02*
X129572737Y-45439620D01*
X119331400Y-102088000D02*
X119331400Y-102088000D01*
X125569000Y-27000000D02*
X109654000Y-27000000D01*
X147587137Y-96432733D02*
X147597515Y-96410277D01*
X126330644Y-85225995D02*
X126314382Y-85244637D01*
X129683070Y-64588179D02*
X129694815Y-64566406D01*
X147771666Y-57103776D02*
X147788567Y-57086245D01*
X170956171Y-83697921D02*
X170978085Y-83686445D01*
X109654000Y-46526000D02*
X109602540Y-46527304D01*
X167390831Y-64771423D02*
X167397478Y-64795251D01*
X166747085Y-44577269D02*
X166770456Y-44585378D01*
X148291364Y-92818993D02*
X148267236Y-92813533D01*
X147568062Y-96478380D02*
X147577317Y-96455439D01*
X126566290Y-26073564D02*
X126564184Y-26098017D01*
X129616402Y-84882233D02*
X129609168Y-84858576D01*
X171210188Y-66027316D02*
X171186130Y-66021556D01*
X147746492Y-92498439D02*
X147730461Y-92479599D01*
X130094171Y-64171921D02*
X130116085Y-64160445D01*
X130209104Y-103171007D02*
X130232110Y-103162455D01*
X147971766Y-37413900D02*
X147992931Y-37401094D01*
X147746492Y-37605560D02*
X147762985Y-37587122D01*
X170581900Y-46054233D02*
X170569094Y-46033068D01*
X148291364Y-34240993D02*
X148267236Y-34235533D01*
X126556115Y-64891988D02*
X126559771Y-64916454D01*
X126148782Y-46340771D02*
X126128451Y-46354863D01*
X126207599Y-85347538D02*
X126188369Y-85363099D01*
X129795989Y-26634393D02*
X129780653Y-26615231D01*
X147910262Y-34070594D02*
X147890466Y-34055760D01*
X130116085Y-44634445D02*
X130138277Y-44623515D01*
X129953768Y-103315653D02*
X129973300Y-103300792D01*
X130051226Y-64196482D02*
X130072546Y-64183936D01*
X167401031Y-103861019D02*
X167406702Y-103884898D01*
X167026699Y-26803207D02*
X167006808Y-26817584D01*
X126065453Y-85446063D02*
X126043828Y-85458078D01*
X170430925Y-45526074D02*
X170424863Y-45526000D01*
X136324000Y-29540000D02*
X136324000Y-29540000D01*
X167416277Y-103933038D02*
X167420176Y-103957269D01*
X125908456Y-64111378D02*
X125931619Y-64120062D01*
X126043828Y-64171921D02*
X126065453Y-64183936D01*
X129698913Y-26492898D02*
X129687078Y-26471396D01*
X170424863Y-25000000D02*
X188362000Y-25000000D01*
X125882681Y-103154471D02*
X125905889Y-103162455D01*
X149492596Y-52910459D02*
X149489344Y-52934592D01*
X125905889Y-103162455D02*
X125928895Y-103171007D01*
X187397459Y-64050695D02*
X187448787Y-64046787D01*
X115902400Y-61512000D02*
X119712400Y-61512000D01*
X149394856Y-53235354D02*
X149383722Y-53257011D01*
X125977266Y-85490862D02*
X125954560Y-85500682D01*
X129683070Y-65515820D02*
X129671868Y-65493764D01*
X147501223Y-96791543D02*
X147502752Y-96766852D01*
X126535478Y-45782748D02*
X126528831Y-45806576D01*
X129989217Y-44711228D02*
X130009548Y-44697136D01*
X167223760Y-64442466D02*
X167238594Y-64462262D01*
X109032100Y-46738571D02*
X108992205Y-46771101D01*
X188082389Y-102787990D02*
X188116898Y-102749794D01*
X170432905Y-64990290D02*
X170434737Y-64965620D01*
X166480456Y-64053223D02*
X166505147Y-64054752D01*
X148339988Y-73302115D02*
X148315619Y-73297854D01*
X188341202Y-63240519D02*
X188350283Y-63189850D01*
X126330644Y-64404004D02*
X126346440Y-64423042D01*
X149495108Y-91939792D02*
X149492359Y-91964377D01*
X129969240Y-46326180D02*
X129949630Y-46311099D01*
X129596466Y-84345236D02*
X129602521Y-84321251D01*
X167266773Y-85127074D02*
X167252935Y-85147580D01*
X109551212Y-66057212D02*
X109500149Y-66063716D01*
X147852004Y-34024644D02*
X147833362Y-34008382D01*
X109449480Y-85598797D02*
X109399337Y-85610433D01*
X148985593Y-37388815D02*
X149007068Y-37401094D01*
X149285099Y-37643630D02*
X149300180Y-37663240D01*
X126565262Y-45439620D02*
X126567094Y-45464290D01*
X149253507Y-76657560D02*
X149269538Y-76676400D01*
X135943000Y-102088000D02*
X132895000Y-102088000D01*
X126390935Y-65621580D02*
X126376594Y-65641737D01*
X166744681Y-103154471D02*
X166767889Y-103162455D01*
X167429094Y-45587709D02*
X167427262Y-45612379D01*
X126513780Y-45198296D02*
X126521597Y-45221766D01*
X129675775Y-26449611D02*
X129665010Y-26427555D01*
X109449480Y-46546797D02*
X109399337Y-46558433D01*
X129861893Y-103396893D02*
X129879459Y-103379752D01*
X147530443Y-33507869D02*
X147524683Y-33483811D01*
X147597515Y-92271722D02*
X147587137Y-92249266D01*
X170892222Y-44683551D02*
X170913226Y-44670482D01*
X148200188Y-53742998D02*
X148177047Y-53735415D01*
X148390540Y-56795008D02*
X148414775Y-56792638D01*
X171284269Y-26989176D02*
X171260038Y-26985277D01*
X170638239Y-64442466D02*
X170653559Y-64423042D01*
X170978085Y-46417554D02*
X170956171Y-46406078D01*
X166480456Y-46524776D02*
X166455735Y-46525694D01*
X170702335Y-85262870D02*
X170685617Y-85244637D01*
X129568925Y-65051925D02*
X129569075Y-65039728D01*
X147536797Y-96572222D02*
X147543740Y-96548479D01*
X108883101Y-85932205D02*
X108850571Y-85972100D01*
X148389003Y-34256820D02*
X148364454Y-34253771D01*
X167065393Y-26773010D02*
X167046231Y-26788346D01*
X125741305Y-64066956D02*
X125765618Y-64071519D01*
X166529792Y-46521108D02*
X166505147Y-46523247D01*
X166505147Y-83580752D02*
X166529792Y-83582891D01*
X148294389Y-56810366D02*
X148318279Y-56805649D01*
X149391554Y-72767914D02*
X149380078Y-72789828D01*
X126244877Y-65789014D02*
X126226439Y-65805507D01*
X147507640Y-91964377D02*
X147504891Y-91939792D01*
X187600662Y-103071566D02*
X187650152Y-103057405D01*
X170494614Y-84227026D02*
X170503582Y-84203971D01*
X148318279Y-56805649D02*
X148342277Y-56801516D01*
X126510544Y-103767110D02*
X126518528Y-103790318D01*
X167431074Y-84577925D02*
X167437136Y-84578000D01*
X166793619Y-64120062D02*
X166816560Y-64129317D01*
X166480067Y-26998795D02*
X166455541Y-26999698D01*
X125977266Y-64139137D02*
X125999722Y-64149515D01*
X167418115Y-84417988D02*
X167421771Y-84442454D01*
X147608445Y-76862085D02*
X147619921Y-76840171D01*
X108638000Y-102088000D02*
X109654000Y-103104000D01*
X108791777Y-47004572D02*
X108765663Y-47048933D01*
X147500000Y-72315000D02*
X147500000Y-66052000D01*
X149158239Y-53541808D02*
X149139714Y-53557612D01*
X170533868Y-64610235D02*
X170545070Y-64588179D01*
X166927453Y-44657936D02*
X166948773Y-44670482D01*
X147518916Y-57595414D02*
X147523921Y-57571582D01*
X126525940Y-26290284D02*
X126518528Y-26313681D01*
X129602521Y-45782748D02*
X129596466Y-45758763D01*
X149380078Y-37788171D02*
X149391554Y-37810085D01*
X126244877Y-85315014D02*
X126226439Y-85331507D01*
X108765663Y-27522933D02*
X108741830Y-27568559D01*
X147500296Y-57764650D02*
X147501185Y-57740315D01*
X170871548Y-83749136D02*
X170892222Y-83735551D01*
X188356787Y-43612787D02*
X188360695Y-43561459D01*
X167421771Y-65187545D02*
X167418115Y-65212011D01*
X188007794Y-102858898D02*
X188045990Y-102824389D01*
X129616402Y-45830233D02*
X129609168Y-45806576D01*
X147823624Y-53525557D02*
X147805890Y-53508869D01*
X109399337Y-46558433D02*
X109349847Y-46572594D01*
X166969777Y-64209551D02*
X166990451Y-64223136D01*
X109399337Y-27032433D02*
X109349847Y-27046594D01*
X167328131Y-64610235D02*
X167338784Y-64632562D01*
X166861722Y-64149515D02*
X166883914Y-64160445D01*
X170773560Y-46279507D02*
X170755122Y-46263014D01*
X129930400Y-44756461D02*
X129949630Y-44740900D01*
X166455735Y-66051694D02*
X166431000Y-66052000D01*
X147584474Y-53191259D02*
X147574950Y-53168847D01*
X170581900Y-64523766D02*
X170595226Y-64502925D01*
X166627618Y-64071519D02*
X166651811Y-64076683D01*
X132895000Y-28016000D02*
X135943000Y-28016000D01*
X188149428Y-63657899D02*
X188179895Y-63616408D01*
X167408993Y-84786635D02*
X167403533Y-84810763D01*
X129598968Y-103861019D02*
X129605223Y-103837287D01*
X149089737Y-92648594D02*
X149069580Y-92662935D01*
X125593541Y-26999698D02*
X125569000Y-27000000D01*
X167430315Y-45488998D02*
X167430924Y-45513728D01*
X149475316Y-77094188D02*
X149480480Y-77118381D01*
X129719900Y-85106233D02*
X129707094Y-85085068D01*
X188208222Y-44047427D02*
X188234336Y-44003066D01*
X147999944Y-56923006D02*
X148021179Y-56911087D01*
X109073591Y-85760104D02*
X109032100Y-85790571D01*
X167424820Y-45636996D02*
X167421771Y-45661545D01*
X170498007Y-103744104D02*
X170507120Y-103721316D01*
X147671136Y-33822451D02*
X147657551Y-33801777D01*
X126556115Y-84738011D02*
X126551854Y-84762380D01*
X187346000Y-103104000D02*
X187397459Y-103102695D01*
X147708478Y-57177858D02*
X147723594Y-57158766D01*
X148439062Y-53787141D02*
X148414775Y-53785361D01*
X126330644Y-46173995D02*
X126314382Y-46192637D01*
X166965997Y-26844853D02*
X166945102Y-26857728D01*
X167124901Y-65772070D02*
X167106877Y-65789014D01*
X170478402Y-64747766D02*
X170486219Y-64724296D01*
X148985593Y-73189184D02*
X148963820Y-73200929D01*
X129761405Y-64462262D02*
X129776239Y-64442466D01*
X148536615Y-56789670D02*
X148560937Y-56790858D01*
X187793440Y-44422169D02*
X187839066Y-44398336D01*
X171307622Y-46518359D02*
X171283113Y-46515004D01*
X148462998Y-73314315D02*
X148438290Y-73313094D01*
X147568062Y-92203619D02*
X147559378Y-92180456D01*
X147693832Y-53380687D02*
X147679664Y-53360882D01*
X166675869Y-46495556D02*
X166651811Y-46501316D01*
X147514956Y-38090694D02*
X147519519Y-38066381D01*
X166880611Y-26893224D02*
X166858555Y-26903989D01*
X129596466Y-84810763D02*
X129591006Y-84786635D01*
X148500000Y-92847136D02*
X148499925Y-92841074D01*
X126535478Y-64795251D02*
X126541533Y-64819236D01*
X166529792Y-85573108D02*
X166505147Y-85575247D01*
X129733226Y-44976925D02*
X129747064Y-44956419D01*
X129776239Y-44916466D02*
X129791559Y-44897042D01*
X149481083Y-57595414D02*
X149485506Y-57619360D01*
X167413854Y-45341619D02*
X167418115Y-45365988D01*
X170773560Y-44772492D02*
X170792400Y-44756461D01*
X166723520Y-83621740D02*
X166747085Y-83629269D01*
X149425049Y-57409152D02*
X149434024Y-57431789D01*
X126040396Y-103222078D02*
X126061898Y-103233913D01*
X166747085Y-64103269D02*
X166770456Y-64111378D01*
X119331400Y-102088000D02*
X116283400Y-102088000D01*
X167010782Y-44711228D02*
X167030759Y-44725819D01*
X167124901Y-85298070D02*
X167106877Y-85315014D01*
X147504891Y-91939792D02*
X147502752Y-91915147D01*
X129893122Y-83840985D02*
X129911560Y-83824492D01*
X147510995Y-91988886D02*
X147507640Y-91964377D01*
X126496417Y-64677971D02*
X126505385Y-64701026D01*
X167142500Y-46228685D02*
X167124901Y-46246070D01*
X126357346Y-26615231D02*
X126342010Y-26634393D01*
X166927453Y-65920063D02*
X166905828Y-65932078D01*
X149253507Y-37605560D02*
X149269538Y-37624400D01*
X126567094Y-65113709D02*
X126565262Y-65138379D01*
X149166637Y-92586382D02*
X149147995Y-92602644D01*
X147762985Y-92516877D02*
X147746492Y-92498439D01*
X125789811Y-46501316D02*
X125765618Y-46506480D01*
X126226439Y-44772492D02*
X126244877Y-44788985D01*
X129911560Y-64298492D02*
X129930400Y-64282461D01*
X177694000Y-43510000D02*
X177313000Y-41986000D01*
X170545070Y-84114179D02*
X170556815Y-84092406D01*
X135943000Y-43510000D02*
X135943000Y-43510000D01*
X170673791Y-26653172D02*
X170657989Y-26634393D01*
X167428290Y-104030435D02*
X167429795Y-104054932D01*
X170430925Y-45525925D02*
X170431075Y-45513728D01*
X170478402Y-45221766D02*
X170486219Y-45198296D01*
X167403533Y-84345236D02*
X167408993Y-84369364D01*
X125569000Y-66052000D02*
X109654000Y-66052000D01*
X166673980Y-103133968D02*
X166697712Y-103140223D01*
X167338784Y-64632562D02*
X167348881Y-64655145D01*
X147992931Y-37401094D02*
X148014406Y-37388815D01*
X149431937Y-96478380D02*
X149440621Y-96501543D01*
X149355517Y-33780773D02*
X149342448Y-33801777D01*
X129776239Y-85187533D02*
X129761405Y-85167737D01*
X166529017Y-103108815D02*
X166553410Y-103111520D01*
X170719499Y-65754685D02*
X170702335Y-65736870D01*
X108684594Y-27711847D02*
X108670433Y-27761337D01*
X125885085Y-66000730D02*
X125861520Y-66008259D01*
X129627455Y-103767110D02*
X129636007Y-103744104D01*
X129568925Y-45526074D02*
X129562863Y-45526000D01*
X126168759Y-64251819D02*
X126188369Y-64266900D01*
X149495259Y-52886253D02*
X149492596Y-52910459D01*
X126505385Y-65402973D02*
X126496417Y-65426028D01*
X167176382Y-46192637D02*
X167159664Y-46210870D01*
X125885085Y-44577269D02*
X125908456Y-44585378D01*
X126539031Y-103861019D02*
X126544702Y-103884898D01*
X167208440Y-85206957D02*
X167192644Y-85225995D01*
X149260829Y-57140047D02*
X149276405Y-57158766D01*
X129609168Y-84858576D02*
X129602521Y-84834748D01*
X149492359Y-33386377D02*
X149489004Y-33410886D01*
X170489455Y-103767110D02*
X170498007Y-103744104D01*
X109255316Y-110027879D02*
X109347715Y-110060940D01*
X147910262Y-96033405D02*
X147930419Y-96019064D01*
X149306167Y-57197312D02*
X149320335Y-57217117D01*
X167430924Y-45538271D02*
X167430315Y-45563001D01*
X167397478Y-45269251D02*
X167403533Y-45293236D01*
X187883427Y-63898222D02*
X187926408Y-63869895D01*
X108638000Y-109104000D02*
X108642815Y-109202017D01*
X129572737Y-64965620D02*
X129575179Y-64941003D01*
X130116085Y-65943554D02*
X130094171Y-65932078D01*
X167219346Y-103488768D02*
X167234207Y-103508300D01*
X130470207Y-85573108D02*
X130445622Y-85570359D01*
X129893122Y-44788985D02*
X129911560Y-44772492D01*
X167316929Y-64588179D02*
X167328131Y-64610235D01*
X147730461Y-37624400D02*
X147746492Y-37605560D01*
X166627618Y-66032480D02*
X166603305Y-66037043D01*
X171162222Y-66015202D02*
X171138479Y-66008259D01*
X167324224Y-103654388D02*
X167334989Y-103676444D01*
X167046231Y-26788346D02*
X167026699Y-26803207D01*
X149495108Y-38164207D02*
X149497247Y-38188852D01*
X188318940Y-20709715D02*
X188285879Y-20617316D01*
X188356787Y-102190787D02*
X188360695Y-102139459D01*
X148963820Y-92726929D02*
X148941764Y-92738131D01*
X171307622Y-64059640D02*
X171332207Y-64056891D01*
X170613415Y-26575808D02*
X170599530Y-26555570D01*
X167155247Y-26689540D02*
X167138106Y-26707106D01*
X149492359Y-72438377D02*
X149489004Y-72462886D01*
X125593541Y-103104301D02*
X125618067Y-103105204D01*
X147551269Y-76998914D02*
X147559378Y-76975543D01*
X148125971Y-92768417D02*
X148103145Y-92758881D01*
X170638239Y-46135533D02*
X170623405Y-46115737D01*
X147500305Y-38238264D02*
X147501223Y-38213543D01*
X166990451Y-46354863D02*
X166969777Y-46368448D01*
X171114914Y-66000730D02*
X171091543Y-65992621D01*
X119331400Y-63036000D02*
X116283400Y-63036000D01*
X170719499Y-64349314D02*
X170737098Y-64331929D01*
X129624219Y-84250296D02*
X129632614Y-84227026D01*
X167238594Y-83988262D02*
X167252935Y-84008419D01*
X170638239Y-44916466D02*
X170653559Y-44897042D01*
X170569094Y-85085068D02*
X170556815Y-85063593D01*
X125835712Y-103140223D02*
X125859284Y-103147059D01*
X170434737Y-65138379D02*
X170432905Y-65113709D01*
X170433709Y-104030435D02*
X170435815Y-104005982D01*
X126361760Y-46135533D02*
X126346440Y-46154957D01*
X147644482Y-96323226D02*
X147657551Y-96302222D01*
X115877000Y-49066000D02*
X116258000Y-47542000D01*
X149497247Y-38188852D02*
X149498776Y-38213543D01*
X167238594Y-44936262D02*
X167252935Y-44956419D01*
X181123000Y-61512000D02*
X180742000Y-63036000D01*
X129675775Y-103654388D02*
X129687078Y-103632603D01*
X170627792Y-103508300D02*
X170642653Y-103488768D01*
X170956171Y-85458078D02*
X170934546Y-85446063D01*
X149101535Y-53587845D02*
X149081906Y-53602256D01*
X187600662Y-44493566D02*
X187650152Y-44479405D01*
X149334017Y-53340737D02*
X149320335Y-53360882D01*
X149500000Y-27000000D02*
X149500000Y-33263000D01*
X170723893Y-103396893D02*
X170741459Y-103379752D01*
X126262901Y-85298070D02*
X126244877Y-85315014D01*
X125789811Y-64076683D02*
X125813869Y-64082443D01*
X170486219Y-45853703D02*
X170478402Y-45830233D01*
X147860285Y-57020387D02*
X147879190Y-57005038D01*
X108850571Y-46920100D02*
X108820104Y-46961591D01*
X171381543Y-46524776D02*
X171356852Y-46523247D01*
X170657989Y-103469606D02*
X170673791Y-103450827D01*
X149089737Y-76507405D02*
X149109533Y-76522239D01*
X170755122Y-46263014D02*
X170737098Y-46246070D01*
X125999722Y-85480484D02*
X125977266Y-85490862D01*
X148512271Y-92840924D02*
X148500074Y-92841074D01*
X171188019Y-103133968D02*
X171211898Y-103128297D01*
X167106877Y-64314985D02*
X167124901Y-64331929D01*
X130030222Y-83735551D02*
X130051226Y-83722482D01*
X148891170Y-53709318D02*
X148868645Y-53718570D01*
X187650152Y-64005405D02*
X187698862Y-63988756D01*
X125813869Y-64082443D02*
X125837777Y-64088797D01*
X187839066Y-63924336D02*
X187883427Y-63898222D01*
X126528831Y-65332576D02*
X126521597Y-65356233D01*
X177668600Y-86594000D02*
X180716600Y-86594000D01*
X170471168Y-64771423D02*
X170478402Y-64747766D01*
X147746492Y-33920439D02*
X147730461Y-33901599D01*
X147631936Y-92337453D02*
X147619921Y-92315828D01*
X129645120Y-26382683D02*
X129636007Y-26359895D01*
X149202685Y-37551499D02*
X149220070Y-37569098D01*
X147930419Y-34084935D02*
X147910262Y-34070594D01*
X166923898Y-26870086D02*
X166902396Y-26881921D01*
X170503582Y-84203971D02*
X170513118Y-84181145D01*
X167397478Y-45782748D02*
X167390831Y-45806576D01*
X147797314Y-37551499D02*
X147815129Y-37534335D01*
X126400469Y-26555570D02*
X126386584Y-26575808D01*
X130421113Y-44536995D02*
X130445622Y-44533640D01*
X187346000Y-66052000D02*
X171431000Y-66052000D01*
X130276479Y-46482259D02*
X130252914Y-46474730D01*
X177287600Y-49066000D02*
X177287600Y-49066000D01*
X180742000Y-63036000D02*
X180742000Y-63036000D01*
X164105000Y-63036000D02*
X161057000Y-63036000D01*
X167348881Y-84974854D02*
X167338784Y-84997437D01*
X129875098Y-85298070D02*
X129857499Y-85280685D01*
X129719900Y-46054233D02*
X129707094Y-46033068D01*
X130326019Y-103133968D02*
X130349898Y-103128297D01*
X167124901Y-64331929D02*
X167142500Y-64349314D01*
X129897441Y-103363048D02*
X129915827Y-103346791D01*
X188315405Y-102392152D02*
X188329566Y-102342662D01*
X167084172Y-26757208D02*
X167065393Y-26773010D01*
X126065453Y-65920063D02*
X126043828Y-65932078D01*
X129661215Y-65471437D02*
X129651118Y-65448854D01*
X167266773Y-46075074D02*
X167252935Y-46095580D01*
X167204010Y-103469606D02*
X167219346Y-103488768D01*
X149497247Y-91915147D02*
X149495108Y-91939792D01*
X125765618Y-64071519D02*
X125789811Y-64076683D01*
X125643147Y-66049247D02*
X125618456Y-66050776D01*
X170759441Y-103363048D02*
X170777827Y-103346791D01*
X129989217Y-64237228D02*
X130009548Y-64223136D01*
X148413620Y-92837262D02*
X148389003Y-92834820D01*
X149300180Y-33862759D02*
X149285099Y-33882369D01*
X126083102Y-103246271D02*
X126103997Y-103259146D01*
X188285879Y-20617316D02*
X188243921Y-20528603D01*
X170431684Y-84540998D02*
X170432905Y-84516290D01*
X147551269Y-33579085D02*
X147543740Y-33555520D01*
X129568925Y-84577925D02*
X129569075Y-84565728D01*
X129671868Y-45084235D02*
X129683070Y-45062179D01*
X130348188Y-83602683D02*
X130372381Y-83597519D01*
X125861520Y-64095740D02*
X125885085Y-64103269D01*
X126430905Y-65559068D02*
X126418099Y-65580233D01*
X170831240Y-83777819D02*
X170851217Y-83763228D01*
X130421113Y-64062995D02*
X130445622Y-64059640D01*
X109654000Y-85578000D02*
X109602540Y-85579304D01*
X170938101Y-103233913D02*
X170959603Y-103222078D01*
X170513118Y-84974854D02*
X170503582Y-84952028D01*
X148633630Y-53780031D02*
X148609459Y-53782991D01*
X148267236Y-95868466D02*
X148291364Y-95863006D01*
X129586145Y-65236380D02*
X129581884Y-65212011D01*
X148561709Y-76316905D02*
X148586379Y-76318737D01*
X187499850Y-103092283D02*
X187550519Y-103083202D01*
X130569000Y-85578000D02*
X130544264Y-85577694D01*
X148850973Y-92777385D02*
X148827703Y-92785780D01*
X170431684Y-65089001D02*
X170431075Y-65064271D01*
X126486881Y-84181145D02*
X126496417Y-84203971D01*
X130206380Y-85509937D02*
X130183439Y-85500682D01*
X148756748Y-34229478D02*
X148732763Y-34235533D01*
X148827703Y-92785780D02*
X148804233Y-92793597D01*
X171431000Y-44526000D02*
X187346000Y-44526000D01*
X129569075Y-65064271D02*
X129568925Y-65052074D01*
X130445622Y-85570359D02*
X130421113Y-85567004D01*
X149405459Y-57364567D02*
X149415525Y-57386740D01*
X126443184Y-45040406D02*
X126454929Y-45062179D01*
X147524683Y-92061811D02*
X147519519Y-92037618D01*
X129593297Y-103884898D02*
X129598968Y-103861019D01*
X109399337Y-85610433D02*
X109349847Y-85624594D01*
X130138277Y-83675515D02*
X130160733Y-83665137D01*
X170481471Y-26313681D02*
X170474059Y-26290284D01*
X149049074Y-76479226D02*
X149069580Y-76493064D01*
X148657722Y-56801516D02*
X148681720Y-56805649D01*
X170737098Y-85298070D02*
X170719499Y-85280685D01*
X171381543Y-85576776D02*
X171356852Y-85575247D01*
X170773560Y-83824492D02*
X170792400Y-83808461D01*
X148708635Y-95863006D02*
X148732763Y-95868466D01*
X108658797Y-86389480D02*
X108649716Y-86440149D01*
X148560937Y-53787141D02*
X148536615Y-53788329D01*
X167030759Y-46326180D02*
X167010782Y-46340771D01*
X130097603Y-103222078D02*
X130119388Y-103210775D01*
X148985593Y-34137184D02*
X148963820Y-34148929D01*
X149220070Y-37569098D02*
X149237014Y-37587122D01*
X126568315Y-45488998D02*
X126568924Y-45513728D01*
X147644482Y-76797226D02*
X147657551Y-76776222D01*
X147971766Y-95991900D02*
X147992931Y-95979094D01*
X170581900Y-44997766D02*
X170595226Y-44976925D01*
X167383597Y-84273766D02*
X167390831Y-84297423D01*
X188362000Y-28016000D02*
X187346000Y-27000000D01*
X147730461Y-33901599D02*
X147714900Y-33882369D01*
X129588214Y-26195090D02*
X129583722Y-26170961D01*
X147958377Y-53629621D02*
X147938068Y-53616184D01*
X149440621Y-96501543D02*
X149448730Y-96524914D01*
X147514956Y-96668694D02*
X147519519Y-96644381D01*
X180742000Y-82562000D02*
X177694000Y-82562000D01*
X167413854Y-64867619D02*
X167418115Y-64891988D01*
X126144808Y-103286415D02*
X126164699Y-103300792D01*
X129571709Y-104030435D02*
X129573815Y-104005982D01*
X149007068Y-73176905D02*
X148985593Y-73189184D01*
X170533868Y-45967764D02*
X170523215Y-45945437D01*
X109638000Y-20000000D02*
X109539982Y-20004815D01*
X147714900Y-92460369D02*
X147699819Y-92440759D01*
X167424820Y-84688996D02*
X167421771Y-84713545D01*
X167420176Y-103957269D02*
X167423479Y-103981589D01*
X129707094Y-84070931D02*
X129719900Y-84049766D01*
X129747064Y-84008419D02*
X129761405Y-83988262D01*
X166948773Y-83722482D02*
X166969777Y-83735551D01*
X170792400Y-65821538D02*
X170773560Y-65805507D01*
X160676000Y-100564000D02*
X164486000Y-100564000D01*
X167292905Y-84070931D02*
X167305184Y-84092406D01*
X166793619Y-65983937D02*
X166770456Y-65992621D01*
X126128451Y-85406863D02*
X126107777Y-85420448D01*
X170437179Y-45636996D02*
X170434737Y-45612379D01*
X125996555Y-26903989D02*
X125974241Y-26914209D01*
X148822952Y-56842584D02*
X148845901Y-56850729D01*
X170430925Y-65052074D02*
X170424863Y-65052000D01*
X166505147Y-64054752D02*
X166529792Y-64056891D01*
X149049074Y-96005226D02*
X149069580Y-96019064D01*
X171022733Y-46438862D02*
X171000277Y-46428484D01*
X161057000Y-63036000D02*
X160676000Y-61512000D01*
X161057000Y-67068000D02*
X164105000Y-67068000D01*
X129823617Y-65718637D02*
X129807355Y-65699995D01*
X126521597Y-45221766D02*
X126528831Y-45245423D01*
X148315619Y-34245854D02*
X148291364Y-34240993D01*
X170653559Y-83949042D02*
X170669355Y-83930004D01*
X148014406Y-37388815D02*
X148036179Y-37377070D01*
X170443884Y-65212011D02*
X170440228Y-65187545D01*
X126443184Y-85063593D02*
X126430905Y-85085068D01*
X147519519Y-33459618D02*
X147514956Y-33435305D01*
X166554377Y-66044359D02*
X166529792Y-66047108D01*
X147992931Y-34124905D02*
X147971766Y-34112099D01*
X147551269Y-92157085D02*
X147543740Y-92133520D01*
X136324000Y-81038000D02*
X135943000Y-82562000D01*
X170424863Y-65052000D02*
X170430925Y-65051925D01*
X129857499Y-65754685D02*
X129840335Y-65736870D01*
X170653559Y-44897042D02*
X170669355Y-44878004D01*
X166723520Y-85534259D02*
X166699777Y-85541202D01*
X130051226Y-65907517D02*
X130030222Y-65894448D01*
X167088439Y-85331507D02*
X167069599Y-85347538D01*
X129572737Y-45612379D02*
X129570905Y-45587709D01*
X167069599Y-44756461D02*
X167088439Y-44772492D01*
X149469556Y-33507869D02*
X149463202Y-33531777D01*
X187698862Y-103040756D02*
X187746665Y-103021661D01*
X148660011Y-92828115D02*
X148635545Y-92831771D01*
X148195766Y-73267597D02*
X148172296Y-73259780D01*
X170595226Y-84028925D02*
X170609064Y-84008419D01*
X166723520Y-44569740D02*
X166747085Y-44577269D01*
X149300180Y-96241240D02*
X149314771Y-96261217D01*
X126262901Y-83857929D02*
X126280500Y-83875314D01*
X170956171Y-64171921D02*
X170978085Y-64160445D01*
X149498776Y-38213543D02*
X149499694Y-38238264D01*
X129780653Y-26615231D02*
X129765792Y-26595699D01*
X148957301Y-53678311D02*
X148935511Y-53689182D01*
X166529792Y-44530891D02*
X166554377Y-44533640D01*
X126466131Y-64610235D02*
X126476784Y-64632562D01*
X147890466Y-73107760D02*
X147871042Y-73092440D01*
X148537001Y-76315684D02*
X148561709Y-76316905D01*
X130054897Y-26857728D02*
X130034002Y-26844853D01*
X167431074Y-25000074D02*
X167431000Y-25006136D01*
X167234207Y-103508300D02*
X167248584Y-103528191D01*
X126207599Y-64282461D02*
X126226439Y-64298492D01*
X147762985Y-72990877D02*
X147746492Y-72972439D01*
X126128451Y-83749136D02*
X126148782Y-83763228D01*
X170609064Y-85147580D02*
X170595226Y-85127074D01*
X147574950Y-57409152D02*
X147584474Y-57386740D01*
X167252935Y-65621580D02*
X167238594Y-65641737D01*
X167305184Y-85063593D02*
X167292905Y-85085068D01*
X167223760Y-85187533D02*
X167208440Y-85206957D01*
X119712400Y-41986000D02*
X119712400Y-41986000D01*
X188357184Y-109202017D02*
X188362000Y-109104000D01*
X129572737Y-65138379D02*
X129570905Y-65113709D01*
X116258000Y-86594000D02*
X119306000Y-86594000D01*
X129953768Y-26788346D02*
X129934606Y-26773010D01*
X149422682Y-76929439D02*
X149431937Y-76952380D01*
X126568924Y-65039728D02*
X126569074Y-65051925D01*
X171431000Y-83578000D02*
X187346000Y-83578000D01*
X126430905Y-64544931D02*
X126443184Y-64566406D01*
X126568924Y-45513728D02*
X126569074Y-45525925D01*
X167413854Y-45710380D02*
X167408993Y-45734635D01*
X167280099Y-84049766D02*
X167292905Y-84070931D01*
X148684380Y-34245854D02*
X148660011Y-34250115D01*
X126466131Y-85019764D02*
X126454929Y-85041820D01*
X129562863Y-25000000D02*
X167437136Y-25000000D01*
X130519932Y-103105204D02*
X130544458Y-103104301D01*
X170453006Y-45734635D02*
X170448145Y-45710380D01*
X126472989Y-26427555D02*
X126462224Y-26449611D01*
X129605223Y-103837287D02*
X129612059Y-103813715D01*
X170440228Y-84442454D02*
X170443884Y-84417988D01*
X129569301Y-104079458D02*
X129570204Y-104054932D01*
X129897441Y-26740951D02*
X129879459Y-26724247D01*
X129570905Y-84516290D02*
X129572737Y-84491620D01*
X130372381Y-44545519D02*
X130396694Y-44540956D01*
X125691410Y-26992479D02*
X125667017Y-26995184D01*
X171381543Y-44527223D02*
X171406264Y-44526305D01*
X132514000Y-81038000D02*
X136324000Y-81038000D01*
X148315619Y-95858145D02*
X148339988Y-95853884D01*
X170441823Y-26146730D02*
X170438520Y-26122410D01*
X170486219Y-84250296D02*
X170494614Y-84227026D01*
X149184870Y-76586335D02*
X149202685Y-76603499D01*
X116258000Y-67068000D02*
X119306000Y-67068000D01*
X170431075Y-45538271D02*
X170430925Y-45526074D01*
X167408993Y-84369364D02*
X167413854Y-84393619D01*
X149475316Y-92061811D02*
X149469556Y-92085869D01*
X147992931Y-92702905D02*
X147971766Y-92690099D01*
X167292905Y-45018931D02*
X167305184Y-45040406D01*
X147502667Y-57716009D02*
X147504740Y-57691746D01*
X170653559Y-46154957D02*
X170638239Y-46135533D01*
X147597515Y-96410277D02*
X147608445Y-96388085D01*
X167354879Y-103721316D02*
X167363992Y-103744104D01*
X130544458Y-103104301D02*
X130569000Y-103104000D01*
X148681720Y-53772350D02*
X148657722Y-53776483D01*
X126551854Y-84762380D02*
X126546993Y-84786635D01*
X170741459Y-26724247D02*
X170723893Y-26707106D01*
X167292905Y-64544931D02*
X167305184Y-64566406D01*
X148913463Y-56878479D02*
X148935511Y-56888817D01*
X108820104Y-66487591D02*
X108791777Y-66530572D01*
X149202685Y-73026500D02*
X149184870Y-73043664D01*
X125789811Y-44550683D02*
X125813869Y-44556443D01*
X149500000Y-46526000D02*
X149500000Y-52789000D01*
X126244877Y-46263014D02*
X126226439Y-46279507D01*
X149244801Y-53456285D02*
X149228333Y-53474223D01*
X126443184Y-46011593D02*
X126430905Y-46033068D01*
X188298756Y-63388862D02*
X188315405Y-63340152D01*
X148413620Y-34259262D02*
X148389003Y-34256820D01*
X126466131Y-45084235D02*
X126476784Y-45106562D01*
X125691410Y-103111520D02*
X125715730Y-103114823D01*
X170549078Y-103632603D02*
X170560913Y-103611101D01*
X187996393Y-109877010D02*
X188069106Y-109811106D01*
X148941764Y-76417868D02*
X148963820Y-76429070D01*
X149422682Y-96455439D02*
X149431937Y-96478380D01*
X129930400Y-83808461D02*
X129949630Y-83792900D01*
X167192644Y-64404004D02*
X167208440Y-64423042D01*
X130009548Y-83749136D02*
X130030222Y-83735551D01*
X170737098Y-64331929D02*
X170755122Y-64314985D01*
X130094171Y-46406078D02*
X130072546Y-46394063D01*
X119687000Y-49066000D02*
X119687000Y-49066000D01*
X129719900Y-84049766D02*
X129733226Y-84028925D01*
X108638000Y-47542000D02*
X108638000Y-63036000D01*
X125741305Y-66037043D02*
X125716886Y-66041004D01*
X180742000Y-82562000D02*
X180742000Y-82562000D01*
X188149428Y-83183899D02*
X188179895Y-83142408D01*
X148125971Y-73242417D02*
X148103145Y-73232881D01*
X108638000Y-21000000D02*
X108638000Y-25000000D01*
X171045439Y-83655317D02*
X171068380Y-83646062D01*
X126569074Y-84578074D02*
X126568924Y-84590271D01*
X126546993Y-64843364D02*
X126551854Y-64867619D01*
X167358417Y-84203971D02*
X167367385Y-84227026D01*
X147519519Y-77118381D02*
X147524683Y-77094188D01*
X171091543Y-83637378D02*
X171114914Y-83629269D01*
X170934546Y-65920063D02*
X170913226Y-65907517D01*
X167155247Y-103414459D02*
X167171951Y-103432441D01*
X149147995Y-34024644D02*
X149128957Y-34040440D01*
X147507640Y-77191622D02*
X147510995Y-77167113D01*
X167375780Y-84250296D02*
X167383597Y-84273766D01*
X170569094Y-64544931D02*
X170581900Y-64523766D01*
X167069599Y-65821538D02*
X167050369Y-65837099D01*
X149328863Y-96281548D02*
X149342448Y-96302222D01*
X188329566Y-63290662D02*
X188341202Y-63240519D01*
X148512271Y-53788924D02*
X148500074Y-53789074D01*
X147542394Y-57500917D02*
X147549692Y-57477686D01*
X126521597Y-45830233D02*
X126513780Y-45853703D01*
X147693832Y-57197312D02*
X147708478Y-57177858D01*
X147568062Y-33625619D02*
X147559378Y-33602456D01*
X149328863Y-92400451D02*
X149314771Y-92420782D01*
X188298756Y-102440862D02*
X188315405Y-102392152D01*
X126559771Y-64916454D02*
X126562820Y-64941003D01*
X126575136Y-45526000D02*
X126569074Y-45526074D01*
X160676000Y-61512000D02*
X160676000Y-61512000D01*
X167192644Y-44878004D02*
X167208440Y-44897042D01*
X166431000Y-103104000D02*
X166455541Y-103104301D01*
X180742000Y-63036000D02*
X177694000Y-63036000D01*
X129609168Y-84297423D02*
X129616402Y-84273766D01*
X148462998Y-34262315D02*
X148438290Y-34261094D01*
X161057000Y-67068000D02*
X161057000Y-67068000D01*
X129761405Y-65641737D02*
X129747064Y-65621580D01*
X149328863Y-37703548D02*
X149342448Y-37724222D01*
X147631936Y-96344546D02*
X147644482Y-96323226D01*
X148438290Y-73313094D02*
X148413620Y-73311262D01*
X167431000Y-26000000D02*
X167430698Y-26024541D01*
X149500000Y-44526000D02*
X166431000Y-44526000D01*
X129569000Y-104104000D02*
X129569301Y-104079458D01*
X149448730Y-76998914D02*
X149456259Y-77022479D01*
X147500305Y-91865735D02*
X147500000Y-91841000D01*
X149463202Y-72583777D02*
X149456259Y-72607520D01*
X130494852Y-83580752D02*
X130519543Y-83579223D01*
X119331400Y-82562000D02*
X116283400Y-82562000D01*
X188258169Y-63483440D02*
X188279661Y-63436665D01*
X187839066Y-102976336D02*
X187883427Y-102950222D01*
X148919437Y-73222784D02*
X148896854Y-73232881D01*
X170424863Y-45526000D02*
X170430925Y-45525925D01*
X149380078Y-96366171D02*
X149391554Y-96388085D01*
X167428290Y-26073564D02*
X167426184Y-26098017D01*
X130372381Y-64071519D02*
X130396694Y-64066956D01*
X187744683Y-20076120D02*
X187652284Y-20043059D01*
X149498776Y-33312456D02*
X149497247Y-33337147D01*
X170478402Y-84273766D02*
X170486219Y-84250296D01*
X125618456Y-83579223D02*
X125643147Y-83580752D01*
X149431937Y-33625619D02*
X149422682Y-33648560D01*
X170792400Y-64282461D02*
X170811630Y-64266900D01*
X149456259Y-96548479D02*
X149463202Y-96572222D01*
X125618067Y-103105204D02*
X125642564Y-103106709D01*
X147518916Y-52982585D02*
X147514493Y-52958639D01*
X148500000Y-37256863D02*
X148500074Y-37262925D01*
X125861520Y-44569740D02*
X125885085Y-44577269D01*
X147852004Y-76553355D02*
X147871042Y-76537559D01*
X125643147Y-44528752D02*
X125667792Y-44530891D01*
X167348881Y-45922854D02*
X167338784Y-45945437D01*
X167429094Y-84639709D02*
X167427262Y-84664379D01*
X171356852Y-66049247D02*
X171332207Y-66047108D01*
X148103145Y-92758881D02*
X148080562Y-92748784D01*
X167345209Y-103698758D02*
X167354879Y-103721316D01*
X147679664Y-53360882D02*
X147665982Y-53340737D01*
X126404773Y-85127074D02*
X126390935Y-85147580D01*
X147500296Y-52813349D02*
X147500000Y-52789000D01*
X115902400Y-100564000D02*
X119712400Y-100564000D01*
X167084172Y-103346791D02*
X167102558Y-103363048D01*
X126518528Y-103790318D02*
X126525940Y-103813715D01*
X129795989Y-103469606D02*
X129811791Y-103450827D01*
X188360695Y-63087459D02*
X188362000Y-63036000D01*
X167312921Y-26471396D02*
X167301086Y-26492898D01*
X108657214Y-109299090D02*
X108681059Y-109394284D01*
X171357435Y-26997290D02*
X171332982Y-26995184D01*
X147507403Y-52910459D02*
X147504740Y-52886253D01*
X130183439Y-46448682D02*
X130160733Y-46438862D01*
X148364454Y-34253771D02*
X148339988Y-34250115D01*
X167403533Y-65284763D02*
X167397478Y-65308748D01*
X148729378Y-53762337D02*
X148705610Y-53767633D01*
X166699777Y-44562797D02*
X166723520Y-44569740D01*
X147671136Y-96281548D02*
X147685228Y-96261217D01*
X147543740Y-72607520D02*
X147536797Y-72583777D01*
X129578228Y-84713545D02*
X129575179Y-84688996D01*
X171381932Y-103105204D02*
X171406458Y-103104301D01*
X130445622Y-44533640D02*
X130470207Y-44530891D01*
X129949630Y-64266900D02*
X129969240Y-64251819D01*
X129893122Y-85315014D02*
X129875098Y-85298070D01*
X119712400Y-61512000D02*
X119331400Y-63036000D01*
X149372064Y-53278390D02*
X149359889Y-53299479D01*
X166505147Y-66049247D02*
X166480456Y-66050776D01*
X170623405Y-85167737D02*
X170609064Y-85147580D01*
X170690048Y-103432441D02*
X170706752Y-103414459D01*
X167429795Y-26049067D02*
X167428290Y-26073564D01*
X166816560Y-83655317D02*
X166839266Y-83665137D01*
X129828048Y-103432441D02*
X129844752Y-103414459D01*
X170773560Y-65805507D02*
X170755122Y-65789014D01*
X147699819Y-96241240D02*
X147714900Y-96221630D01*
X167424820Y-45415003D02*
X167427262Y-45439620D01*
X126103997Y-26844853D02*
X126083102Y-26857728D01*
X149269538Y-72953599D02*
X149253507Y-72972439D01*
X109551212Y-27005212D02*
X109500149Y-27011716D01*
X147910262Y-37455405D02*
X147930419Y-37441064D01*
X149440621Y-76975543D02*
X149448730Y-76998914D01*
X167238594Y-64462262D02*
X167252935Y-64482419D01*
X126018611Y-26893224D02*
X125996555Y-26903989D01*
X126565262Y-84491620D02*
X126567094Y-84516290D01*
X147644482Y-72832773D02*
X147631936Y-72811453D01*
X170494614Y-64701026D02*
X170503582Y-64677971D01*
X170513118Y-64655145D02*
X170523215Y-64632562D01*
X148850973Y-76378614D02*
X148874028Y-76387582D01*
X148780576Y-76355168D02*
X148804233Y-76362402D01*
X170494614Y-45876973D02*
X170486219Y-45853703D01*
X147685228Y-72894782D02*
X147671136Y-72874451D01*
X149184870Y-33991664D02*
X149166637Y-34008382D01*
X148172296Y-37318219D02*
X148195766Y-37310402D01*
X149475316Y-33483811D02*
X149469556Y-33507869D01*
X147971766Y-92690099D02*
X147950925Y-92676773D01*
X167234207Y-26595699D02*
X167219346Y-26615231D01*
X108954009Y-27279610D02*
X108917610Y-27316009D01*
X125908456Y-46466621D02*
X125885085Y-46474730D01*
X125716886Y-66041004D02*
X125692377Y-66044359D01*
X126569000Y-105097863D02*
X126569074Y-105103925D01*
X149128957Y-34040440D02*
X149109533Y-34055760D01*
X129568925Y-25000074D02*
X129562863Y-25000000D01*
X148660011Y-34250115D02*
X148635545Y-34253771D01*
X125837777Y-83614797D02*
X125861520Y-83621740D01*
X130348188Y-66027316D02*
X130324130Y-66021556D01*
X147523921Y-57571582D02*
X147529504Y-57547880D01*
X129586145Y-45710380D02*
X129581884Y-45686011D01*
X149495108Y-77216207D02*
X149497247Y-77240852D01*
X147852004Y-92602644D02*
X147833362Y-92586382D01*
X147594540Y-57364567D02*
X147605143Y-57342645D01*
X109160933Y-46653663D02*
X109116572Y-46679777D01*
X167328131Y-85019764D02*
X167316929Y-85041820D01*
X109349847Y-46572594D02*
X109301137Y-46589243D01*
X149237014Y-37587122D02*
X149253507Y-37605560D01*
X170440228Y-64916454D02*
X170443884Y-64891988D01*
X109253334Y-66134338D02*
X109206559Y-66155830D01*
X170432905Y-65113709D02*
X170431684Y-65089001D01*
X130445622Y-66044359D02*
X130421113Y-66041004D01*
X130373909Y-103123214D02*
X130398038Y-103118722D01*
X167390831Y-65332576D02*
X167383597Y-65356233D01*
X108850571Y-27394100D02*
X108820104Y-27435591D01*
X187883427Y-44372222D02*
X187926408Y-44343895D01*
X149485043Y-92013305D02*
X149480480Y-92037618D01*
X171406458Y-26999698D02*
X171381932Y-26998795D01*
X170486219Y-84905703D02*
X170478402Y-84882233D01*
X149020993Y-56935439D02*
X149041622Y-56948378D01*
X126466131Y-65493764D02*
X126454929Y-65515820D01*
X148036179Y-73200929D02*
X148014406Y-73189184D01*
X149081906Y-56975743D02*
X149101535Y-56990154D01*
X148753011Y-56821536D02*
X148776493Y-56827984D01*
X148462998Y-76315684D02*
X148487728Y-76315075D01*
X109116572Y-66205777D02*
X109073591Y-66234104D01*
X170871548Y-65880863D02*
X170851217Y-65866771D01*
X126567094Y-84516290D02*
X126568315Y-84540998D01*
X130544458Y-26999698D02*
X130519932Y-26998795D01*
X125951683Y-26923879D02*
X125928895Y-26932992D01*
X125835712Y-26963776D02*
X125811980Y-26970031D01*
X148499925Y-56788925D02*
X148500000Y-56782863D01*
X129573815Y-104005982D02*
X129576520Y-103981589D01*
X166554377Y-85570359D02*
X166529792Y-85573108D01*
X148804233Y-92793597D02*
X148780576Y-92800831D01*
X187550519Y-64031202D02*
X187600662Y-64019566D01*
X129776239Y-83968466D02*
X129791559Y-83949042D01*
X149069580Y-37441064D02*
X149089737Y-37455405D01*
X148291364Y-76337006D02*
X148315619Y-76332145D01*
X148125971Y-76387582D02*
X148149026Y-76378614D01*
X147671136Y-72874451D02*
X147657551Y-72853777D01*
X147504740Y-57691746D02*
X147507403Y-57667540D01*
X166816560Y-64129317D02*
X166839266Y-64139137D01*
X125692377Y-64059640D02*
X125716886Y-64062995D01*
X130300222Y-44562797D02*
X130324130Y-44556443D01*
X126188369Y-65837099D02*
X126168759Y-65852180D01*
X126404773Y-44976925D02*
X126418099Y-44997766D01*
X149499694Y-77290264D02*
X149500000Y-77315000D01*
X126262901Y-64331929D02*
X126280500Y-64349314D01*
X148125971Y-37335582D02*
X148149026Y-37326614D01*
X108701243Y-66715137D02*
X108684594Y-66763847D01*
X149499703Y-52813349D02*
X149498814Y-52837684D01*
X148780576Y-37303168D02*
X148804233Y-37310402D01*
X166990451Y-64223136D02*
X167010782Y-64237228D01*
X167394776Y-26266712D02*
X167387940Y-26290284D01*
X147815129Y-76586335D02*
X147833362Y-76569617D01*
X148438290Y-37264905D02*
X148462998Y-37263684D01*
X126226439Y-65805507D02*
X126207599Y-65821538D01*
X125931619Y-64120062D02*
X125954560Y-64129317D01*
X149184870Y-37534335D02*
X149202685Y-37551499D01*
X148080562Y-95933215D02*
X148103145Y-95923118D01*
X130030222Y-85420448D02*
X130009548Y-85406863D01*
X129724146Y-26534997D02*
X129711271Y-26514102D01*
X129840335Y-64367129D02*
X129857499Y-64349314D01*
X188045990Y-44246389D02*
X188082389Y-44209990D01*
X147930419Y-76493064D02*
X147950925Y-76479226D01*
X129915827Y-103346791D02*
X129934606Y-103330989D01*
X108954009Y-85857610D02*
X108917610Y-85894009D01*
X148756748Y-73281478D02*
X148732763Y-73287533D01*
X148219423Y-92800831D02*
X148195766Y-92793597D01*
X148756748Y-76348521D02*
X148780576Y-76355168D01*
X167424820Y-84467003D02*
X167427262Y-84491620D01*
X147500305Y-77290264D02*
X147501223Y-77265543D01*
X147714900Y-37643630D02*
X147730461Y-37624400D01*
X147992931Y-76453094D02*
X148014406Y-76440815D01*
X125618456Y-85576776D02*
X125593735Y-85577694D01*
X167383597Y-45221766D02*
X167390831Y-45245423D01*
X171045439Y-64129317D02*
X171068380Y-64120062D01*
X147671136Y-76755548D02*
X147685228Y-76735217D01*
X149422682Y-92226560D02*
X149412862Y-92249266D01*
X126346440Y-64423042D02*
X126361760Y-64442466D01*
X167142500Y-44823314D02*
X167159664Y-44841129D01*
X108917610Y-46842009D02*
X108883101Y-46880205D01*
X149028233Y-34112099D02*
X149007068Y-34124905D01*
X170685617Y-83911362D02*
X170702335Y-83893129D01*
X166927453Y-64183936D02*
X166948773Y-64196482D01*
X147504891Y-33361792D02*
X147502752Y-33337147D01*
X167159664Y-85262870D02*
X167142500Y-85280685D01*
X148896854Y-95923118D02*
X148919437Y-95933215D01*
X167431000Y-25006136D02*
X167431000Y-26000000D01*
X181097600Y-68592000D02*
X177287600Y-68592000D01*
X108649716Y-66914149D02*
X108643212Y-66965212D01*
X147514493Y-57619360D02*
X147518916Y-57595414D01*
X171091543Y-85518621D02*
X171068380Y-85509937D01*
X167437136Y-45526000D02*
X167431074Y-45526074D01*
X166905828Y-44645921D02*
X166927453Y-44657936D01*
X148804233Y-37310402D02*
X148827703Y-37318219D01*
X147730461Y-92479599D02*
X147714900Y-92460369D01*
X170489455Y-26336889D02*
X170481471Y-26313681D01*
X149028233Y-95991900D02*
X149049074Y-96005226D01*
X130232110Y-26941544D02*
X130209104Y-26932992D01*
X167069599Y-46295538D02*
X167050369Y-46311099D01*
X170831240Y-46326180D02*
X170811630Y-46311099D01*
X148499925Y-92841074D02*
X148487728Y-92840924D01*
X119306000Y-86594000D02*
X119687000Y-88118000D01*
X170430925Y-84577925D02*
X170431075Y-84565728D01*
X170448145Y-45341619D02*
X170453006Y-45317364D01*
X109253334Y-85660338D02*
X109206559Y-85681830D01*
X126376594Y-64462262D02*
X126390935Y-64482419D01*
X108639304Y-86542540D02*
X108638000Y-86594000D01*
X161057000Y-86594000D02*
X164105000Y-86594000D01*
X166554377Y-46518359D02*
X166529792Y-46521108D01*
X148487728Y-95841075D02*
X148499925Y-95840925D01*
X126390935Y-46095580D02*
X126376594Y-46115737D01*
X167403533Y-45293236D02*
X167408993Y-45317364D01*
X166431000Y-85578000D02*
X149500000Y-85578000D01*
X130206380Y-65983937D02*
X130183439Y-65974682D01*
X126559771Y-65187545D02*
X126556115Y-65212011D01*
X125764090Y-26980785D02*
X125739961Y-26985277D01*
X125642564Y-103106709D02*
X125667017Y-103108815D01*
X171357435Y-103106709D02*
X171381932Y-103105204D01*
X166431000Y-66052000D02*
X149500000Y-66052000D01*
X170464521Y-84834748D02*
X170458466Y-84810763D01*
X187448787Y-64046787D02*
X187499850Y-64040283D01*
X147587137Y-76906733D02*
X147597515Y-76884277D01*
X149489004Y-91988886D02*
X149485043Y-92013305D01*
X167124901Y-44805929D02*
X167142500Y-44823314D01*
X170653559Y-64423042D02*
X170669355Y-64404004D01*
X125999722Y-65954484D02*
X125977266Y-65964862D01*
X147815129Y-92569664D02*
X147797314Y-92552500D01*
X148438290Y-34261094D02*
X148413620Y-34259262D01*
X126330644Y-83930004D02*
X126346440Y-83949042D01*
X119331400Y-43510000D02*
X116283400Y-43510000D01*
X129575179Y-84467003D02*
X129578228Y-84442454D01*
X126361760Y-85187533D02*
X126346440Y-85206957D01*
X125716886Y-46515004D02*
X125692377Y-46518359D01*
X167280099Y-46054233D02*
X167266773Y-46075074D01*
X171431000Y-64052000D02*
X187346000Y-64052000D01*
X164486000Y-61512000D02*
X164105000Y-63036000D01*
X147805890Y-53508869D02*
X147788567Y-53491754D01*
X108820104Y-86013591D02*
X108791777Y-86056572D01*
X109500149Y-46537716D02*
X109449480Y-46546797D01*
X167159664Y-46210870D02*
X167142500Y-46228685D01*
X147501223Y-38213543D02*
X147502752Y-38188852D01*
X166793619Y-85509937D02*
X166770456Y-85518621D01*
X125593735Y-83578305D02*
X125618456Y-83579223D01*
X170434737Y-64965620D02*
X170437179Y-64941003D01*
X149368063Y-92337453D02*
X149355517Y-92358773D01*
X164486000Y-100564000D02*
X164105000Y-102088000D01*
X148705610Y-53767633D02*
X148681720Y-53772350D01*
X149498776Y-91890456D02*
X149497247Y-91915147D01*
X149334017Y-57237262D02*
X149347204Y-57257733D01*
X167427262Y-45439620D02*
X167429094Y-45464290D01*
X126342010Y-103469606D02*
X126357346Y-103488768D01*
X167358417Y-84952028D02*
X167348881Y-84974854D01*
X130278715Y-103147059D02*
X130302287Y-103140223D01*
X147587137Y-37854733D02*
X147597515Y-37832277D01*
X171431000Y-85578000D02*
X171406264Y-85577694D01*
X147557554Y-57454638D02*
X147565975Y-57431789D01*
X149269538Y-33901599D02*
X149253507Y-33920439D01*
X148246988Y-53756463D02*
X148223506Y-53750015D01*
X129591006Y-65260635D02*
X129586145Y-65236380D01*
X167138106Y-26707106D02*
X167120540Y-26724247D01*
X126549785Y-26195090D02*
X126544702Y-26219101D01*
X126454929Y-45989820D02*
X126443184Y-46011593D01*
X170464521Y-45269251D02*
X170471168Y-45245423D01*
X115877000Y-68592000D02*
X115877000Y-68592000D01*
X148219423Y-34222831D02*
X148195766Y-34215597D01*
X129591006Y-64843364D02*
X129596466Y-64819236D01*
X108992205Y-66297101D02*
X108954009Y-66331610D01*
X171431000Y-66052000D02*
X171406264Y-66051694D01*
X108864989Y-20365606D02*
X108806530Y-20444429D01*
X126575136Y-84578000D02*
X126569074Y-84578074D01*
X126390935Y-44956419D02*
X126404773Y-44976925D01*
X188258169Y-102535440D02*
X188279661Y-102488665D01*
X126043828Y-85458078D02*
X126021914Y-85469554D01*
X149202685Y-92552500D02*
X149184870Y-92569664D01*
X126505385Y-45876973D02*
X126496417Y-45900028D01*
X171307622Y-44533640D02*
X171332207Y-44530891D01*
X149147995Y-76553355D02*
X149166637Y-76569617D01*
X166431000Y-83578000D02*
X166455735Y-83578305D01*
X166839266Y-44613137D02*
X166861722Y-44623515D01*
X149440621Y-37923543D02*
X149448730Y-37946914D01*
X109166603Y-109985921D02*
X109255316Y-110027879D01*
X126418099Y-44997766D02*
X126430905Y-45018931D01*
X171000277Y-64149515D02*
X171022733Y-64139137D01*
X170556815Y-65537593D02*
X170545070Y-65515820D01*
X129651118Y-84181145D02*
X129661215Y-84158562D01*
X108642815Y-20901982D02*
X108638000Y-21000000D01*
X187346000Y-85578000D02*
X171431000Y-85578000D01*
X126568924Y-65064271D02*
X126568315Y-65089001D01*
X126439086Y-26492898D02*
X126426728Y-26514102D01*
X129811791Y-26653172D02*
X129795989Y-26634393D01*
X167088439Y-64298492D02*
X167106877Y-64314985D01*
X148064488Y-53689182D02*
X148042698Y-53678311D01*
X166770456Y-64111378D02*
X166793619Y-64120062D01*
X126565262Y-84664379D02*
X126562820Y-84688996D01*
X167088439Y-46279507D02*
X167069599Y-46295538D01*
X129641582Y-64677971D02*
X129651118Y-64655145D01*
X149405459Y-53213432D02*
X149394856Y-53235354D01*
X129840335Y-85262870D02*
X129823617Y-85244637D01*
X170437179Y-65162996D02*
X170434737Y-65138379D01*
X147619921Y-96366171D02*
X147631936Y-96344546D01*
X126262901Y-46246070D02*
X126244877Y-46263014D01*
X149237014Y-33938877D02*
X149220070Y-33956901D01*
X181097600Y-88118000D02*
X177287600Y-88118000D01*
X147500000Y-91841000D02*
X147500000Y-85578000D01*
X167408993Y-64843364D02*
X167413854Y-64867619D01*
X167159664Y-65736870D02*
X167142500Y-65754685D01*
X170831240Y-85378180D02*
X170811630Y-85363099D01*
X125954560Y-83655317D02*
X125977266Y-83665137D01*
X187652284Y-110060940D02*
X187744683Y-110027879D01*
X167397478Y-84834748D02*
X167390831Y-84858576D01*
X167418115Y-45365988D02*
X167421771Y-45390454D01*
X149081906Y-53602256D02*
X149061931Y-53616184D01*
X126314382Y-83911362D02*
X126330644Y-83930004D01*
X126430905Y-46033068D02*
X126418099Y-46054233D01*
X188341202Y-82766519D02*
X188350283Y-82715850D01*
X166793619Y-46457937D02*
X166770456Y-46466621D01*
X166816560Y-85500682D02*
X166793619Y-85509937D01*
X126558176Y-103957269D02*
X126561479Y-103981589D01*
X126528831Y-45806576D02*
X126521597Y-45830233D01*
X149448730Y-72631085D02*
X149440621Y-72654456D01*
X129651118Y-65448854D02*
X129641582Y-65426028D01*
X132514000Y-68592000D02*
X132895000Y-67068000D01*
X130138277Y-64149515D02*
X130160733Y-64139137D01*
X125741305Y-83592956D02*
X125765618Y-83597519D01*
X109347715Y-110060940D02*
X109442909Y-110084785D01*
X187460017Y-110099184D02*
X187557090Y-110084785D01*
X166554377Y-83585640D02*
X166578886Y-83588995D01*
X148219423Y-95881168D02*
X148243251Y-95874521D01*
X129661215Y-45945437D02*
X129651118Y-45922854D01*
X108765663Y-66574933D02*
X108741830Y-66620559D01*
X167406702Y-26219101D02*
X167401031Y-26242980D01*
X126404773Y-64502925D02*
X126418099Y-64523766D01*
X170516790Y-26405241D02*
X170507120Y-26382683D01*
X166699777Y-85541202D02*
X166675869Y-85547556D01*
X126521597Y-84273766D02*
X126528831Y-84297423D01*
X130276479Y-64095740D02*
X130300222Y-64088797D01*
X147551269Y-96524914D02*
X147559378Y-96501543D01*
X147679664Y-57217117D02*
X147693832Y-57197312D01*
X126486881Y-45922854D02*
X126476784Y-45945437D01*
X129583722Y-103933038D02*
X129588214Y-103908909D01*
X126535478Y-65308748D02*
X126528831Y-65332576D01*
X167431074Y-45526074D02*
X167430924Y-45538271D01*
X177313000Y-81038000D02*
X181123000Y-81038000D01*
X149456259Y-92133520D02*
X149448730Y-92157085D01*
X149306167Y-53380687D02*
X149291521Y-53400141D01*
X119687000Y-68592000D02*
X115877000Y-68592000D01*
X148708635Y-92818993D02*
X148684380Y-92823854D01*
X129569075Y-45538271D02*
X129568925Y-45526074D01*
X170549078Y-26471396D02*
X170537775Y-26449611D01*
X148874028Y-37335582D02*
X148896854Y-37345118D01*
X147910262Y-73122594D02*
X147890466Y-73107760D01*
X170533868Y-45084235D02*
X170545070Y-45062179D01*
X148389003Y-95847179D02*
X148413620Y-95844737D01*
X187744683Y-110027879D02*
X187833396Y-109985921D01*
X126569074Y-25000074D02*
X126569000Y-25006136D01*
X149184870Y-73043664D02*
X149166637Y-73060382D01*
X147500000Y-85578000D02*
X130569000Y-85578000D01*
X149380078Y-72789828D02*
X149368063Y-72811453D01*
X129616402Y-65356233D02*
X129609168Y-65332576D01*
X147657551Y-37724222D02*
X147671136Y-37703548D01*
X130186316Y-103180120D02*
X130209104Y-103171007D01*
X170430925Y-84578074D02*
X170424863Y-84578000D01*
X148896854Y-92758881D02*
X148874028Y-92768417D01*
X147502667Y-52861990D02*
X147501185Y-52837684D01*
X188179895Y-63616408D02*
X188208222Y-63573427D01*
X148537001Y-73314315D02*
X148512271Y-73314924D01*
X130094171Y-44645921D02*
X130116085Y-44634445D01*
X126569074Y-105103925D02*
X126575136Y-105104000D01*
X149285099Y-76695630D02*
X149300180Y-76715240D01*
X166969777Y-44683551D02*
X166990451Y-44697136D01*
X147797314Y-73026500D02*
X147779929Y-73008901D01*
X167010782Y-46340771D02*
X166990451Y-46354863D01*
X126188369Y-44740900D02*
X126207599Y-44756461D01*
X149415525Y-53191259D02*
X149405459Y-53213432D01*
X148978820Y-53666912D02*
X148957301Y-53678311D01*
X129572737Y-84664379D02*
X129570905Y-84639709D01*
X126226439Y-46279507D02*
X126207599Y-46295538D01*
X129624219Y-45853703D02*
X129616402Y-45830233D01*
X166793619Y-83646062D02*
X166816560Y-83655317D01*
X126207599Y-65821538D02*
X126188369Y-65837099D01*
X171283113Y-44536995D02*
X171307622Y-44533640D01*
X167348881Y-65448854D02*
X167338784Y-65471437D01*
X148342277Y-56801516D02*
X148366369Y-56797968D01*
X148827703Y-73259780D02*
X148804233Y-73267597D01*
X129840335Y-83893129D02*
X129857499Y-83875314D01*
X147771666Y-53474223D02*
X147755198Y-53456285D01*
X126168759Y-83777819D02*
X126188369Y-83792900D01*
X148364454Y-37272228D02*
X148389003Y-37269179D01*
X125593735Y-46525694D02*
X125569000Y-46526000D01*
X125788101Y-26975702D02*
X125764090Y-26980785D01*
X125643147Y-64054752D02*
X125667792Y-64056891D01*
X149402484Y-33693722D02*
X149391554Y-33715914D01*
X126413853Y-103569002D02*
X126426728Y-103589897D01*
X125974241Y-26914209D02*
X125951683Y-26923879D01*
X171234381Y-66032480D02*
X171210188Y-66027316D01*
X129857499Y-44823314D02*
X129875098Y-44805929D01*
X108649716Y-47388149D02*
X108643212Y-47439212D01*
X149497332Y-57716009D02*
X149498814Y-57740315D01*
X109442909Y-20019214D02*
X109347715Y-20043059D01*
X126293247Y-26689540D02*
X126276106Y-26707106D01*
X171210188Y-64076683D02*
X171234381Y-64071519D01*
X149049074Y-37427226D02*
X149069580Y-37441064D01*
X171003444Y-26903989D02*
X170981388Y-26893224D01*
X147762985Y-37587122D02*
X147779929Y-37569098D01*
X188318940Y-109394284D02*
X188342785Y-109299090D01*
X129661215Y-45106562D02*
X129671868Y-45084235D01*
X129568925Y-105103925D02*
X129569000Y-105097863D01*
X126476784Y-84158562D02*
X126486881Y-84181145D01*
X148080562Y-34170784D02*
X148058235Y-34160131D01*
X148172296Y-34207780D02*
X148149026Y-34199385D01*
X108638000Y-105104000D02*
X108638000Y-109104000D01*
X148561709Y-73313094D02*
X148537001Y-73314315D01*
X171000277Y-65954484D02*
X170978085Y-65943554D01*
X126418099Y-84049766D02*
X126430905Y-84070931D01*
X129581884Y-45686011D02*
X129578228Y-45661545D01*
X166651811Y-44550683D02*
X166675869Y-44556443D01*
X149194109Y-53508869D02*
X149176375Y-53525557D01*
X167383597Y-64747766D02*
X167390831Y-64771423D01*
X166839266Y-64139137D02*
X166861722Y-64149515D01*
X108638000Y-28016000D02*
X108638000Y-43510000D01*
X147510995Y-33410886D02*
X147507640Y-33386377D01*
X148487728Y-76315075D02*
X148499925Y-76314925D01*
X147500305Y-72339735D02*
X147500000Y-72315000D01*
X166905828Y-46406078D02*
X166883914Y-46417554D01*
X180716600Y-86594000D02*
X180716600Y-86594000D01*
X148985593Y-76440815D02*
X149007068Y-76453094D01*
X148036179Y-95955070D02*
X148058235Y-95943868D01*
X130255318Y-26949528D02*
X130232110Y-26941544D01*
X129765792Y-103508300D02*
X129780653Y-103488768D01*
X126244877Y-83840985D02*
X126262901Y-83857929D01*
X149269538Y-76676400D02*
X149285099Y-76695630D01*
X149475316Y-96620188D02*
X149480480Y-96644381D01*
X166883914Y-46417554D02*
X166861722Y-46428484D01*
X126575136Y-105104000D02*
X108638000Y-105104000D01*
X148172296Y-76370219D02*
X148195766Y-76362402D01*
X167176382Y-65718637D02*
X167159664Y-65736870D01*
X126486881Y-84974854D02*
X126476784Y-84997437D01*
X166969777Y-65894448D02*
X166948773Y-65907517D01*
X167288728Y-103589897D02*
X167301086Y-103611101D01*
X129694815Y-64566406D02*
X129707094Y-64544931D01*
X167069599Y-85347538D02*
X167050369Y-85363099D01*
X136324000Y-41986000D02*
X135943000Y-43510000D01*
X126430905Y-45018931D02*
X126443184Y-45040406D01*
X170474059Y-26290284D02*
X170467223Y-26266712D01*
X126240558Y-26740951D02*
X126222172Y-26757208D01*
X147535663Y-53053679D02*
X147529504Y-53030119D01*
X170471168Y-45245423D02*
X170478402Y-45221766D01*
X188362000Y-82562000D02*
X188362000Y-67068000D01*
X187346000Y-44526000D02*
X187397459Y-44524695D01*
X171234381Y-83597519D02*
X171258694Y-83592956D01*
X126107777Y-46368448D02*
X126086773Y-46381517D01*
X170702335Y-44841129D02*
X170719499Y-44823314D01*
X147890466Y-96048239D02*
X147910262Y-96033405D01*
X148845901Y-56850729D02*
X148868645Y-56859429D01*
X188342785Y-109299090D02*
X188357184Y-109202017D01*
X126564184Y-104005982D02*
X126566290Y-104030435D01*
X188298756Y-43862862D02*
X188315405Y-43814152D01*
X129562863Y-105104000D02*
X129568925Y-105103925D01*
X130094171Y-65932078D02*
X130072546Y-65920063D01*
X147524683Y-38042188D02*
X147530443Y-38018130D01*
X125861520Y-46482259D02*
X125837777Y-46489202D01*
X166553410Y-26992479D02*
X166529017Y-26995184D01*
X149028233Y-92690099D02*
X149007068Y-92702905D01*
X171091543Y-65992621D02*
X171068380Y-65983937D01*
X129875098Y-65772070D02*
X129857499Y-65754685D01*
X149158239Y-57036191D02*
X149176375Y-57052442D01*
X167427262Y-65138379D02*
X167424820Y-65162996D01*
X125974241Y-103189790D02*
X125996555Y-103200010D01*
X109253334Y-46608338D02*
X109206559Y-46629830D01*
X148103145Y-73232881D02*
X148080562Y-73222784D01*
X170440228Y-45661545D02*
X170437179Y-45636996D01*
X181123000Y-81038000D02*
X180742000Y-82562000D01*
X129807355Y-44878004D02*
X129823617Y-44859362D01*
X188342785Y-20804909D02*
X188318940Y-20709715D01*
X149489004Y-96693113D02*
X149492359Y-96717622D01*
X170527010Y-26427555D02*
X170516790Y-26405241D01*
X147739170Y-53437952D02*
X147723594Y-53419233D01*
X129596466Y-65284763D02*
X129591006Y-65260635D01*
X129593297Y-26219101D02*
X129588214Y-26195090D01*
X167383597Y-65356233D02*
X167375780Y-65379703D01*
X126226439Y-64298492D02*
X126244877Y-64314985D01*
X148804233Y-34215597D02*
X148780576Y-34222831D01*
X166905828Y-85458078D02*
X166883914Y-85469554D01*
X129828048Y-26671558D02*
X129811791Y-26653172D01*
X116283400Y-102088000D02*
X115902400Y-100564000D01*
X167288728Y-26514102D02*
X167275853Y-26534997D01*
X166578886Y-44536995D02*
X166603305Y-44540956D01*
X125931619Y-46457937D02*
X125908456Y-46466621D01*
X149007068Y-34124905D02*
X148985593Y-34137184D01*
X130421113Y-83588995D02*
X130445622Y-83585640D01*
X149089737Y-96033405D02*
X149109533Y-96048239D01*
X130051226Y-85433517D02*
X130030222Y-85420448D01*
X167427262Y-84664379D02*
X167424820Y-84688996D01*
X148267236Y-37290466D02*
X148291364Y-37285006D01*
X130138277Y-85480484D02*
X130116085Y-85469554D01*
X170434737Y-45612379D02*
X170432905Y-45587709D01*
X149347204Y-53320266D02*
X149334017Y-53340737D01*
X166455735Y-83578305D02*
X166480456Y-83579223D01*
X167430924Y-84590271D02*
X167430315Y-84615001D01*
X129586145Y-84393619D02*
X129591006Y-84369364D01*
X125837777Y-44562797D02*
X125861520Y-44569740D01*
X129989217Y-46340771D02*
X129969240Y-46326180D01*
X125859284Y-103147059D02*
X125882681Y-103154471D01*
X170453006Y-84786635D02*
X170448145Y-84762380D01*
X149368063Y-37766546D02*
X149380078Y-37788171D01*
X132514000Y-61512000D02*
X136324000Y-61512000D01*
X167348881Y-64655145D02*
X167358417Y-64677971D01*
X180742000Y-43510000D02*
X177694000Y-43510000D01*
X171045439Y-65974682D02*
X171022733Y-65964862D01*
X170669355Y-85225995D02*
X170653559Y-85206957D01*
X166927453Y-46394063D02*
X166905828Y-46406078D01*
X129711271Y-26514102D02*
X129698913Y-26492898D01*
X149166637Y-34008382D02*
X149147995Y-34024644D01*
X129733226Y-64502925D02*
X129747064Y-64482419D01*
X129807355Y-85225995D02*
X129791559Y-85206957D01*
X170595226Y-65601074D02*
X170581900Y-65580233D01*
X130470982Y-26995184D02*
X130446589Y-26992479D01*
X187926408Y-83395895D02*
X187967899Y-83365428D01*
X148487728Y-56789075D02*
X148499925Y-56788925D01*
X129641582Y-84203971D02*
X129651118Y-84181145D01*
X126297664Y-64367129D02*
X126314382Y-64385362D01*
X148339988Y-34250115D02*
X148315619Y-34245854D01*
X148149026Y-95904614D02*
X148172296Y-95896219D01*
X129576520Y-103981589D02*
X129579823Y-103957269D01*
X130396694Y-83592956D02*
X130421113Y-83588995D01*
X147510655Y-52934592D02*
X147507403Y-52910459D01*
X126443184Y-84092406D02*
X126454929Y-84114179D01*
X167050369Y-44740900D02*
X167069599Y-44756461D01*
X148243251Y-37296521D02*
X148267236Y-37290466D01*
X170458466Y-64819236D02*
X170464521Y-64795251D01*
X170653559Y-65680957D02*
X170638239Y-65661533D01*
X125931619Y-83646062D02*
X125954560Y-83655317D01*
X129572737Y-45439620D02*
X129575179Y-45415003D01*
X170855191Y-103286415D02*
X170875429Y-103272530D01*
X149476078Y-57571582D02*
X149481083Y-57595414D01*
X126528831Y-84297423D02*
X126535478Y-84321251D01*
X130300222Y-66015202D02*
X130276479Y-66008259D01*
X167348881Y-84181145D02*
X167358417Y-84203971D01*
X109206559Y-66155830D02*
X109160933Y-66179663D01*
X149220070Y-73008901D02*
X149202685Y-73026500D01*
X149442445Y-57454638D02*
X149450307Y-57477686D01*
X170438520Y-103981589D02*
X170441823Y-103957269D01*
X147565975Y-53146210D02*
X147557554Y-53123361D01*
X149089737Y-34070594D02*
X149069580Y-34084935D01*
X149457605Y-53077082D02*
X149450307Y-53100313D01*
X129776239Y-65661533D02*
X129761405Y-65641737D01*
X126556115Y-84417988D02*
X126559771Y-84442454D01*
X147631936Y-33759453D02*
X147619921Y-33737828D01*
X126207599Y-46295538D02*
X126188369Y-46311099D01*
X129661215Y-64632562D02*
X129671868Y-64610235D01*
X126107777Y-83735551D02*
X126128451Y-83749136D01*
X109399337Y-66084433D02*
X109349847Y-66098594D01*
X170599530Y-103548429D02*
X170613415Y-103528191D01*
X187746665Y-63969661D02*
X187793440Y-63948169D01*
X148389003Y-37269179D02*
X148413620Y-37266737D01*
X164486000Y-29540000D02*
X160676000Y-29540000D01*
X149128957Y-76537559D02*
X149147995Y-76553355D01*
X171381543Y-66050776D02*
X171356852Y-66049247D01*
X170759441Y-26740951D02*
X170741459Y-26724247D01*
X147514956Y-33435305D02*
X147510995Y-33410886D01*
X129840335Y-65736870D02*
X129823617Y-65718637D01*
X170835300Y-103300792D02*
X170855191Y-103286415D01*
X129683070Y-45989820D02*
X129671868Y-45967764D01*
X161057000Y-28016000D02*
X164105000Y-28016000D01*
X135943000Y-67068000D02*
X136324000Y-68592000D01*
X147685228Y-92420782D02*
X147671136Y-92400451D01*
X148058235Y-92738131D02*
X148036179Y-92726929D01*
X130446589Y-26992479D02*
X130422269Y-26989176D01*
X126280500Y-64349314D02*
X126297664Y-64367129D01*
X149291521Y-57177858D02*
X149306167Y-57197312D01*
X129879459Y-103379752D02*
X129897441Y-103363048D01*
X171140715Y-103147059D02*
X171164287Y-103140223D01*
X130072546Y-83709936D02*
X130094171Y-83697921D01*
X187996393Y-20226989D02*
X187917570Y-20168530D01*
X147536797Y-72583777D02*
X147530443Y-72559869D01*
X130569000Y-27000000D02*
X130544458Y-26999698D01*
X125765618Y-46506480D02*
X125741305Y-46511043D01*
X148874028Y-73242417D02*
X148850973Y-73251385D01*
X149412862Y-72723266D02*
X149402484Y-72745722D01*
X148500074Y-73315074D02*
X148500000Y-73321136D01*
X119712400Y-81038000D02*
X119331400Y-82562000D01*
X126372207Y-26595699D02*
X126357346Y-26615231D01*
X149415525Y-57386740D02*
X149425049Y-57409152D01*
X147501223Y-33312456D02*
X147500305Y-33287735D01*
X149485506Y-57619360D02*
X149489344Y-57643407D01*
X126361760Y-64442466D02*
X126376594Y-64462262D01*
X149475316Y-72535811D02*
X149469556Y-72559869D01*
X129747064Y-44956419D02*
X129761405Y-44936262D01*
X126521597Y-64747766D02*
X126528831Y-64771423D01*
X180716600Y-86594000D02*
X181097600Y-88118000D01*
X109638000Y-110104000D02*
X187362000Y-110104000D01*
X129737530Y-103548429D02*
X129751415Y-103528191D01*
X170441823Y-103957269D02*
X170445722Y-103933038D01*
X147530443Y-92085869D02*
X147524683Y-92061811D01*
X148080562Y-92748784D02*
X148058235Y-92738131D01*
X126569000Y-26000000D02*
X126568698Y-26024541D01*
X149184870Y-96112335D02*
X149202685Y-96129499D01*
X125765618Y-83597519D02*
X125789811Y-83602683D01*
X147762985Y-76639122D02*
X147779929Y-76621098D01*
X130348188Y-85553316D02*
X130324130Y-85547556D01*
X160676000Y-41986000D02*
X164486000Y-41986000D01*
X147979006Y-53642560D02*
X147958377Y-53629621D01*
X126443184Y-65537593D02*
X126430905Y-65559068D01*
X170458466Y-65284763D02*
X170453006Y-65260635D01*
X149007068Y-76453094D02*
X149028233Y-76465900D01*
X147930419Y-92662935D02*
X147910262Y-92648594D01*
X147605143Y-57342645D02*
X147616277Y-57320988D01*
X188362000Y-47542000D02*
X187346000Y-46526000D01*
X148804233Y-73267597D02*
X148780576Y-73274831D01*
X148896854Y-37345118D02*
X148919437Y-37355215D01*
X170434737Y-45439620D02*
X170437179Y-45415003D01*
X149492359Y-96717622D02*
X149495108Y-96742207D01*
X147841760Y-53541808D02*
X147823624Y-53525557D01*
X149368063Y-33759453D02*
X149355517Y-33780773D01*
X167305184Y-46011593D02*
X167292905Y-46033068D01*
X148512271Y-73314924D02*
X148500074Y-73315074D01*
X126297664Y-83893129D02*
X126314382Y-83911362D01*
X147950925Y-37427226D02*
X147971766Y-37413900D01*
X108806530Y-109659570D02*
X108864989Y-109738393D01*
X108765663Y-47048933D02*
X108741830Y-47094559D01*
X148414775Y-56792638D02*
X148439062Y-56790858D01*
X149425049Y-53168847D02*
X149415525Y-53191259D01*
X170556815Y-64566406D02*
X170569094Y-64544931D01*
X149372064Y-57299609D02*
X149383722Y-57320988D01*
X108701243Y-27663137D02*
X108684594Y-27711847D01*
X170851217Y-64237228D02*
X170871548Y-64223136D01*
X167348881Y-45129145D02*
X167358417Y-45151971D01*
X187793440Y-103000169D02*
X187839066Y-102976336D01*
X125999722Y-64149515D02*
X126021914Y-64160445D01*
X149007068Y-37401094D02*
X149028233Y-37413900D01*
X167430315Y-65089001D02*
X167429094Y-65113709D01*
X126569074Y-65051925D02*
X126575136Y-65052000D01*
X126207599Y-44756461D02*
X126226439Y-44772492D01*
X125692377Y-66044359D02*
X125667792Y-66047108D01*
X108741830Y-66620559D02*
X108720338Y-66667334D01*
X147890466Y-34055760D02*
X147871042Y-34040440D01*
X147529504Y-53030119D02*
X147523921Y-53006417D01*
X108670433Y-27761337D02*
X108658797Y-27811480D01*
X147543740Y-77022479D02*
X147551269Y-76998914D01*
X126558176Y-26146730D02*
X126554277Y-26170961D01*
X147500000Y-103104000D02*
X147500000Y-96841000D01*
X171283113Y-46515004D02*
X171258694Y-46511043D01*
X126546993Y-45734635D02*
X126541533Y-45758763D01*
X164105000Y-102088000D02*
X164105000Y-102088000D01*
X125667792Y-83582891D02*
X125692377Y-83585640D01*
X129578228Y-65187545D02*
X129575179Y-65162996D01*
X149314771Y-92420782D02*
X149300180Y-92440759D01*
X129694815Y-65537593D02*
X129683070Y-65515820D01*
X149300180Y-92440759D02*
X149285099Y-92460369D01*
X166697712Y-103140223D02*
X166721284Y-103147059D01*
X147910262Y-92648594D02*
X147890466Y-92633760D01*
X167252935Y-46095580D02*
X167238594Y-46115737D01*
X126207599Y-83808461D02*
X126226439Y-83824492D01*
X125593735Y-66051694D02*
X125569000Y-66052000D01*
X126549785Y-103908909D02*
X126554277Y-103933038D01*
X149499703Y-57764650D02*
X149500000Y-57789000D01*
X167431074Y-105103925D02*
X167437136Y-105104000D01*
X187926408Y-44343895D02*
X187967899Y-44313428D01*
X170595226Y-64502925D02*
X170609064Y-64482419D01*
X171114914Y-83629269D02*
X171138479Y-83621740D01*
X130009548Y-64223136D02*
X130030222Y-64209551D01*
X129578228Y-64916454D02*
X129581884Y-64891988D01*
X126226439Y-85331507D02*
X126207599Y-85347538D01*
X188329566Y-43764662D02*
X188341202Y-43714519D01*
X188082389Y-44209990D02*
X188116898Y-44171794D01*
X147852004Y-96079355D02*
X147871042Y-96063559D01*
X170959603Y-26881921D02*
X170938101Y-26870086D01*
X149285099Y-33882369D02*
X149269538Y-33901599D01*
X167252935Y-84008419D02*
X167266773Y-84028925D01*
X126568698Y-104079458D02*
X126569000Y-104104000D01*
X126128451Y-65880863D02*
X126107777Y-65894448D01*
X129857499Y-46228685D02*
X129840335Y-46210870D01*
X147833362Y-76569617D02*
X147852004Y-76553355D01*
X170455297Y-103884898D02*
X170460968Y-103861019D01*
X167403533Y-84810763D02*
X167397478Y-84834748D01*
X129569301Y-26024541D02*
X129569000Y-26000000D01*
X126128451Y-46354863D02*
X126107777Y-46368448D01*
X125885085Y-85526730D02*
X125861520Y-85534259D01*
X126569074Y-65052074D02*
X126568924Y-65064271D01*
X170453006Y-65260635D02*
X170448145Y-65236380D01*
X147657551Y-96302222D02*
X147671136Y-96281548D01*
X187362000Y-20000000D02*
X109638000Y-20000000D01*
X148708635Y-37285006D02*
X148732763Y-37290466D01*
X149253507Y-72972439D02*
X149237014Y-72990877D01*
X108954009Y-46805610D02*
X108917610Y-46842009D01*
X147879190Y-53572961D02*
X147860285Y-53557612D01*
X135943000Y-86594000D02*
X136324000Y-88118000D01*
X130495435Y-103106709D02*
X130519932Y-103105204D01*
X108741830Y-86146559D02*
X108720338Y-86193334D01*
X166839266Y-65964862D02*
X166816560Y-65974682D01*
X109301137Y-27063243D02*
X109253334Y-27082338D01*
X161057000Y-43510000D02*
X160676000Y-41986000D01*
X126430905Y-84070931D02*
X126443184Y-84092406D01*
X177313000Y-100564000D02*
X181123000Y-100564000D01*
X167420176Y-26146730D02*
X167416277Y-26170961D01*
X177694000Y-82562000D02*
X177313000Y-81038000D01*
X126262901Y-44805929D02*
X126280500Y-44823314D01*
X147779929Y-37569098D02*
X147797314Y-37551499D01*
X149109533Y-34055760D02*
X149089737Y-34070594D01*
X109539982Y-20004815D02*
X109442909Y-20019214D01*
X148753011Y-53756463D02*
X148729378Y-53762337D01*
X170913226Y-65907517D02*
X170892222Y-65894448D01*
X130232110Y-103162455D02*
X130255318Y-103154471D01*
X166861722Y-46428484D02*
X166839266Y-46438862D01*
X170773560Y-85331507D02*
X170755122Y-85315014D01*
X129651118Y-45922854D02*
X129641582Y-45900028D01*
X171003444Y-103200010D02*
X171025758Y-103189790D01*
X171283113Y-85567004D02*
X171258694Y-85563043D01*
X166816560Y-44603317D02*
X166839266Y-44613137D01*
X125765618Y-44545519D02*
X125789811Y-44550683D01*
X166505147Y-44528752D02*
X166529792Y-44530891D01*
X166790895Y-103171007D02*
X166813683Y-103180120D01*
X147619921Y-72789828D02*
X147608445Y-72767914D01*
X129671868Y-84136235D02*
X129683070Y-84114179D01*
X170959603Y-103222078D02*
X170981388Y-103210775D01*
X109160933Y-66179663D02*
X109116572Y-66205777D01*
X148874028Y-76387582D02*
X148896854Y-76397118D01*
X149314771Y-96261217D02*
X149328863Y-96281548D01*
X147587137Y-33671266D02*
X147577317Y-33648560D01*
X147833362Y-96095617D02*
X147852004Y-96079355D01*
X164486000Y-49066000D02*
X160676000Y-49066000D01*
X129791559Y-64423042D02*
X129807355Y-64404004D01*
X148149026Y-92777385D02*
X148125971Y-92768417D01*
X126546993Y-84369364D02*
X126551854Y-84393619D01*
X149457605Y-57500917D02*
X149464336Y-57524320D01*
X149028233Y-37413900D02*
X149049074Y-37427226D01*
X167305184Y-65537593D02*
X167292905Y-65559068D01*
X167124901Y-46246070D02*
X167106877Y-46263014D01*
X126518528Y-26313681D02*
X126510544Y-26336889D01*
X148941764Y-34160131D02*
X148919437Y-34170784D01*
X148219423Y-37303168D02*
X148243251Y-37296521D01*
X125618456Y-64053223D02*
X125643147Y-64054752D01*
X166577730Y-26989176D02*
X166553410Y-26992479D01*
X149128957Y-92618440D02*
X149109533Y-92633760D01*
X149475316Y-38042188D02*
X149480480Y-38066381D01*
X147501223Y-72364456D02*
X147500305Y-72339735D01*
X170581900Y-84049766D02*
X170595226Y-84028925D01*
X170573271Y-103589897D02*
X170586146Y-103569002D01*
X147619921Y-37788171D02*
X147631936Y-37766546D01*
X171356852Y-46523247D02*
X171332207Y-46521108D01*
X170956171Y-44645921D02*
X170978085Y-44634445D01*
X170503582Y-45900028D02*
X170494614Y-45876973D01*
X147568062Y-72677619D02*
X147559378Y-72654456D01*
X148036179Y-34148929D02*
X148014406Y-34137184D01*
X148512271Y-34262924D02*
X148500074Y-34263074D01*
X129578228Y-84442454D02*
X129581884Y-84417988D01*
X129765792Y-26595699D02*
X129751415Y-26575808D01*
X187698862Y-83514756D02*
X187746665Y-83495661D01*
X149391554Y-33715914D02*
X149380078Y-33737828D01*
X166793619Y-44594062D02*
X166816560Y-44603317D01*
X130009548Y-44697136D02*
X130030222Y-44683551D01*
X148635545Y-76324228D02*
X148660011Y-76327884D01*
X166431000Y-44526000D02*
X166455735Y-44526305D01*
X166883914Y-64160445D02*
X166905828Y-64171921D01*
X132514000Y-49066000D02*
X132895000Y-47542000D01*
X187499850Y-83566283D02*
X187550519Y-83557202D01*
X126418099Y-85106233D02*
X126404773Y-85127074D01*
X130252914Y-44577269D02*
X130276479Y-44569740D01*
X148014406Y-95966815D02*
X148036179Y-95955070D01*
X167408993Y-65260635D02*
X167403533Y-65284763D01*
X126244877Y-44788985D02*
X126262901Y-44805929D01*
X187550519Y-83557202D02*
X187600662Y-83545566D01*
X130519543Y-64053223D02*
X130544264Y-64052305D01*
X171258694Y-83592956D02*
X171283113Y-83588995D01*
X126466131Y-84136235D02*
X126476784Y-84158562D01*
X130569000Y-83578000D02*
X147500000Y-83578000D01*
X130009548Y-85406863D02*
X129989217Y-85392771D01*
X187967899Y-44313428D02*
X188007794Y-44280898D01*
X148499925Y-73315074D02*
X148487728Y-73314924D01*
X130519543Y-66050776D02*
X130494852Y-66049247D01*
X180716600Y-28016000D02*
X181097600Y-29540000D01*
X129687078Y-103632603D02*
X129698913Y-103611101D01*
X170523215Y-65471437D02*
X170513118Y-65448854D01*
X187550519Y-103083202D02*
X187600662Y-103071566D01*
X166480067Y-103105204D02*
X166504564Y-103106709D01*
X167266773Y-64502925D02*
X167280099Y-64523766D01*
X149049074Y-73150773D02*
X149028233Y-73164099D01*
X125569000Y-64052000D02*
X125593735Y-64052305D01*
X149500000Y-85578000D02*
X149500000Y-91841000D01*
X149499694Y-33287735D02*
X149498776Y-33312456D01*
X171025758Y-26914209D02*
X171003444Y-26903989D01*
X125951683Y-103180120D02*
X125974241Y-103189790D01*
X166721284Y-103147059D02*
X166744681Y-103154471D01*
X129651118Y-84974854D02*
X129641582Y-84952028D01*
X170913226Y-46381517D02*
X170892222Y-46368448D01*
X147833362Y-73060382D02*
X147815129Y-73043664D01*
X129624219Y-45198296D02*
X129632614Y-45175026D01*
X171188019Y-26970031D02*
X171164287Y-26963776D01*
X129569684Y-45488998D02*
X129570905Y-45464290D01*
X171235909Y-26980785D02*
X171211898Y-26975702D01*
X170455297Y-26219101D02*
X170450214Y-26195090D01*
X166813683Y-103180120D02*
X166836241Y-103189790D01*
X108670433Y-47287337D02*
X108658797Y-47337480D01*
X149499694Y-91865735D02*
X149498776Y-91890456D01*
X147779929Y-76621098D02*
X147797314Y-76603499D01*
X135943000Y-82562000D02*
X132895000Y-82562000D01*
X171234381Y-85558480D02*
X171210188Y-85553316D01*
X147504891Y-72413792D02*
X147502752Y-72389147D01*
X130072546Y-46394063D02*
X130051226Y-46381517D01*
X170706752Y-103414459D02*
X170723893Y-103396893D01*
X187833396Y-109985921D02*
X187917570Y-109935469D01*
X170978085Y-83686445D02*
X171000277Y-83675515D01*
X147502752Y-91915147D02*
X147501223Y-91890456D01*
X170811630Y-44740900D02*
X170831240Y-44725819D01*
X130302287Y-26963776D02*
X130278715Y-26956940D01*
X109206559Y-85681830D02*
X109160933Y-85705663D01*
X149300180Y-37663240D02*
X149314771Y-37683217D01*
X166747085Y-83629269D02*
X166770456Y-83637378D01*
X170685617Y-64385362D02*
X170702335Y-64367129D01*
X130229543Y-46466621D02*
X130206380Y-46457937D01*
X170464521Y-45782748D02*
X170458466Y-45758763D01*
X167280099Y-65580233D02*
X167266773Y-65601074D01*
X166626090Y-26980785D02*
X166601961Y-26985277D01*
X164105000Y-82562000D02*
X161057000Y-82562000D01*
X170448145Y-45710380D02*
X170443884Y-45686011D01*
X126496417Y-45900028D02*
X126486881Y-45922854D01*
X148732763Y-76342466D02*
X148756748Y-76348521D01*
X147551269Y-72631085D02*
X147543740Y-72607520D01*
X126483209Y-26405241D02*
X126472989Y-26427555D01*
X126021914Y-46417554D02*
X125999722Y-46428484D01*
X167208440Y-65680957D02*
X167192644Y-65699995D01*
X148732763Y-92813533D02*
X148708635Y-92818993D01*
X170431075Y-84565728D02*
X170431684Y-84540998D01*
X170595226Y-46075074D02*
X170581900Y-46054233D01*
X126568315Y-65089001D02*
X126567094Y-65113709D01*
X130051226Y-46381517D02*
X130030222Y-46368448D01*
X126346440Y-85206957D02*
X126330644Y-85225995D01*
X147500000Y-33263000D02*
X147500000Y-27000000D01*
X130398038Y-103118722D02*
X130422269Y-103114823D01*
X126559771Y-84442454D02*
X126562820Y-84467003D01*
X167262469Y-26555570D02*
X167248584Y-26575808D01*
X148103145Y-95923118D02*
X148125971Y-95913582D01*
X129687078Y-26471396D02*
X129675775Y-26449611D01*
X167430315Y-84615001D02*
X167429094Y-84639709D01*
X167176382Y-85244637D02*
X167159664Y-85262870D01*
X129562863Y-84578000D02*
X129568925Y-84577925D01*
X167192644Y-46173995D02*
X167176382Y-46192637D01*
X129761405Y-85167737D02*
X129747064Y-85147580D01*
X170527010Y-103676444D02*
X170537775Y-103654388D01*
X126505385Y-84928973D02*
X126496417Y-84952028D01*
X125813869Y-66021556D02*
X125789811Y-66027316D01*
X130141444Y-26903989D02*
X130119388Y-26893224D01*
X170453006Y-64843364D02*
X170458466Y-64819236D01*
X126551854Y-45341619D02*
X126556115Y-45365988D01*
X170523215Y-84997437D02*
X170513118Y-84974854D01*
X149176375Y-57052442D02*
X149194109Y-57069130D01*
X149061931Y-56961815D02*
X149081906Y-56975743D01*
X167208440Y-46154957D02*
X167192644Y-46173995D01*
X170432905Y-84639709D02*
X170431684Y-84615001D01*
X170642653Y-26615231D02*
X170627792Y-26595699D01*
X170956171Y-46406078D02*
X170934546Y-46394063D01*
X167375780Y-64724296D02*
X167383597Y-64747766D01*
X170702335Y-83893129D02*
X170719499Y-83875314D01*
X108992205Y-46771101D02*
X108954009Y-46805610D01*
X147699819Y-33862759D02*
X147685228Y-33842782D01*
X166880611Y-103210775D02*
X166902396Y-103222078D01*
X166816560Y-65974682D02*
X166793619Y-65983937D01*
X167026699Y-103300792D02*
X167046231Y-103315653D01*
X130097603Y-26881921D02*
X130076101Y-26870086D01*
X167292905Y-46033068D02*
X167280099Y-46054233D01*
X149492596Y-57667540D02*
X149495259Y-57691746D01*
X129654790Y-26405241D02*
X129645120Y-26382683D01*
X149220070Y-33956901D02*
X149202685Y-33974500D01*
X188341202Y-102292519D02*
X188350283Y-102241850D01*
X129586145Y-45341619D02*
X129591006Y-45317364D01*
X170609064Y-64482419D02*
X170623405Y-64462262D01*
X147631936Y-37766546D02*
X147644482Y-37745226D01*
X177668600Y-28016000D02*
X180716600Y-28016000D01*
X170458466Y-45293236D02*
X170464521Y-45269251D01*
X149469556Y-96596130D02*
X149475316Y-96620188D01*
X147500000Y-83578000D02*
X147500000Y-77315000D01*
X170811630Y-64266900D02*
X170831240Y-64251819D01*
X115902400Y-81038000D02*
X115902400Y-81038000D01*
X129573815Y-26098017D02*
X129571709Y-26073564D01*
X130252914Y-83629269D02*
X130276479Y-83621740D01*
X109654000Y-83578000D02*
X125569000Y-83578000D01*
X149202685Y-96129499D02*
X149220070Y-96147098D01*
X130138277Y-44623515D02*
X130160733Y-44613137D01*
X167275853Y-26534997D02*
X167262469Y-26555570D01*
X108954009Y-66331610D02*
X108917610Y-66368009D01*
X129575179Y-84688996D02*
X129572737Y-84664379D01*
X148729378Y-56815662D02*
X148753011Y-56821536D01*
X147536797Y-77046222D02*
X147543740Y-77022479D01*
X167238594Y-65641737D02*
X167223760Y-65661533D01*
X147930419Y-73136935D02*
X147910262Y-73122594D01*
X166770456Y-83637378D02*
X166793619Y-83646062D01*
X149194109Y-57069130D02*
X149211432Y-57086245D01*
X149469556Y-72559869D02*
X149463202Y-72583777D01*
X170431000Y-26000000D02*
X170431000Y-25006136D01*
X167204010Y-26634393D02*
X167188208Y-26653172D01*
X109301137Y-46589243D02*
X109253334Y-46608338D01*
X126404773Y-46075074D02*
X126390935Y-46095580D01*
X148172296Y-73259780D02*
X148149026Y-73251385D01*
X167188208Y-26653172D02*
X167171951Y-26671558D01*
X170556815Y-46011593D02*
X170545070Y-45989820D01*
X147577317Y-72700560D02*
X147568062Y-72677619D01*
X166883914Y-83686445D02*
X166905828Y-83697921D01*
X130252914Y-46474730D02*
X130229543Y-46466621D01*
X170851217Y-83763228D02*
X170871548Y-83749136D01*
X148223506Y-56827984D02*
X148246988Y-56821536D01*
X129569684Y-84615001D02*
X129569075Y-84590271D01*
X130013429Y-103272530D02*
X130034002Y-103259146D01*
X129651118Y-45129145D02*
X129661215Y-45106562D01*
X187600662Y-64019566D02*
X187650152Y-64005405D01*
X149202685Y-76603499D02*
X149220070Y-76621098D01*
X147671136Y-37703548D02*
X147685228Y-37683217D01*
X187926408Y-102921895D02*
X187967899Y-102891428D01*
X171068380Y-46457937D02*
X171045439Y-46448682D01*
X167192644Y-85225995D02*
X167176382Y-85244637D01*
X171234381Y-44545519D02*
X171258694Y-44540956D01*
X126569000Y-25006136D02*
X126569000Y-26000000D01*
X149391554Y-37810085D02*
X149402484Y-37832277D01*
X125931619Y-65983937D02*
X125908456Y-65992621D01*
X166455541Y-26999698D02*
X166431000Y-27000000D01*
X126418099Y-65580233D02*
X126404773Y-65601074D01*
X125569000Y-83578000D02*
X125593735Y-83578305D01*
X170437179Y-64941003D02*
X170440228Y-64916454D01*
X167188208Y-103450827D02*
X167204010Y-103469606D01*
X171381543Y-64053223D02*
X171406264Y-64052305D01*
X188350283Y-102241850D02*
X188356787Y-102190787D01*
X126280500Y-46228685D02*
X126262901Y-46246070D01*
X129596466Y-45293236D02*
X129602521Y-45269251D01*
X129579823Y-103957269D02*
X129583722Y-103933038D01*
X126561479Y-26122410D02*
X126558176Y-26146730D01*
X170934546Y-85446063D02*
X170913226Y-85433517D01*
X126107777Y-44683551D02*
X126128451Y-44697136D01*
X167426184Y-104005982D02*
X167428290Y-104030435D01*
X129776239Y-64442466D02*
X129791559Y-64423042D01*
X170815768Y-103315653D02*
X170835300Y-103300792D01*
X147627935Y-53278390D02*
X147616277Y-53257011D01*
X125996555Y-103200010D02*
X126018611Y-103210775D01*
X167423479Y-26122410D02*
X167420176Y-26146730D01*
X147502752Y-77240852D02*
X147504891Y-77216207D01*
X167338784Y-45945437D02*
X167328131Y-45967764D01*
X167423479Y-103981589D02*
X167426184Y-104005982D01*
X181123000Y-100564000D02*
X180742000Y-102088000D01*
X149463202Y-96572222D02*
X149469556Y-96596130D01*
X170434737Y-84664379D02*
X170432905Y-84639709D01*
X125765618Y-85558480D02*
X125741305Y-85563043D01*
X148935511Y-56888817D02*
X148957301Y-56899688D01*
X170498007Y-26359895D02*
X170489455Y-26336889D01*
X171138479Y-44569740D02*
X171162222Y-44562797D01*
X126188369Y-85363099D02*
X126168759Y-85378180D01*
X167416277Y-26170961D02*
X167411785Y-26195090D01*
X130160733Y-64139137D02*
X130183439Y-64129317D01*
X129570905Y-84639709D02*
X129569684Y-84615001D01*
X188045990Y-102824389D02*
X188082389Y-102787990D01*
X129840335Y-44841129D02*
X129857499Y-44823314D01*
X188360695Y-43561459D02*
X188362000Y-43510000D01*
X148339988Y-92828115D02*
X148315619Y-92823854D01*
X147815129Y-33991664D02*
X147797314Y-33974500D01*
X125861520Y-85534259D02*
X125837777Y-85541202D01*
X125908456Y-85518621D02*
X125885085Y-85526730D01*
X130183439Y-85500682D02*
X130160733Y-85490862D01*
X125977266Y-83665137D02*
X125999722Y-83675515D01*
X147597515Y-37832277D02*
X147608445Y-37810085D01*
X166699777Y-64088797D02*
X166723520Y-64095740D01*
X130300222Y-85541202D02*
X130276479Y-85534259D01*
X167305184Y-64566406D02*
X167316929Y-64588179D01*
X149499694Y-38238264D02*
X149500000Y-38263000D01*
X148512271Y-37263075D02*
X148537001Y-37263684D01*
X148500074Y-92841074D02*
X148500000Y-92847136D01*
X170741459Y-103379752D02*
X170759441Y-103363048D01*
X181097600Y-49066000D02*
X177287600Y-49066000D01*
X126541533Y-45293236D02*
X126546993Y-45317364D01*
X148941764Y-73212131D02*
X148919437Y-73222784D01*
X148462998Y-92840315D02*
X148438290Y-92839094D01*
X130276479Y-85534259D02*
X130252914Y-85526730D01*
X148364454Y-92831771D02*
X148364454Y-92831771D01*
X148500000Y-95834863D02*
X148500074Y-95840925D01*
X132895000Y-82562000D02*
X132514000Y-81038000D01*
X166529792Y-66047108D02*
X166505147Y-66049247D01*
X167050369Y-65837099D02*
X167030759Y-65852180D01*
X170460968Y-26242980D02*
X170455297Y-26219101D01*
X125977266Y-46438862D02*
X125954560Y-46448682D01*
X167390831Y-84297423D02*
X167397478Y-84321251D01*
X167430315Y-45563001D02*
X167429094Y-45587709D01*
X148500000Y-34269136D02*
X148500000Y-34269136D01*
X126568698Y-26024541D02*
X126567795Y-26049067D01*
X148827703Y-34207780D02*
X148804233Y-34215597D01*
X167363992Y-26359895D02*
X167354879Y-26382683D01*
X188208222Y-63573427D02*
X188234336Y-63529066D01*
X148874028Y-95913582D02*
X148896854Y-95923118D01*
X171381543Y-83579223D02*
X171406264Y-83578305D01*
X129823617Y-64385362D02*
X129840335Y-64367129D01*
X148014406Y-73189184D02*
X147992931Y-73176905D01*
X149300180Y-76715240D02*
X149314771Y-76735217D01*
X125618456Y-46524776D02*
X125593735Y-46525694D01*
X148339988Y-37275884D02*
X148364454Y-37272228D01*
X129570905Y-45587709D02*
X129569684Y-45563001D01*
X126376594Y-65641737D02*
X126361760Y-65661533D01*
X149253507Y-92498439D02*
X149237014Y-92516877D01*
X148243251Y-95874521D02*
X148267236Y-95868466D01*
X147616277Y-57320988D02*
X147627935Y-57299609D01*
X149320335Y-57217117D02*
X149334017Y-57237262D01*
X129665010Y-103676444D02*
X129675775Y-103654388D01*
X170934546Y-83709936D02*
X170956171Y-83697921D01*
X147999944Y-53654993D02*
X147979006Y-53642560D01*
X171186130Y-64082443D02*
X171210188Y-64076683D01*
X125977266Y-65964862D02*
X125954560Y-65974682D01*
X170938101Y-26870086D02*
X170916897Y-26857728D01*
X129791559Y-85206957D02*
X129776239Y-85187533D01*
X125928895Y-26932992D02*
X125905889Y-26941544D01*
X147746492Y-72972439D02*
X147730461Y-72953599D01*
X170623405Y-83988262D02*
X170638239Y-83968466D01*
X187839066Y-83450336D02*
X187883427Y-83424222D01*
X148868645Y-56859429D02*
X148891170Y-56868681D01*
X148610996Y-37269179D02*
X148635545Y-37272228D01*
X167338784Y-65471437D02*
X167328131Y-65493764D01*
X148850973Y-73251385D02*
X148827703Y-73259780D01*
X149128957Y-37485559D02*
X149147995Y-37501355D01*
X149069580Y-96019064D02*
X149089737Y-96033405D01*
X129747064Y-46095580D02*
X129733226Y-46075074D01*
X130302287Y-103140223D02*
X130326019Y-103133968D01*
X125861520Y-83621740D02*
X125885085Y-83629269D01*
X170811630Y-46311099D02*
X170792400Y-46295538D01*
X125643147Y-85575247D02*
X125618456Y-85576776D01*
X149431937Y-72677619D02*
X149422682Y-72700560D01*
X126544702Y-103884898D02*
X126549785Y-103908909D01*
X187698862Y-44462756D02*
X187746665Y-44443661D01*
X170792400Y-46295538D02*
X170773560Y-46279507D01*
X109551212Y-85583212D02*
X109500149Y-85589716D01*
X147500000Y-44526000D02*
X147500000Y-38263000D01*
X126546993Y-84786635D02*
X126541533Y-84810763D01*
X126528831Y-84858576D02*
X126521597Y-84882233D01*
X148891170Y-56868681D02*
X148913463Y-56878479D01*
X108850571Y-66446100D02*
X108820104Y-66487591D01*
X170430925Y-105103925D02*
X170431000Y-105097863D01*
X147699819Y-37663240D02*
X147714900Y-37643630D01*
X170545070Y-65515820D02*
X170533868Y-65493764D01*
X170815768Y-26788346D02*
X170796606Y-26773010D01*
X130569000Y-46526000D02*
X130544264Y-46525694D01*
X148499925Y-76314925D02*
X148500000Y-76308863D01*
X166767889Y-26941544D02*
X166744681Y-26949528D01*
X148080562Y-76407215D02*
X148103145Y-76397118D01*
X136324000Y-88118000D02*
X132514000Y-88118000D01*
X180716600Y-47542000D02*
X181097600Y-49066000D01*
X167252935Y-64482419D02*
X167266773Y-64502925D01*
X170438520Y-26122410D02*
X170435815Y-26098017D01*
X129761405Y-44936262D02*
X129776239Y-44916466D01*
X147918093Y-53602256D02*
X147898464Y-53587845D01*
X126280500Y-44823314D02*
X126297664Y-44841129D01*
X109116572Y-46679777D02*
X109073591Y-46708104D01*
X170978085Y-85469554D02*
X170956171Y-85458078D01*
X187499850Y-44514283D02*
X187550519Y-44505202D01*
X148941764Y-92738131D02*
X148919437Y-92748784D01*
X170685617Y-46192637D02*
X170669355Y-46173995D01*
X148609459Y-56795008D02*
X148633630Y-56797968D01*
X187833396Y-20118078D02*
X187744683Y-20076120D01*
X148243251Y-76348521D02*
X148267236Y-76342466D01*
X147815129Y-37534335D02*
X147833362Y-37517617D01*
X171211898Y-26975702D02*
X171188019Y-26970031D01*
X167367385Y-45175026D02*
X167375780Y-45198296D01*
X129823617Y-46192637D02*
X129807355Y-46173995D01*
X170685617Y-44859362D02*
X170702335Y-44841129D01*
X170719499Y-85280685D02*
X170702335Y-85262870D01*
X126472989Y-103676444D02*
X126483209Y-103698758D01*
X126244877Y-64314985D02*
X126262901Y-64331929D01*
X125667792Y-85573108D02*
X125643147Y-85575247D01*
X148462998Y-95841684D02*
X148487728Y-95841075D01*
X188045990Y-83298389D02*
X188082389Y-83261990D01*
X132895000Y-43510000D02*
X132514000Y-41986000D01*
X149497247Y-77240852D02*
X149498776Y-77265543D01*
X148103145Y-34180881D02*
X148080562Y-34170784D01*
X147841760Y-57036191D02*
X147860285Y-57020387D01*
X126021914Y-83686445D02*
X126043828Y-83697921D01*
X125764090Y-103123214D02*
X125788101Y-103128297D01*
X116258000Y-28016000D02*
X119306000Y-28016000D01*
X129857499Y-85280685D02*
X129840335Y-85262870D01*
X149448730Y-96524914D02*
X149456259Y-96548479D01*
X129747064Y-85147580D02*
X129733226Y-85127074D01*
X130009548Y-46354863D02*
X129989217Y-46340771D01*
X149000055Y-53654993D02*
X148978820Y-53666912D01*
X171091543Y-44585378D02*
X171114914Y-44577269D01*
X167316929Y-65515820D02*
X167305184Y-65537593D01*
X148058235Y-37365868D02*
X148080562Y-37355215D01*
X108720338Y-86193334D02*
X108701243Y-86241137D01*
X166699777Y-66015202D02*
X166675869Y-66021556D01*
X171283113Y-83588995D02*
X171307622Y-83585640D01*
X167372544Y-103767110D02*
X167380528Y-103790318D01*
X126276106Y-26707106D02*
X126258540Y-26724247D01*
X171308589Y-103111520D02*
X171332982Y-103108815D01*
X126386584Y-103528191D02*
X126400469Y-103548429D01*
X125837777Y-46489202D02*
X125813869Y-46495556D01*
X129632614Y-45876973D02*
X129624219Y-45853703D01*
X129807355Y-65699995D02*
X129791559Y-65680957D01*
X170755122Y-64314985D02*
X170773560Y-64298492D01*
X136324000Y-100564000D02*
X135943000Y-102088000D01*
X166990451Y-85406863D02*
X166969777Y-85420448D01*
X148913463Y-53699520D02*
X148891170Y-53709318D01*
X126124570Y-26831469D02*
X126103997Y-26844853D01*
X147852004Y-37501355D02*
X147871042Y-37485559D01*
X149355517Y-37745226D02*
X149368063Y-37766546D01*
X148635545Y-37272228D02*
X148660011Y-37275884D01*
X149285099Y-92460369D02*
X149269538Y-92479599D01*
X108930893Y-109811106D02*
X109003606Y-109877010D01*
X167106877Y-46263014D02*
X167088439Y-46279507D01*
X126148782Y-65866771D02*
X126128451Y-65880863D01*
X167266773Y-65601074D02*
X167252935Y-65621580D01*
X130544264Y-44526305D02*
X130569000Y-44526000D01*
X166836241Y-103189790D02*
X166858555Y-103200010D01*
X187967899Y-63839428D02*
X188007794Y-63806898D01*
X187460017Y-20004815D02*
X187362000Y-20000000D01*
X164486000Y-88118000D02*
X164486000Y-88118000D01*
X149500000Y-103104000D02*
X166431000Y-103104000D01*
X148499925Y-37262925D02*
X148500000Y-37256863D01*
X167426184Y-26098017D02*
X167423479Y-26122410D01*
X125999722Y-46428484D02*
X125977266Y-46438862D01*
X167421771Y-45390454D02*
X167424820Y-45415003D01*
X149147995Y-92602644D02*
X149128957Y-92618440D01*
X130372381Y-66032480D02*
X130348188Y-66027316D01*
X166969777Y-46368448D02*
X166948773Y-46381517D01*
X125859284Y-26956940D02*
X125835712Y-26963776D01*
X170494614Y-45175026D02*
X170503582Y-45151971D01*
X149176375Y-53525557D02*
X149158239Y-53541808D01*
X188208222Y-102625427D02*
X188234336Y-102581066D01*
X108714120Y-109486683D02*
X108756078Y-109575396D01*
X130034002Y-103259146D02*
X130054897Y-103246271D01*
X126346440Y-65680957D02*
X126330644Y-65699995D01*
X148610996Y-95847179D02*
X148635545Y-95850228D01*
X129591006Y-84786635D02*
X129586145Y-84762380D01*
X149368063Y-96344546D02*
X149380078Y-96366171D01*
X170851217Y-85392771D02*
X170831240Y-85378180D01*
X167328131Y-45084235D02*
X167338784Y-45106562D01*
X170653559Y-85206957D02*
X170638239Y-85187533D01*
X130229543Y-64111378D02*
X130252914Y-64103269D01*
X130544264Y-66051694D02*
X130519543Y-66050776D01*
X187346000Y-83578000D02*
X187397459Y-83576695D01*
X149166637Y-76569617D02*
X149184870Y-76586335D01*
X188279661Y-63436665D02*
X188298756Y-63388862D01*
X147568062Y-37900380D02*
X147577317Y-37877439D01*
X166839266Y-46438862D02*
X166816560Y-46448682D01*
X171045439Y-44603317D02*
X171068380Y-44594062D01*
X166675869Y-66021556D02*
X166651811Y-66027316D01*
X147730461Y-76676400D02*
X147746492Y-76657560D01*
X147833362Y-92586382D02*
X147815129Y-92569664D01*
X149147995Y-96079355D02*
X149166637Y-96095617D01*
X129569075Y-84590271D02*
X129568925Y-84578074D01*
X149089737Y-37455405D02*
X149109533Y-37470239D01*
X130116085Y-83686445D02*
X130138277Y-83675515D01*
X170642653Y-103488768D02*
X170657989Y-103469606D01*
X149440621Y-92180456D02*
X149431937Y-92203619D01*
X171234381Y-46506480D02*
X171210188Y-46501316D01*
X108820104Y-27435591D02*
X108791777Y-27478572D01*
X126567094Y-84639709D02*
X126565262Y-84664379D01*
X167252935Y-85147580D02*
X167238594Y-85167737D01*
X129989217Y-85392771D02*
X129969240Y-85378180D01*
X187652284Y-20043059D02*
X187557090Y-20019214D01*
X147500000Y-46526000D02*
X130569000Y-46526000D01*
X126513780Y-65379703D02*
X126505385Y-65402973D01*
X170443884Y-45686011D02*
X170440228Y-45661545D01*
X166770456Y-44585378D02*
X166793619Y-44594062D01*
X148896854Y-73232881D02*
X148874028Y-73242417D01*
X129776239Y-46135533D02*
X129761405Y-46115737D01*
X129751415Y-103528191D02*
X129765792Y-103508300D01*
X171406264Y-83578305D02*
X171431000Y-83578000D01*
X147788567Y-57086245D02*
X147805890Y-57069130D01*
X167363992Y-103744104D02*
X167372544Y-103767110D01*
X129576520Y-26122410D02*
X129573815Y-26098017D01*
X108917610Y-27316009D02*
X108883101Y-27354205D01*
X147879190Y-57005038D02*
X147898464Y-56990154D01*
X167292905Y-85085068D02*
X167280099Y-85106233D01*
X148438290Y-92839094D02*
X148413620Y-92837262D01*
X129719900Y-44997766D02*
X129733226Y-44976925D01*
X130445622Y-46518359D02*
X130421113Y-46515004D01*
X147671136Y-92400451D02*
X147657551Y-92379777D01*
X129602521Y-84834748D02*
X129596466Y-84810763D01*
X148291364Y-37285006D02*
X148315619Y-37280145D01*
X135943000Y-43510000D02*
X132895000Y-43510000D01*
X125977266Y-44613137D02*
X125999722Y-44623515D01*
X167411785Y-103908909D02*
X167416277Y-103933038D01*
X167328131Y-84136235D02*
X167338784Y-84158562D01*
X170556815Y-84092406D02*
X170569094Y-84070931D01*
X166603305Y-46511043D02*
X166578886Y-46515004D01*
X148154098Y-53727270D02*
X148131354Y-53718570D01*
X149422682Y-72700560D02*
X149412862Y-72723266D01*
X170609064Y-46095580D02*
X170595226Y-46075074D01*
X148058235Y-76417868D02*
X148080562Y-76407215D01*
X132514000Y-100564000D02*
X136324000Y-100564000D01*
X126314382Y-64385362D02*
X126330644Y-64404004D01*
X188356787Y-63138787D02*
X188360695Y-63087459D01*
X149422682Y-37877439D02*
X149431937Y-37900380D01*
X130324130Y-44556443D02*
X130348188Y-44550683D01*
X126326208Y-26653172D02*
X126309951Y-26671558D01*
X166723520Y-46482259D02*
X166699777Y-46489202D01*
X126559771Y-45661545D02*
X126556115Y-45686011D01*
X167106877Y-85315014D02*
X167088439Y-85331507D01*
X125908456Y-44585378D02*
X125931619Y-44594062D01*
X132895000Y-47542000D02*
X132895000Y-47542000D01*
X129596466Y-64819236D02*
X129602521Y-64795251D01*
X166603305Y-83592956D02*
X166627618Y-83597519D01*
X148941764Y-95943868D02*
X148963820Y-95955070D01*
X148339988Y-95853884D02*
X148364454Y-95850228D01*
X170638239Y-65661533D02*
X170623405Y-65641737D01*
X129581884Y-84738011D02*
X129578228Y-84713545D01*
X170892222Y-65894448D02*
X170871548Y-65880863D01*
X149314771Y-33842782D02*
X149300180Y-33862759D01*
X126462224Y-26449611D02*
X126450921Y-26471396D01*
X149109533Y-76522239D02*
X149128957Y-76537559D01*
X148103145Y-37345118D02*
X148125971Y-37335582D01*
X149220070Y-76621098D02*
X149237014Y-76639122D01*
X148585224Y-56792638D02*
X148609459Y-56795008D01*
X109003606Y-20226989D02*
X108930893Y-20292893D01*
X130229543Y-83637378D02*
X130252914Y-83629269D01*
X149028233Y-73164099D02*
X149007068Y-73176905D01*
X148108829Y-56868681D02*
X148131354Y-56859429D01*
X147608445Y-37810085D02*
X147619921Y-37788171D01*
X109602540Y-85579304D02*
X109551212Y-85583212D01*
X129683070Y-45062179D02*
X129694815Y-45040406D01*
X126567094Y-64990290D02*
X126568315Y-65014998D01*
X166601961Y-103118722D02*
X166626090Y-103123214D01*
X181097600Y-29540000D02*
X177287600Y-29540000D01*
X125667792Y-64056891D02*
X125692377Y-64059640D01*
X170934546Y-46394063D02*
X170913226Y-46381517D01*
X171117318Y-103154471D02*
X171140715Y-103147059D01*
X147871042Y-73092440D02*
X147852004Y-73076644D01*
X129578228Y-45661545D02*
X129575179Y-45636996D01*
X126568315Y-84540998D02*
X126568924Y-84565728D01*
X188362000Y-105104000D02*
X170424863Y-105104000D01*
X171114914Y-44577269D02*
X171138479Y-44569740D01*
X170431000Y-104104000D02*
X170431301Y-104079458D01*
X177694000Y-102088000D02*
X177313000Y-100564000D01*
X119306000Y-67068000D02*
X119687000Y-68592000D01*
X126466131Y-45967764D02*
X126454929Y-45989820D01*
X167375780Y-45198296D02*
X167383597Y-45221766D01*
X170669355Y-46173995D02*
X170653559Y-46154957D01*
X166883914Y-85469554D02*
X166861722Y-85480484D01*
X148389003Y-92834820D02*
X148364454Y-92831771D01*
X130009548Y-65880863D02*
X129989217Y-65866771D01*
X130252914Y-66000730D02*
X130229543Y-65992621D01*
X147510995Y-38115113D02*
X147514956Y-38090694D01*
X166578886Y-85567004D02*
X166554377Y-85570359D01*
X149492359Y-77191622D02*
X149495108Y-77216207D01*
X147938068Y-56961815D02*
X147958377Y-56948378D01*
X126148782Y-64237228D02*
X126168759Y-64251819D01*
X147543740Y-37970479D02*
X147551269Y-37946914D01*
X126107777Y-65894448D02*
X126086773Y-65907517D01*
X149228333Y-53474223D02*
X149211432Y-53491754D01*
X166651811Y-85553316D02*
X166627618Y-85558480D01*
X125642564Y-26997290D02*
X125618067Y-26998795D01*
X109032100Y-27212571D02*
X108992205Y-27245101D01*
X129949630Y-83792900D02*
X129969240Y-83777819D01*
X167345209Y-26405241D02*
X167334989Y-26427555D01*
X126521597Y-84882233D02*
X126513780Y-84905703D01*
X148103145Y-76397118D02*
X148125971Y-76387582D01*
X129969240Y-83777819D02*
X129989217Y-83763228D01*
X148536615Y-53788329D02*
X148512271Y-53788924D01*
X147685228Y-33842782D02*
X147671136Y-33822451D01*
X130396694Y-44540956D02*
X130421113Y-44536995D01*
X148660011Y-37275884D02*
X148684380Y-37280145D01*
X108643212Y-27913212D02*
X108639304Y-27964540D01*
X108657214Y-20804909D02*
X108642815Y-20901982D01*
X170445722Y-26170961D02*
X170441823Y-26146730D01*
X170702335Y-64367129D02*
X170719499Y-64349314D01*
X147657551Y-33801777D02*
X147644482Y-33780773D01*
X167430924Y-84565728D02*
X167431074Y-84577925D01*
X126309951Y-26671558D02*
X126293247Y-26689540D01*
X148462998Y-37263684D02*
X148487728Y-37263075D01*
X126510544Y-26336889D02*
X126501992Y-26359895D01*
X188007794Y-63806898D02*
X188045990Y-63772389D01*
X149442445Y-53123361D02*
X149434024Y-53146210D01*
X167358417Y-65426028D02*
X167348881Y-65448854D01*
X147504891Y-77216207D02*
X147507640Y-77191622D01*
X148935511Y-53689182D02*
X148913463Y-53699520D01*
X160676000Y-29540000D02*
X160676000Y-29540000D01*
X149355517Y-92358773D02*
X149342448Y-92379777D01*
X167437136Y-105104000D02*
X129562863Y-105104000D01*
X167375780Y-65379703D02*
X167367385Y-65402973D01*
X148315619Y-37280145D02*
X148339988Y-37275884D01*
X129857499Y-64349314D02*
X129875098Y-64331929D01*
X171332207Y-83582891D02*
X171356852Y-83580752D01*
X166990451Y-83749136D02*
X167010782Y-83763228D01*
X130519932Y-26998795D02*
X130495435Y-26997290D01*
X149109533Y-92633760D02*
X149089737Y-92648594D01*
X187397459Y-83576695D02*
X187448787Y-83572787D01*
X148850973Y-34199385D02*
X148827703Y-34207780D01*
X170523215Y-84158562D02*
X170533868Y-84136235D01*
X170460968Y-103861019D02*
X170467223Y-103837287D01*
X148799811Y-53742998D02*
X148776493Y-53750015D01*
X147746492Y-96183560D02*
X147762985Y-96165122D01*
X148080562Y-73222784D02*
X148058235Y-73212131D01*
X167248584Y-26575808D02*
X167234207Y-26595699D01*
X171307622Y-83585640D02*
X171332207Y-83582891D01*
X149485043Y-72487305D02*
X149480480Y-72511618D01*
X171091543Y-64111378D02*
X171114914Y-64103269D01*
X149500000Y-83578000D02*
X166431000Y-83578000D01*
X148200188Y-56835001D02*
X148223506Y-56827984D01*
X119687000Y-88118000D02*
X115877000Y-88118000D01*
X148125971Y-95913582D02*
X148149026Y-95904614D01*
X129671868Y-85019764D02*
X129661215Y-84997437D01*
X148512271Y-95841075D02*
X148537001Y-95841684D01*
X147536797Y-37994222D02*
X147543740Y-37970479D01*
X108638000Y-82562000D02*
X109654000Y-83578000D01*
X149269538Y-37624400D02*
X149285099Y-37643630D01*
X148681720Y-56805649D02*
X148705610Y-56810366D01*
X167142500Y-85280685D02*
X167124901Y-85298070D01*
X130372381Y-83597519D02*
X130396694Y-83592956D01*
X166431000Y-46526000D02*
X149500000Y-46526000D01*
X126262901Y-65772070D02*
X126244877Y-65789014D01*
X149061931Y-53616184D02*
X149041622Y-53629621D01*
X147559378Y-96501543D02*
X147568062Y-96478380D01*
X149480480Y-92037618D02*
X149475316Y-92061811D01*
X147500000Y-77315000D02*
X147500305Y-77290264D01*
X149489004Y-38115113D02*
X149492359Y-38139622D01*
X171022733Y-44613137D02*
X171045439Y-44603317D01*
X147535663Y-57524320D02*
X147542394Y-57500917D01*
X170599530Y-26555570D02*
X170586146Y-26534997D01*
X130349898Y-26975702D02*
X130326019Y-26970031D01*
X188362000Y-63036000D02*
X188362000Y-47542000D01*
X125811980Y-26970031D02*
X125788101Y-26975702D01*
X129949630Y-44740900D02*
X129969240Y-44725819D01*
X149463202Y-92109777D02*
X149456259Y-92133520D01*
X171162222Y-83614797D02*
X171186130Y-83608443D01*
X125885085Y-64103269D02*
X125908456Y-64111378D01*
X108643212Y-47439212D02*
X108639304Y-47490540D01*
X109032100Y-85790571D02*
X108992205Y-85823101D01*
X148896854Y-76397118D02*
X148919437Y-76407215D01*
X125667792Y-66047108D02*
X125643147Y-66049247D01*
X166627618Y-46506480D02*
X166603305Y-46511043D01*
X167208440Y-83949042D02*
X167223760Y-83968466D01*
X170432905Y-84516290D02*
X170434737Y-84491620D01*
X167403533Y-45758763D02*
X167397478Y-45782748D01*
X129624219Y-65379703D02*
X129616402Y-65356233D01*
X187967899Y-83365428D02*
X188007794Y-83332898D01*
X149368063Y-72811453D02*
X149355517Y-72832773D01*
X126346440Y-44897042D02*
X126361760Y-44916466D01*
X147504891Y-96742207D02*
X147507640Y-96717622D01*
X167050369Y-85363099D02*
X167030759Y-85378180D01*
X147918093Y-56975743D02*
X147938068Y-56961815D01*
X126562820Y-65162996D02*
X126559771Y-65187545D01*
X126203393Y-26773010D02*
X126184231Y-26788346D01*
X130324130Y-83608443D02*
X130348188Y-83602683D01*
X170609064Y-44956419D02*
X170623405Y-44936262D01*
X126314382Y-65718637D02*
X126297664Y-65736870D01*
X148586379Y-92837262D02*
X148561709Y-92839094D01*
X166948773Y-85433517D02*
X166927453Y-85446063D01*
X126086773Y-46381517D02*
X126065453Y-46394063D01*
X148131354Y-56859429D02*
X148154098Y-56850729D01*
X130013429Y-26831469D02*
X129993191Y-26817584D01*
X126505385Y-64701026D02*
X126513780Y-64724296D01*
X177694000Y-63036000D02*
X177313000Y-61512000D01*
X170486219Y-45198296D02*
X170494614Y-45175026D01*
X109116572Y-85731777D02*
X109073591Y-85760104D01*
X147797314Y-76603499D02*
X147815129Y-76586335D01*
X129840335Y-46210870D02*
X129823617Y-46192637D01*
X147762985Y-96165122D02*
X147779929Y-96147098D01*
X147500305Y-33287735D02*
X147500000Y-33263000D01*
X129641582Y-45900028D02*
X129632614Y-45876973D01*
X167102558Y-103363048D02*
X167120540Y-103379752D01*
X125928895Y-103171007D02*
X125951683Y-103180120D01*
X129671868Y-65493764D02*
X129661215Y-65471437D01*
X148086536Y-53699520D02*
X148064488Y-53689182D01*
X170792400Y-85347538D02*
X170773560Y-85331507D01*
X149049074Y-92676773D02*
X149028233Y-92690099D01*
X108639304Y-27964540D02*
X108638000Y-28016000D01*
X129570905Y-64990290D02*
X129572737Y-64965620D01*
X148500000Y-53795136D02*
X148499925Y-53789074D01*
X129619471Y-103790318D02*
X129627455Y-103767110D01*
X147524683Y-33483811D02*
X147519519Y-33459618D01*
X171117318Y-26949528D02*
X171094110Y-26941544D01*
X167171951Y-103432441D02*
X167188208Y-103450827D01*
X126280500Y-83875314D02*
X126297664Y-83893129D01*
X149041622Y-56948378D02*
X149061931Y-56961815D01*
X149448730Y-33579085D02*
X149440621Y-33602456D01*
X148036179Y-92726929D02*
X148014406Y-92715184D01*
X170913226Y-44670482D02*
X170934546Y-44657936D01*
X170443884Y-84417988D02*
X170448145Y-84393619D01*
X126018611Y-103210775D02*
X126040396Y-103222078D01*
X167065393Y-103330989D02*
X167084172Y-103346791D01*
X166902396Y-26881921D02*
X166880611Y-26893224D01*
X171210188Y-46501316D02*
X171186130Y-46495556D01*
X149391554Y-76862085D02*
X149402484Y-76884277D01*
X149500000Y-91841000D02*
X149499694Y-91865735D01*
X171000277Y-85480484D02*
X170978085Y-85469554D01*
X167429094Y-64990290D02*
X167430315Y-65014998D01*
X125765618Y-66032480D02*
X125741305Y-66037043D01*
X149394856Y-57342645D02*
X149405459Y-57364567D01*
X147500305Y-96816264D02*
X147501223Y-96791543D01*
X129973300Y-103300792D02*
X129993191Y-103286415D01*
X171045439Y-46448682D02*
X171022733Y-46438862D01*
X147500000Y-66052000D02*
X130569000Y-66052000D01*
X147502752Y-96766852D02*
X147504891Y-96742207D01*
X148586379Y-95844737D02*
X148610996Y-95847179D01*
X148776493Y-53750015D02*
X148753011Y-53756463D01*
X130119388Y-103210775D02*
X130141444Y-103200010D01*
X147530443Y-38018130D02*
X147536797Y-37994222D01*
X167430315Y-65014998D02*
X167430924Y-65039728D01*
X109160933Y-85705663D02*
X109116572Y-85731777D01*
X166504564Y-103106709D02*
X166529017Y-103108815D01*
X108992205Y-27245101D02*
X108954009Y-27279610D01*
X170892222Y-64209551D02*
X170913226Y-64196482D01*
X129632614Y-64701026D02*
X129641582Y-64677971D01*
X171022733Y-65964862D02*
X171000277Y-65954484D01*
X126551854Y-45710380D02*
X126546993Y-45734635D01*
X108765663Y-86100933D02*
X108741830Y-86146559D01*
X166905828Y-64171921D02*
X166927453Y-64183936D01*
X148058235Y-34160131D02*
X148036179Y-34148929D01*
X171332207Y-85573108D02*
X171307622Y-85570359D01*
X167138106Y-103396893D02*
X167155247Y-103414459D01*
X167421771Y-45661545D02*
X167418115Y-45686011D01*
X125999722Y-83675515D02*
X126021914Y-83686445D01*
X147501185Y-57740315D02*
X147502667Y-57716009D01*
X149109533Y-96048239D02*
X149128957Y-96063559D01*
X171186130Y-66021556D02*
X171162222Y-66015202D01*
X126541533Y-45758763D02*
X126535478Y-45782748D01*
X170892222Y-83735551D02*
X170913226Y-83722482D01*
X147577317Y-37877439D02*
X147587137Y-37854733D01*
X148827703Y-76370219D02*
X148850973Y-76378614D01*
X170437179Y-84688996D02*
X170434737Y-84664379D01*
X166861722Y-83675515D02*
X166883914Y-83686445D01*
X148243251Y-73281478D02*
X148219423Y-73274831D01*
X171332207Y-64056891D02*
X171356852Y-64054752D01*
X167403533Y-64819236D02*
X167408993Y-64843364D01*
X148499925Y-53789074D02*
X148487728Y-53788924D01*
X147657551Y-76776222D02*
X147671136Y-76755548D01*
X187499850Y-64040283D02*
X187550519Y-64031202D01*
X167401031Y-26242980D02*
X167394776Y-26266712D01*
X167418115Y-84738011D02*
X167413854Y-84762380D01*
X147950925Y-76479226D02*
X147971766Y-76465900D01*
X147502752Y-72389147D02*
X147501223Y-72364456D01*
X167006808Y-103286415D02*
X167026699Y-103300792D01*
X125593735Y-64052305D02*
X125618456Y-64053223D01*
X148195766Y-92793597D02*
X148172296Y-92785780D01*
X167030759Y-65852180D02*
X167010782Y-65866771D01*
X129569000Y-26000000D02*
X129569000Y-25006136D01*
X148537001Y-34262315D02*
X148512271Y-34262924D01*
X130300222Y-64088797D02*
X130324130Y-64082443D01*
X160676000Y-49066000D02*
X161057000Y-47542000D01*
X126575136Y-65052000D02*
X126569074Y-65052074D01*
X108681059Y-20709715D02*
X108657214Y-20804909D01*
X129641582Y-45151971D02*
X129651118Y-45129145D01*
X170627792Y-26595699D02*
X170613415Y-26575808D01*
X109442909Y-110084785D02*
X109539982Y-110099184D01*
X167266773Y-44976925D02*
X167280099Y-44997766D01*
X188315405Y-82866152D02*
X188329566Y-82816662D01*
X125716886Y-83588995D02*
X125741305Y-83592956D01*
X171114914Y-46474730D02*
X171091543Y-46466621D01*
X149448730Y-37946914D02*
X149456259Y-37970479D01*
X148219423Y-76355168D02*
X148243251Y-76348521D01*
X170723893Y-26707106D02*
X170706752Y-26689540D01*
X149498776Y-77265543D02*
X149499694Y-77290264D01*
X171068380Y-64120062D02*
X171091543Y-64111378D01*
X108992205Y-85823101D02*
X108954009Y-85857610D01*
X187650152Y-44479405D02*
X187698862Y-44462756D01*
X129609168Y-45806576D02*
X129602521Y-45782748D01*
X170669355Y-44878004D02*
X170685617Y-44859362D01*
X170811630Y-83792900D02*
X170831240Y-83777819D01*
X148708635Y-73292993D02*
X148684380Y-73297854D01*
X188360695Y-102139459D02*
X188362000Y-102088000D01*
X129671868Y-45967764D02*
X129661215Y-45945437D01*
X149412862Y-92249266D02*
X149402484Y-92271722D01*
X125739961Y-26985277D02*
X125715730Y-26989176D01*
X129616402Y-84273766D02*
X129624219Y-84250296D01*
X129616402Y-64747766D02*
X129624219Y-64724296D01*
X167424820Y-64941003D02*
X167427262Y-64965620D01*
X149109533Y-37470239D02*
X149128957Y-37485559D01*
X149069580Y-73136935D02*
X149049074Y-73150773D01*
X109654000Y-44526000D02*
X125569000Y-44526000D01*
X170673791Y-103450827D02*
X170690048Y-103432441D01*
X188135010Y-109738393D02*
X188193469Y-109659570D01*
X148684380Y-95858145D02*
X148708635Y-95863006D01*
X126476784Y-64632562D02*
X126486881Y-64655145D01*
X126390935Y-64482419D02*
X126404773Y-64502925D01*
X167106877Y-65789014D02*
X167088439Y-65805507D01*
X167408993Y-45734635D02*
X167403533Y-45758763D01*
X149147995Y-73076644D02*
X149128957Y-73092440D01*
X166858555Y-103200010D02*
X166880611Y-103210775D01*
X167142500Y-64349314D02*
X167159664Y-64367129D01*
X126061898Y-103233913D02*
X126083102Y-103246271D01*
X167437136Y-84578000D02*
X167431074Y-84578074D01*
X149028233Y-76465900D02*
X149049074Y-76479226D01*
X149402484Y-37832277D02*
X149412862Y-37854733D01*
X129641582Y-84952028D02*
X129632614Y-84928973D01*
X126565262Y-64965620D02*
X126567094Y-64990290D01*
X126496417Y-65426028D02*
X126486881Y-65448854D01*
X126551854Y-65236380D02*
X126546993Y-65260635D01*
X149220070Y-96147098D02*
X149237014Y-96165122D01*
X129875098Y-64331929D02*
X129893122Y-64314985D01*
X171356852Y-83580752D02*
X171381543Y-83579223D01*
X147950925Y-34098773D02*
X147930419Y-34084935D01*
X167418115Y-64891988D02*
X167421771Y-64916454D01*
X129694815Y-84092406D02*
X129707094Y-84070931D01*
X167387940Y-26290284D02*
X167380528Y-26313681D01*
X148149026Y-37326614D02*
X148172296Y-37318219D01*
X167312921Y-103632603D02*
X167324224Y-103654388D01*
X148561709Y-95842905D02*
X148586379Y-95844737D01*
X147644482Y-37745226D02*
X147657551Y-37724222D01*
X129612059Y-103813715D02*
X129619471Y-103790318D01*
X170494614Y-65402973D02*
X170486219Y-65379703D01*
X147530443Y-96596130D02*
X147536797Y-96572222D01*
X130030222Y-64209551D02*
X130051226Y-64196482D01*
X119306000Y-28016000D02*
X119687000Y-29540000D01*
X108930893Y-20292893D02*
X108864989Y-20365606D01*
X126568315Y-84615001D02*
X126567094Y-84639709D01*
X126107777Y-85420448D02*
X126086773Y-85433517D01*
X126148782Y-44711228D02*
X126168759Y-44725819D01*
X167120540Y-26724247D02*
X167102558Y-26740951D01*
X148291364Y-95863006D02*
X148315619Y-95858145D01*
X187839066Y-44398336D02*
X187883427Y-44372222D01*
X171068380Y-65983937D02*
X171045439Y-65974682D01*
X177287600Y-88118000D02*
X177668600Y-86594000D01*
X116258000Y-47542000D02*
X119306000Y-47542000D01*
X170424863Y-84578000D02*
X170430925Y-84577925D01*
X148919437Y-37355215D02*
X148941764Y-37365868D01*
X149342448Y-72853777D02*
X149328863Y-72874451D01*
X148822952Y-53735415D02*
X148799811Y-53742998D01*
X166675869Y-83608443D02*
X166699777Y-83614797D01*
X126567094Y-45464290D02*
X126568315Y-45488998D01*
X125954560Y-44603317D02*
X125977266Y-44613137D01*
X167171951Y-26671558D02*
X167155247Y-26689540D01*
X167367385Y-64701026D02*
X167375780Y-64724296D01*
X166578886Y-83588995D02*
X166603305Y-83592956D01*
X130470982Y-103108815D02*
X130495435Y-103106709D01*
X167176382Y-64385362D02*
X167192644Y-64404004D01*
X166603305Y-85563043D02*
X166578886Y-85567004D01*
X166923898Y-103233913D02*
X166945102Y-103246271D01*
X167238594Y-46115737D02*
X167223760Y-46135533D01*
X108684594Y-66763847D02*
X108670433Y-66813337D01*
X170471168Y-65332576D02*
X170464521Y-65308748D01*
X170560913Y-103611101D02*
X170573271Y-103589897D01*
X130072546Y-85446063D02*
X130051226Y-85433517D01*
X147871042Y-37485559D02*
X147890466Y-37470239D01*
X147979006Y-56935439D02*
X147999944Y-56923006D01*
X149380078Y-76840171D02*
X149391554Y-76862085D01*
X148561709Y-34261094D02*
X148537001Y-34262315D01*
X181097600Y-29540000D02*
X181097600Y-29540000D01*
X170431684Y-45488998D02*
X170432905Y-45464290D01*
X129619471Y-26313681D02*
X129612059Y-26290284D01*
X148195766Y-95888402D02*
X148219423Y-95881168D01*
X126501992Y-103744104D02*
X126510544Y-103767110D01*
X126222172Y-26757208D02*
X126203393Y-26773010D01*
X129570905Y-65113709D02*
X129569684Y-65089001D01*
X170777827Y-26757208D02*
X170759441Y-26740951D01*
X166948773Y-44670482D02*
X166969777Y-44683551D01*
X166948773Y-65907517D02*
X166927453Y-65920063D01*
X188116898Y-44171794D02*
X188149428Y-44131899D01*
X170956171Y-65932078D02*
X170934546Y-65920063D01*
X166902396Y-103222078D02*
X166923898Y-103233913D01*
X149291521Y-53400141D02*
X149276405Y-53419233D01*
X170755122Y-83840985D02*
X170773560Y-83824492D01*
X170981388Y-103210775D02*
X171003444Y-103200010D01*
X129569684Y-84540998D02*
X129570905Y-84516290D01*
X130138277Y-46428484D02*
X130116085Y-46417554D01*
X149269538Y-92479599D02*
X149253507Y-92498439D01*
X167421771Y-64916454D02*
X167424820Y-64941003D01*
X148941764Y-37365868D02*
X148963820Y-37377070D01*
X166861722Y-65954484D02*
X166839266Y-65964862D01*
X147779929Y-33956901D02*
X147762985Y-33938877D01*
X171068380Y-44594062D02*
X171091543Y-44585378D01*
X130470207Y-83582891D02*
X130494852Y-83580752D01*
X109160933Y-27127663D02*
X109116572Y-27153777D01*
X148850973Y-37326614D02*
X148874028Y-37335582D01*
X125954560Y-65974682D02*
X125931619Y-65983937D01*
X147543740Y-33555520D02*
X147536797Y-33531777D01*
X129568925Y-45525925D02*
X129569075Y-45513728D01*
X171258694Y-46511043D02*
X171234381Y-46506480D01*
X167431000Y-105097863D02*
X167431074Y-105103925D01*
X188179895Y-83142408D02*
X188208222Y-83099427D01*
X115877000Y-88118000D02*
X116258000Y-86594000D01*
X147755198Y-57121714D02*
X147771666Y-57103776D01*
X170545070Y-64588179D02*
X170556815Y-64566406D01*
X108791777Y-66530572D02*
X108765663Y-66574933D01*
X126544702Y-26219101D02*
X126539031Y-26242980D01*
X170913226Y-85433517D02*
X170892222Y-85420448D01*
X167316929Y-84114179D02*
X167328131Y-84136235D01*
X108917610Y-85894009D02*
X108883101Y-85932205D01*
X166927453Y-85446063D02*
X166905828Y-85458078D01*
X108791777Y-27478572D02*
X108765663Y-27522933D01*
X129719900Y-64523766D02*
X129733226Y-64502925D01*
X108720338Y-66667334D02*
X108701243Y-66715137D01*
X129973300Y-26803207D02*
X129953768Y-26788346D01*
X129562863Y-45526000D02*
X129568925Y-45525925D01*
X171332982Y-103108815D02*
X171357435Y-103106709D01*
X171025758Y-103189790D02*
X171048316Y-103180120D01*
X130494852Y-44528752D02*
X130519543Y-44527223D01*
X170560913Y-26492898D02*
X170549078Y-26471396D01*
X130300222Y-83614797D02*
X130324130Y-83608443D01*
X167010782Y-83763228D02*
X167030759Y-83777819D01*
X171406264Y-64052305D02*
X171431000Y-64052000D01*
X149448730Y-92157085D02*
X149440621Y-92180456D01*
X129636007Y-26359895D02*
X129627455Y-26336889D01*
X126569074Y-45525925D02*
X126575136Y-45526000D01*
X125715730Y-26989176D02*
X125691410Y-26992479D01*
X187362000Y-110104000D02*
X187460017Y-110099184D01*
X126188369Y-83792900D02*
X126207599Y-83808461D01*
X147699819Y-76715240D02*
X147714900Y-76695630D01*
X170450214Y-103908909D02*
X170455297Y-103884898D01*
X147514956Y-72487305D02*
X147510995Y-72462886D01*
X167010782Y-64237228D02*
X167030759Y-64251819D01*
X170503582Y-84952028D02*
X170494614Y-84928973D01*
X129930400Y-65821538D02*
X129911560Y-65805507D01*
X167102558Y-26740951D02*
X167084172Y-26757208D01*
X126562820Y-45636996D02*
X126559771Y-45661545D01*
X170755122Y-85315014D02*
X170737098Y-85298070D01*
X167088439Y-65805507D02*
X167069599Y-65821538D01*
X108658797Y-47337480D02*
X108649716Y-47388149D01*
X147950925Y-92676773D02*
X147930419Y-92662935D01*
X147519519Y-38066381D02*
X147524683Y-38042188D01*
X147797314Y-92552500D02*
X147779929Y-92534901D01*
X170432204Y-26049067D02*
X170431301Y-26024541D01*
X187550519Y-44505202D02*
X187600662Y-44493566D01*
X170719499Y-46228685D02*
X170702335Y-46210870D01*
X148978820Y-56911087D02*
X149000055Y-56923006D01*
X187557090Y-110084785D02*
X187652284Y-110060940D01*
X149456259Y-33555520D02*
X149448730Y-33579085D01*
X171186130Y-44556443D02*
X171210188Y-44550683D01*
X170835300Y-26803207D02*
X170815768Y-26788346D01*
X167219346Y-26615231D02*
X167204010Y-26634393D01*
X148413620Y-76318737D02*
X148438290Y-76316905D01*
X125739961Y-103118722D02*
X125764090Y-103123214D01*
X170855191Y-26817584D02*
X170835300Y-26803207D01*
X166529792Y-64056891D02*
X166554377Y-64059640D01*
X126426728Y-103589897D02*
X126439086Y-103611101D01*
X147890466Y-76522239D02*
X147910262Y-76507405D01*
X129683070Y-84114179D02*
X129694815Y-84092406D01*
X129989217Y-65866771D02*
X129969240Y-65852180D01*
X129591006Y-45734635D02*
X129586145Y-45710380D01*
X129707094Y-64544931D02*
X129719900Y-64523766D01*
X147797314Y-33974500D02*
X147779929Y-33956901D01*
X148963820Y-76429070D02*
X148985593Y-76440815D01*
X167390831Y-45806576D02*
X167383597Y-45830233D01*
X166905828Y-83697921D02*
X166927453Y-83709936D01*
X170443884Y-84738011D02*
X170440228Y-84713545D01*
X147597515Y-33693722D02*
X147587137Y-33671266D01*
X148366369Y-53780031D02*
X148342277Y-53776483D01*
X126065453Y-44657936D02*
X126086773Y-44670482D01*
X170523215Y-45945437D02*
X170513118Y-45922854D01*
X164486000Y-88118000D02*
X160676000Y-88118000D01*
X148195766Y-37310402D02*
X148219423Y-37303168D01*
X148732763Y-37290466D02*
X148756748Y-37296521D01*
X170440228Y-45390454D02*
X170443884Y-45365988D01*
X170432204Y-104054932D02*
X170433709Y-104030435D01*
X171431000Y-103104000D02*
X187346000Y-103104000D01*
X170478402Y-45830233D02*
X170471168Y-45806576D01*
X148021179Y-56911087D02*
X148042698Y-56899688D01*
X149228333Y-57103776D02*
X149244801Y-57121714D01*
X170458466Y-45758763D02*
X170453006Y-45734635D01*
X171162222Y-64088797D02*
X171186130Y-64082443D01*
X171431000Y-27000000D02*
X171406458Y-26999698D01*
X147510995Y-72462886D02*
X147507640Y-72438377D01*
X125692377Y-85570359D02*
X125667792Y-85573108D01*
X129791559Y-65680957D02*
X129776239Y-65661533D01*
X166986570Y-103272530D02*
X167006808Y-103286415D01*
X126546993Y-65260635D02*
X126541533Y-65284763D01*
X170934546Y-64183936D02*
X170956171Y-64171921D01*
X148149026Y-76378614D02*
X148172296Y-76370219D01*
X170533868Y-84136235D02*
X170545070Y-84114179D01*
X148874028Y-34190417D02*
X148850973Y-34199385D01*
X129627455Y-26336889D02*
X129619471Y-26313681D01*
X166861722Y-44623515D02*
X166883914Y-44634445D01*
X130116085Y-46417554D02*
X130094171Y-46406078D01*
X147514493Y-52958639D02*
X147510655Y-52934592D01*
X125789811Y-85553316D02*
X125765618Y-85558480D01*
X171022733Y-83665137D02*
X171045439Y-83655317D01*
X148364454Y-76324228D02*
X148389003Y-76321179D01*
X130373909Y-26980785D02*
X130349898Y-26975702D01*
X167248584Y-103528191D02*
X167262469Y-103548429D01*
X166603305Y-64066956D02*
X166627618Y-64071519D01*
X129761405Y-46115737D02*
X129747064Y-46095580D01*
X108684594Y-86289847D02*
X108670433Y-86339337D01*
X135943000Y-67068000D02*
X135943000Y-67068000D01*
X167069599Y-64282461D02*
X167088439Y-64298492D01*
X125692377Y-83585640D02*
X125716886Y-83588995D01*
X129969240Y-44725819D02*
X129989217Y-44711228D01*
X170448145Y-65236380D02*
X170443884Y-65212011D01*
X129694815Y-85063593D02*
X129683070Y-85041820D01*
X170638239Y-85187533D02*
X170623405Y-85167737D01*
X126297664Y-46210870D02*
X126280500Y-46228685D01*
X167124901Y-83857929D02*
X167142500Y-83875314D01*
X126086773Y-65907517D02*
X126065453Y-65920063D01*
X171283113Y-64062995D02*
X171307622Y-64059640D01*
X130160733Y-85490862D02*
X130138277Y-85480484D01*
X148315619Y-73297854D02*
X148291364Y-73292993D01*
X147543740Y-92133520D02*
X147536797Y-92109777D01*
X108820104Y-46961591D02*
X108791777Y-47004572D01*
X188362000Y-102088000D02*
X188362000Y-86594000D01*
X187448787Y-44520787D02*
X187499850Y-44514283D01*
X129791559Y-83949042D02*
X129807355Y-83930004D01*
X147958377Y-56948378D02*
X147979006Y-56935439D01*
X148294389Y-53767633D02*
X148270621Y-53762337D01*
X148042698Y-56899688D02*
X148064488Y-56888817D01*
X147815129Y-96112335D02*
X147833362Y-96095617D01*
X188258169Y-83009440D02*
X188279661Y-82962665D01*
X126413853Y-26534997D02*
X126400469Y-26555570D01*
X149128957Y-96063559D02*
X149147995Y-96079355D01*
X167316929Y-85041820D02*
X167305184Y-85063593D01*
X129575179Y-65162996D02*
X129572737Y-65138379D01*
X129654790Y-103698758D02*
X129665010Y-103676444D01*
X130276479Y-44569740D02*
X130300222Y-44562797D01*
X188149428Y-102709899D02*
X188179895Y-102668408D01*
X171260038Y-26985277D02*
X171235909Y-26980785D01*
X164105000Y-86594000D02*
X164486000Y-88118000D01*
X129707094Y-85085068D02*
X129694815Y-85063593D01*
X148413620Y-37266737D02*
X148438290Y-37264905D01*
X148195766Y-34215597D02*
X148172296Y-34207780D01*
X129572737Y-84491620D02*
X129575179Y-84467003D01*
X166858555Y-26903989D02*
X166836241Y-26914209D01*
X109449480Y-66072797D02*
X109399337Y-66084433D01*
X149450307Y-53100313D02*
X149442445Y-53123361D01*
X132895000Y-102088000D02*
X132514000Y-100564000D01*
X126021914Y-65943554D02*
X125999722Y-65954484D01*
X126426728Y-26514102D02*
X126413853Y-26534997D01*
X167421771Y-84713545D02*
X167418115Y-84738011D01*
X147714900Y-72934369D02*
X147699819Y-72914759D01*
X125667017Y-103108815D02*
X125691410Y-103111520D01*
X148684380Y-92823854D02*
X148660011Y-92828115D01*
X148438290Y-76316905D02*
X148462998Y-76315684D01*
X166948773Y-46381517D02*
X166927453Y-46394063D01*
X164486000Y-81038000D02*
X164105000Y-82562000D01*
X149500000Y-52789000D02*
X149499703Y-52813349D01*
X126330644Y-44878004D02*
X126346440Y-44897042D01*
X149347204Y-57257733D02*
X149359889Y-57278520D01*
X130348188Y-46501316D02*
X130324130Y-46495556D01*
X125593735Y-44526305D02*
X125618456Y-44527223D01*
X170432905Y-45587709D02*
X170431684Y-45563001D01*
X147510655Y-57643407D02*
X147514493Y-57619360D01*
X170875429Y-103272530D02*
X170896002Y-103259146D01*
X167429094Y-45464290D02*
X167430315Y-45488998D01*
X148366369Y-56797968D02*
X148390540Y-56795008D01*
X149359889Y-53299479D02*
X149347204Y-53320266D01*
X126326208Y-103450827D02*
X126342010Y-103469606D01*
X147608445Y-72767914D02*
X147597515Y-72745722D01*
X170437179Y-45415003D02*
X170440228Y-45390454D01*
X170755122Y-44788985D02*
X170773560Y-44772492D01*
X149211432Y-53491754D02*
X149194109Y-53508869D01*
X166626090Y-103123214D02*
X166650101Y-103128297D01*
X108681059Y-109394284D02*
X108714120Y-109486683D01*
X171332207Y-66047108D02*
X171307622Y-66044359D01*
X126226439Y-83824492D02*
X126244877Y-83840985D01*
X167328131Y-65493764D02*
X167316929Y-65515820D01*
X177668600Y-47542000D02*
X180716600Y-47542000D01*
X148537001Y-92840315D02*
X148512271Y-92840924D01*
X148487728Y-34262924D02*
X148462998Y-34262315D01*
X147685228Y-96261217D02*
X147699819Y-96241240D01*
X149489004Y-72462886D02*
X149485043Y-72487305D01*
X171260038Y-103118722D02*
X171284269Y-103114823D01*
X148500074Y-34263074D02*
X148500000Y-34269136D01*
X148149026Y-73251385D02*
X148125971Y-73242417D01*
X170737098Y-83857929D02*
X170755122Y-83840985D01*
X126404773Y-84028925D02*
X126418099Y-84049766D01*
X126065453Y-46394063D02*
X126043828Y-46406078D01*
X126486881Y-45129145D02*
X126496417Y-45151971D01*
X170702335Y-46210870D02*
X170685617Y-46192637D01*
X167375780Y-84905703D02*
X167367385Y-84928973D01*
X147708478Y-53400141D02*
X147693832Y-53380687D01*
X147871042Y-96063559D02*
X147890466Y-96048239D01*
X149500000Y-64052000D02*
X166431000Y-64052000D01*
X130348188Y-64076683D02*
X130372381Y-64071519D01*
X188362000Y-109104000D02*
X188362000Y-105104000D01*
X148561709Y-92839094D02*
X148537001Y-92840315D01*
X126569000Y-104104000D02*
X126569000Y-105097863D01*
X170464521Y-64795251D02*
X170471168Y-64771423D01*
X130519543Y-83579223D02*
X130544264Y-83578305D01*
X108701243Y-86241137D02*
X108684594Y-86289847D01*
X147551269Y-37946914D02*
X147559378Y-37923543D01*
X130470207Y-46521108D02*
X130445622Y-46518359D01*
X129612059Y-26290284D02*
X129605223Y-26266712D01*
X187346000Y-64052000D02*
X187397459Y-64050695D01*
X130494852Y-85575247D02*
X130470207Y-85573108D01*
X188329566Y-102342662D02*
X188341202Y-102292519D01*
X170913226Y-64196482D02*
X170934546Y-64183936D01*
X129581884Y-65212011D02*
X129578228Y-65187545D01*
X147788567Y-53491754D02*
X147771666Y-53474223D01*
X129562863Y-65052000D02*
X129568925Y-65051925D01*
X167030759Y-85378180D02*
X167010782Y-85392771D01*
X130030222Y-46368448D02*
X130009548Y-46354863D01*
X148364454Y-73305771D02*
X148364454Y-73305771D01*
X129694815Y-45040406D02*
X129707094Y-45018931D01*
X126562820Y-84467003D02*
X126565262Y-84491620D01*
X130030222Y-44683551D02*
X130051226Y-44670482D01*
X166480456Y-85576776D02*
X166455735Y-85577694D01*
X170777827Y-103346791D02*
X170796606Y-103330989D01*
X148414775Y-53785361D02*
X148390540Y-53782991D01*
X148585224Y-53785361D02*
X148560937Y-53787141D01*
X149497332Y-52861990D02*
X149495259Y-52886253D01*
X129671868Y-64610235D02*
X129683070Y-64588179D01*
X147577317Y-33648560D02*
X147568062Y-33625619D01*
X170719499Y-83875314D02*
X170737098Y-83857929D01*
X171094110Y-26941544D02*
X171071104Y-26932992D01*
X167383597Y-45830233D02*
X167375780Y-45853703D01*
X167367385Y-84928973D02*
X167358417Y-84952028D01*
X170811630Y-65837099D02*
X170792400Y-65821538D01*
X187600662Y-83545566D02*
X187650152Y-83531405D01*
X130569000Y-64052000D02*
X147500000Y-64052000D01*
X170871548Y-85406863D02*
X170851217Y-85392771D01*
X166627618Y-85558480D02*
X166603305Y-85563043D01*
X109349847Y-85624594D02*
X109301137Y-85641243D01*
X130183439Y-64129317D02*
X130206380Y-64120062D01*
X109073591Y-66234104D02*
X109032100Y-66264571D01*
X170471168Y-84858576D02*
X170464521Y-84834748D01*
X129651118Y-64655145D02*
X129661215Y-64632562D01*
X147559378Y-92180456D02*
X147551269Y-92157085D01*
X125618067Y-26998795D02*
X125593541Y-26999698D01*
X167328131Y-45967764D02*
X167316929Y-45989820D01*
X187746665Y-44443661D02*
X187793440Y-44422169D01*
X149470495Y-57547880D02*
X149476078Y-57571582D01*
X126376594Y-44936262D02*
X126390935Y-44956419D01*
X129581884Y-45365988D02*
X129586145Y-45341619D01*
X147530443Y-72559869D02*
X147524683Y-72535811D01*
X167030759Y-64251819D02*
X167050369Y-64266900D01*
X149422682Y-33648560D02*
X149412862Y-33671266D01*
X130094171Y-85458078D02*
X130072546Y-85446063D01*
X129844752Y-103414459D02*
X129861893Y-103396893D01*
X129811791Y-103450827D02*
X129828048Y-103432441D01*
X125999722Y-44623515D02*
X126021914Y-44634445D01*
X171356852Y-64054752D02*
X171381543Y-64053223D01*
X164105000Y-28016000D02*
X164486000Y-29540000D01*
X147871042Y-34040440D02*
X147852004Y-34024644D01*
X170623405Y-46115737D02*
X170609064Y-46095580D01*
X166480456Y-44527223D02*
X166505147Y-44528752D01*
X126492879Y-103721316D02*
X126501992Y-103744104D01*
X109602540Y-27001304D02*
X109551212Y-27005212D01*
X126086773Y-83722482D02*
X126107777Y-83735551D01*
X147597515Y-72745722D02*
X147587137Y-72723266D01*
X148021179Y-53666912D02*
X147999944Y-53654993D01*
X149285099Y-72934369D02*
X149269538Y-72953599D01*
X147577317Y-76929439D02*
X147587137Y-76906733D01*
X148756748Y-92807478D02*
X148732763Y-92813533D01*
X148366369Y-53780031D02*
X148366369Y-53780031D01*
X147608445Y-92293914D02*
X147597515Y-92271722D01*
X126280500Y-85280685D02*
X126262901Y-85298070D01*
X170513118Y-45129145D02*
X170523215Y-45106562D01*
X170486219Y-65379703D02*
X170478402Y-65356233D01*
X135943000Y-28016000D02*
X136324000Y-29540000D01*
X129661215Y-84158562D02*
X129671868Y-84136235D01*
X149139714Y-57020387D02*
X149158239Y-57036191D01*
X187793440Y-63948169D02*
X187839066Y-63924336D01*
X135943000Y-63036000D02*
X132895000Y-63036000D01*
X148413620Y-73311262D02*
X148389003Y-73308820D01*
X126430905Y-85085068D02*
X126418099Y-85106233D01*
X170851217Y-44711228D02*
X170871548Y-44697136D01*
X177668600Y-67068000D02*
X180716600Y-67068000D01*
X149128957Y-73092440D02*
X149109533Y-73107760D01*
X129698913Y-103611101D02*
X129711271Y-103589897D01*
X187746665Y-83495661D02*
X187793440Y-83474169D01*
X170871548Y-44697136D02*
X170892222Y-44683551D01*
X130072546Y-65920063D02*
X130051226Y-65907517D01*
X170494614Y-84928973D02*
X170486219Y-84905703D01*
X149069580Y-76493064D02*
X149089737Y-76507405D01*
X136324000Y-68592000D02*
X132514000Y-68592000D01*
X147746492Y-76657560D02*
X147762985Y-76639122D01*
X119306000Y-86594000D02*
X119306000Y-86594000D01*
X171210188Y-85553316D02*
X171186130Y-85547556D01*
X149499694Y-96816264D02*
X149500000Y-96841000D01*
X126525940Y-103813715D02*
X126532776Y-103837287D01*
X188360695Y-82613459D02*
X188362000Y-82562000D01*
X167030759Y-44725819D02*
X167050369Y-44740900D01*
X148610996Y-73308820D02*
X148586379Y-73311262D01*
X188279661Y-102488665D02*
X188298756Y-102440862D01*
X147557554Y-53123361D02*
X147549692Y-53100313D01*
X166986570Y-26831469D02*
X166965997Y-26844853D01*
X149166637Y-96095617D02*
X149184870Y-96112335D01*
X126541533Y-64819236D02*
X126546993Y-64843364D01*
X166945102Y-26857728D02*
X166923898Y-26870086D01*
X148660011Y-73302115D02*
X148635545Y-73305771D01*
X126128451Y-64223136D02*
X126148782Y-64237228D01*
X149380078Y-92315828D02*
X149368063Y-92337453D01*
X149120809Y-53572961D02*
X149101535Y-53587845D01*
X170978085Y-65943554D02*
X170956171Y-65932078D01*
X126535478Y-45269251D02*
X126541533Y-45293236D01*
X109539982Y-110099184D02*
X109638000Y-110104000D01*
X167142500Y-65754685D02*
X167124901Y-65772070D01*
X188179895Y-44090408D02*
X188208222Y-44047427D01*
X130034002Y-26844853D02*
X130013429Y-26831469D01*
X129683070Y-85041820D02*
X129671868Y-85019764D01*
X148364454Y-73305771D02*
X148339988Y-73302115D01*
X129665010Y-26427555D02*
X129654790Y-26405241D01*
X148463384Y-56789670D02*
X148487728Y-56789075D01*
X126376594Y-83988262D02*
X126390935Y-84008419D01*
X188258169Y-43957440D02*
X188279661Y-43910665D01*
X126528831Y-45245423D02*
X126535478Y-45269251D01*
X125813869Y-85547556D02*
X125789811Y-85553316D01*
X167408993Y-45317364D02*
X167413854Y-45341619D01*
X167397478Y-64795251D02*
X167403533Y-64819236D01*
X129934606Y-103330989D02*
X129953768Y-103315653D01*
X149402484Y-96410277D02*
X149412862Y-96432733D01*
X115902400Y-81038000D02*
X119712400Y-81038000D01*
X147714900Y-33882369D02*
X147699819Y-33862759D01*
X167427262Y-84491620D02*
X167429094Y-84516290D01*
X188279661Y-82962665D02*
X188298756Y-82914862D01*
X109116572Y-27153777D02*
X109073591Y-27182104D01*
X149314771Y-72894782D02*
X149300180Y-72914759D01*
X167305184Y-45040406D02*
X167316929Y-45062179D01*
X148389003Y-76321179D02*
X148413620Y-76318737D01*
X177313000Y-100564000D02*
X177313000Y-100564000D01*
X149463202Y-37994222D02*
X149469556Y-38018130D01*
X188234336Y-83055066D02*
X188258169Y-83009440D01*
X166839266Y-85490862D02*
X166816560Y-85500682D01*
X125931619Y-44594062D02*
X125954560Y-44603317D01*
X164486000Y-68592000D02*
X160676000Y-68592000D01*
X129609168Y-45245423D02*
X129616402Y-45221766D01*
X126566290Y-104030435D02*
X126567795Y-104054932D01*
X148799811Y-56835001D02*
X148822952Y-56842584D01*
X147559378Y-72654456D02*
X147551269Y-72631085D01*
X126513780Y-84250296D02*
X126521597Y-84273766D01*
X147510995Y-96693113D02*
X147514956Y-96668694D01*
X148058235Y-73212131D02*
X148036179Y-73200929D01*
X129624219Y-64724296D02*
X129632614Y-64701026D01*
X125813869Y-83608443D02*
X125837777Y-83614797D01*
X147500000Y-52789000D02*
X147500000Y-46526000D01*
X149380078Y-33737828D02*
X149368063Y-33759453D01*
X130544264Y-83578305D02*
X130569000Y-83578000D01*
X126556115Y-65212011D02*
X126551854Y-65236380D01*
X147739170Y-57140047D02*
X147755198Y-57121714D01*
X170431000Y-105097863D02*
X170431000Y-104104000D01*
X170896002Y-103259146D02*
X170916897Y-103246271D01*
X149202685Y-33974500D02*
X149184870Y-33991664D01*
X130183439Y-44603317D02*
X130206380Y-44594062D01*
X149089737Y-73122594D02*
X149069580Y-73136935D01*
X147524683Y-96620188D02*
X147530443Y-96596130D01*
X149498776Y-96791543D02*
X149499694Y-96816264D01*
X167430315Y-84540998D02*
X167430924Y-84565728D01*
X166699777Y-83614797D02*
X166723520Y-83621740D01*
X129733226Y-46075074D02*
X129719900Y-46054233D01*
X129791559Y-44897042D02*
X129807355Y-44878004D01*
X148315619Y-76332145D02*
X148339988Y-76327884D01*
X188193469Y-109659570D02*
X188243921Y-109575396D01*
X147779929Y-73008901D02*
X147762985Y-72990877D01*
X125908456Y-65992621D02*
X125885085Y-66000730D01*
X129591006Y-45317364D02*
X129596466Y-45293236D01*
X130206380Y-83646062D02*
X130229543Y-83637378D01*
X188116898Y-63697794D02*
X188149428Y-63657899D01*
X147500000Y-64052000D02*
X147500000Y-57789000D01*
X108639304Y-47490540D02*
X108638000Y-47542000D01*
X160676000Y-81038000D02*
X164486000Y-81038000D01*
X130421113Y-46515004D02*
X130396694Y-46511043D01*
X148537001Y-95841684D02*
X148561709Y-95842905D01*
X126551854Y-64867619D02*
X126556115Y-64891988D01*
X164486000Y-41986000D02*
X164105000Y-43510000D01*
X126086773Y-44670482D02*
X126107777Y-44683551D01*
X170434737Y-84491620D02*
X170437179Y-84467003D01*
X148610996Y-34256820D02*
X148586379Y-34259262D01*
X129632614Y-84227026D02*
X129641582Y-84203971D01*
X129823617Y-44859362D02*
X129840335Y-44841129D01*
X170443884Y-45365988D02*
X170448145Y-45341619D01*
X148267236Y-92813533D02*
X148243251Y-92807478D01*
X167223760Y-46135533D02*
X167208440Y-46154957D01*
X149383722Y-53257011D02*
X149372064Y-53278390D01*
X149260829Y-53437952D02*
X149244801Y-53456285D01*
X126462224Y-103654388D02*
X126472989Y-103676444D01*
X170609064Y-84008419D02*
X170623405Y-83988262D01*
X136324000Y-81038000D02*
X136324000Y-81038000D01*
X130569000Y-66052000D02*
X130544264Y-66051694D01*
X147504891Y-38164207D02*
X147507640Y-38139622D01*
X161057000Y-47542000D02*
X164105000Y-47542000D01*
X148439062Y-56790858D02*
X148463384Y-56789670D01*
X130544264Y-85577694D02*
X130519543Y-85576776D01*
X148177047Y-53735415D02*
X148154098Y-53727270D01*
X147587137Y-72723266D02*
X147577317Y-72700560D01*
X171307622Y-85570359D02*
X171283113Y-85567004D01*
X147574950Y-53168847D02*
X147565975Y-53146210D01*
X147597515Y-76884277D02*
X147608445Y-76862085D01*
X147616277Y-53257011D02*
X147605143Y-53235354D01*
X171045439Y-85500682D02*
X171022733Y-85490862D01*
X170430925Y-25000074D02*
X170424863Y-25000000D01*
X171258694Y-64066956D02*
X171283113Y-64062995D01*
X126314382Y-85244637D02*
X126297664Y-85262870D01*
X170445722Y-103933038D02*
X170450214Y-103908909D01*
X129568925Y-65052074D02*
X129562863Y-65052000D01*
X130470207Y-64056891D02*
X130494852Y-64054752D01*
X130326019Y-26970031D02*
X130302287Y-26963776D01*
X149485043Y-38090694D02*
X149489004Y-38115113D01*
X149481083Y-52982585D02*
X149476078Y-53006417D01*
X108756078Y-20528603D02*
X108714120Y-20617316D01*
X170638239Y-83968466D02*
X170653559Y-83949042D01*
X108638000Y-25000000D02*
X126575136Y-25000000D01*
X126043828Y-65932078D02*
X126021914Y-65943554D01*
X166455735Y-46525694D02*
X166431000Y-46526000D01*
X126476784Y-65471437D02*
X126466131Y-65493764D01*
X167334989Y-26427555D02*
X167324224Y-26449611D01*
X167413854Y-84762380D02*
X167408993Y-84786635D01*
X147500000Y-57789000D02*
X147500296Y-57764650D01*
X167437136Y-65052000D02*
X167431074Y-65052074D01*
X167223760Y-65661533D02*
X167208440Y-65680957D01*
X149464336Y-53053679D02*
X149457605Y-53077082D01*
X167430698Y-104079458D02*
X167431000Y-104104000D01*
X167390831Y-84858576D02*
X167383597Y-84882233D01*
X126501992Y-26359895D02*
X126492879Y-26382683D01*
X167430698Y-26024541D02*
X167430698Y-26024541D01*
X187397459Y-44524695D02*
X187448787Y-44520787D01*
X148635545Y-34253771D02*
X148610996Y-34256820D01*
X147519519Y-96644381D02*
X147524683Y-96620188D01*
X126496417Y-45151971D02*
X126505385Y-45175026D01*
X147805890Y-57069130D02*
X147823624Y-57052442D01*
X149492359Y-38139622D02*
X149495108Y-38164207D01*
X149368063Y-76818546D02*
X149380078Y-76840171D01*
X132895000Y-86594000D02*
X135943000Y-86594000D01*
X188357184Y-20901982D02*
X188342785Y-20804909D01*
X129571709Y-104030435D02*
X129571709Y-104030435D01*
X187557090Y-20019214D02*
X187460017Y-20004815D01*
X167238594Y-85167737D02*
X167223760Y-85187533D01*
X147559378Y-76975543D02*
X147568062Y-76952380D01*
X129949630Y-65837099D02*
X129930400Y-65821538D01*
X167430698Y-26024541D02*
X167429795Y-26049067D01*
X171406264Y-66051694D02*
X171381543Y-66050776D01*
X130372381Y-85558480D02*
X130348188Y-85553316D01*
X166948773Y-64196482D02*
X166969777Y-64209551D01*
X171406264Y-85577694D02*
X171381543Y-85576776D01*
X129661215Y-84997437D02*
X129651118Y-84974854D01*
X147559378Y-37923543D02*
X147568062Y-37900380D01*
X167142500Y-83875314D02*
X167159664Y-83893129D01*
X171164287Y-103140223D02*
X171188019Y-103133968D01*
X171048316Y-103180120D02*
X171071104Y-103171007D01*
X130470207Y-44530891D02*
X130494852Y-44528752D01*
X171022733Y-85490862D02*
X171000277Y-85480484D01*
X136324000Y-49066000D02*
X132514000Y-49066000D01*
X116283400Y-63036000D02*
X115902400Y-61512000D01*
X188362000Y-21000000D02*
X188357184Y-20901982D01*
X126554277Y-103933038D02*
X126558176Y-103957269D01*
X149328863Y-33822451D02*
X149314771Y-33842782D01*
X148154098Y-56850729D02*
X148177047Y-56842584D01*
X187746665Y-103021661D02*
X187793440Y-103000169D01*
X147608445Y-33715914D02*
X147597515Y-33693722D01*
X166627618Y-83597519D02*
X166651811Y-83602683D01*
X170431075Y-65064271D02*
X170430925Y-65052074D01*
X148586379Y-76318737D02*
X148610996Y-76321179D01*
X119712400Y-41986000D02*
X119331400Y-43510000D01*
X147523921Y-53006417D02*
X147518916Y-52982585D01*
X188350283Y-63189850D02*
X188356787Y-63138787D01*
X129591006Y-84369364D02*
X129596466Y-84345236D01*
X171000277Y-83675515D02*
X171022733Y-83665137D01*
X148586379Y-34259262D02*
X148561709Y-34261094D01*
X149489004Y-77167113D02*
X149492359Y-77191622D01*
X147519519Y-72511618D02*
X147514956Y-72487305D01*
X126568315Y-65014998D02*
X126568924Y-65039728D01*
X148561709Y-37264905D02*
X148586379Y-37266737D01*
X148487728Y-37263075D02*
X148499925Y-37262925D01*
X148036179Y-76429070D02*
X148058235Y-76417868D01*
X148364454Y-92831771D02*
X148339988Y-92828115D01*
X147797314Y-96129499D02*
X147815129Y-96112335D01*
X166651811Y-64076683D02*
X166675869Y-64082443D01*
X170478402Y-65356233D02*
X170471168Y-65332576D01*
X147510995Y-77167113D02*
X147514956Y-77142694D01*
X167406702Y-103884898D02*
X167411785Y-103908909D01*
X126562820Y-84688996D02*
X126559771Y-84713545D01*
X167316929Y-45989820D02*
X167305184Y-46011593D01*
X129911560Y-83824492D02*
X129930400Y-83808461D01*
X149069580Y-92662935D02*
X149049074Y-92676773D01*
X129569000Y-105097863D02*
X129569000Y-104104000D01*
X148342277Y-53776483D02*
X148318279Y-53772350D01*
X171162222Y-44562797D02*
X171186130Y-44556443D01*
X126376594Y-85167737D02*
X126361760Y-85187533D01*
X129596466Y-45758763D02*
X129591006Y-45734635D01*
X125618456Y-44527223D02*
X125643147Y-44528752D01*
X147890466Y-92633760D02*
X147871042Y-92618440D01*
X148512271Y-76315075D02*
X148537001Y-76315684D01*
X130072546Y-64183936D02*
X130094171Y-64171921D01*
X147529504Y-57547880D02*
X147535663Y-57524320D01*
X126483209Y-103698758D02*
X126492879Y-103721316D01*
X130398038Y-26985277D02*
X130373909Y-26980785D01*
X126513780Y-64724296D02*
X126521597Y-64747766D01*
X126568924Y-45538271D02*
X126568315Y-45563001D01*
X125908456Y-83637378D02*
X125931619Y-83646062D01*
X148243251Y-92807478D02*
X148219423Y-92800831D01*
X170478402Y-84882233D02*
X170471168Y-84858576D01*
X129570204Y-104054932D02*
X129571709Y-104030435D01*
X148963820Y-73200929D02*
X148941764Y-73212131D01*
X170613415Y-103528191D02*
X170627792Y-103508300D01*
X126184231Y-103315653D02*
X126203393Y-103330989D01*
X188356787Y-82664787D02*
X188360695Y-82613459D01*
X126061898Y-26870086D02*
X126040396Y-26881921D01*
X109349847Y-66098594D02*
X109301137Y-66115243D01*
X170792400Y-83808461D02*
X170811630Y-83792900D01*
X147730461Y-96202400D02*
X147746492Y-96183560D01*
X166603305Y-66037043D02*
X166578886Y-66041004D01*
X149485043Y-33435305D02*
X149480480Y-33459618D01*
X167430924Y-65039728D02*
X167431074Y-65051925D01*
X129875098Y-46246070D02*
X129857499Y-46228685D01*
X109073591Y-27182104D02*
X109032100Y-27212571D01*
X148780576Y-34222831D02*
X148756748Y-34229478D01*
X149464336Y-57524320D02*
X149470495Y-57547880D01*
X160676000Y-29540000D02*
X161057000Y-28016000D01*
X132895000Y-102088000D02*
X132895000Y-102088000D01*
X126551854Y-84393619D02*
X126556115Y-84417988D01*
X161057000Y-82562000D02*
X160676000Y-81038000D01*
X130300222Y-46489202D02*
X130276479Y-46482259D01*
X149314771Y-76735217D02*
X149328863Y-76755548D01*
X130494852Y-46523247D02*
X130470207Y-46521108D01*
X167338784Y-84997437D02*
X167328131Y-85019764D01*
X130163758Y-26914209D02*
X130141444Y-26903989D01*
X147559378Y-33602456D02*
X147551269Y-33579085D01*
X125618456Y-66050776D02*
X125593735Y-66051694D01*
X167324224Y-26449611D02*
X167312921Y-26471396D01*
X130051226Y-83722482D02*
X130072546Y-83709936D01*
X147938068Y-53616184D02*
X147918093Y-53602256D01*
X170934546Y-44657936D02*
X170956171Y-44645921D01*
X171091543Y-46466621D02*
X171068380Y-46457937D01*
X187650152Y-103057405D02*
X187698862Y-103040756D01*
X166529017Y-26995184D02*
X166504564Y-26997290D01*
X116283400Y-82562000D02*
X115902400Y-81038000D01*
X170586146Y-103569002D02*
X170599530Y-103548429D01*
X129949630Y-85363099D02*
X129930400Y-85347538D01*
X149431937Y-76952380D02*
X149440621Y-76975543D01*
X167431074Y-45525925D02*
X167437136Y-45526000D01*
X130396694Y-46511043D02*
X130372381Y-46506480D01*
X147584474Y-57386740D02*
X147594540Y-57364567D01*
X148684380Y-76332145D02*
X148708635Y-76337006D01*
X126372207Y-103508300D02*
X126386584Y-103528191D01*
X147685228Y-37683217D02*
X147699819Y-37663240D01*
X108720338Y-47141334D02*
X108701243Y-47189137D01*
X129609168Y-65332576D02*
X129602521Y-65308748D01*
X166721284Y-26956940D02*
X166697712Y-26963776D01*
X129632614Y-65402973D02*
X129624219Y-65379703D01*
X130076101Y-26870086D02*
X130054897Y-26857728D01*
X177287600Y-68592000D02*
X177668600Y-67068000D01*
X167429094Y-65113709D02*
X167427262Y-65138379D01*
X125954560Y-46448682D02*
X125931619Y-46457937D01*
X147714900Y-76695630D02*
X147730461Y-76676400D01*
X149328863Y-72874451D02*
X149314771Y-72894782D01*
X130209104Y-26932992D02*
X130186316Y-26923879D01*
X130372381Y-46506480D02*
X130348188Y-46501316D01*
X170481471Y-103790318D02*
X170489455Y-103767110D01*
X108791777Y-86056572D02*
X108765663Y-86100933D01*
X119687000Y-49066000D02*
X115877000Y-49066000D01*
X108649716Y-27862149D02*
X108643212Y-27913212D01*
X171406264Y-44526305D02*
X171431000Y-44526000D01*
X170892222Y-46368448D02*
X170871548Y-46354863D01*
X148500000Y-73321136D02*
X148499925Y-73315074D01*
X149434024Y-53146210D02*
X149425049Y-53168847D01*
X170737098Y-44805929D02*
X170755122Y-44788985D01*
X147507403Y-57667540D02*
X147510655Y-57643407D01*
X170464521Y-84321251D02*
X170471168Y-84297423D01*
X109602540Y-46527304D02*
X109551212Y-46531212D01*
X167430924Y-45513728D02*
X167431074Y-45525925D01*
X130229543Y-85518621D02*
X130206380Y-85509937D01*
X171000277Y-46428484D02*
X170978085Y-46417554D01*
X148487728Y-53788924D02*
X148463384Y-53788329D01*
X125667017Y-26995184D02*
X125642564Y-26997290D01*
X129645120Y-103721316D02*
X129654790Y-103698758D01*
X126575136Y-25000000D02*
X126569074Y-25000074D01*
X167280099Y-64523766D02*
X167292905Y-64544931D01*
X126575136Y-65052000D02*
X126575136Y-65052000D01*
X129807355Y-83930004D02*
X129823617Y-83911362D01*
X126556115Y-45365988D02*
X126559771Y-45390454D01*
X132895000Y-67068000D02*
X135943000Y-67068000D01*
X171258694Y-85563043D02*
X171234381Y-85558480D01*
X149120809Y-57005038D02*
X149139714Y-57020387D01*
X171140715Y-26956940D02*
X171117318Y-26949528D01*
X126043828Y-83697921D02*
X126065453Y-83709936D01*
X129724146Y-103569002D02*
X129737530Y-103548429D01*
X149166637Y-73060382D02*
X149147995Y-73076644D01*
X147565975Y-57431789D02*
X147574950Y-57409152D01*
X130445622Y-64059640D02*
X130470207Y-64056891D01*
X109654000Y-103104000D02*
X125569000Y-103104000D01*
X147543740Y-96548479D02*
X147551269Y-96524914D01*
X147657551Y-92379777D02*
X147644482Y-92358773D01*
X147755198Y-53456285D02*
X147739170Y-53437952D01*
X130519543Y-44527223D02*
X130544264Y-44526305D01*
X129569684Y-65089001D02*
X129569075Y-65064271D01*
X126203393Y-103330989D02*
X126222172Y-103346791D01*
X170516790Y-103698758D02*
X170527010Y-103676444D01*
X126124570Y-103272530D02*
X126144808Y-103286415D01*
X129581884Y-64891988D02*
X129586145Y-64867619D01*
X126513780Y-84905703D02*
X126505385Y-84928973D01*
X167397478Y-84321251D02*
X167403533Y-84345236D01*
X148660011Y-95853884D02*
X148684380Y-95858145D01*
X170431075Y-45513728D02*
X170431684Y-45488998D01*
X148500000Y-76308863D02*
X148500074Y-76314925D01*
X130030222Y-65894448D02*
X130009548Y-65880863D01*
X147577317Y-92226560D02*
X147568062Y-92203619D01*
X149412862Y-33671266D02*
X149402484Y-33693722D01*
X187883427Y-83424222D02*
X187926408Y-83395895D01*
X147501223Y-91890456D02*
X147500305Y-91865735D01*
X129823617Y-83911362D02*
X129840335Y-83893129D01*
X147898464Y-56990154D02*
X147918093Y-56975743D01*
X147514956Y-77142694D02*
X147519519Y-77118381D01*
X132895000Y-47542000D02*
X135943000Y-47542000D01*
X126043828Y-44645921D02*
X126065453Y-44657936D01*
X130519543Y-46524776D02*
X130494852Y-46523247D01*
X188149428Y-44131899D02*
X188179895Y-44090408D01*
X167280099Y-44997766D02*
X167292905Y-45018931D01*
X116258000Y-28016000D02*
X116258000Y-28016000D01*
X130446589Y-103111520D02*
X130470982Y-103108815D01*
X166675869Y-64082443D02*
X166699777Y-64088797D01*
X125716886Y-44536995D02*
X125741305Y-44540956D01*
X126021914Y-44634445D02*
X126043828Y-44645921D01*
X149211432Y-57086245D02*
X149228333Y-57103776D01*
X126297664Y-44841129D02*
X126314382Y-44859362D01*
X147619921Y-92315828D02*
X147608445Y-92293914D01*
X109551212Y-46531212D02*
X109500149Y-46537716D01*
X166990451Y-44697136D02*
X167010782Y-44711228D01*
X188208222Y-83099427D02*
X188234336Y-83055066D01*
X130183439Y-65974682D02*
X130160733Y-65964862D01*
X130229543Y-65992621D02*
X130206380Y-65983937D01*
X167050369Y-83792900D02*
X167069599Y-83808461D01*
X129707094Y-65559068D02*
X129694815Y-65537593D01*
X126342010Y-26634393D02*
X126326208Y-26653172D01*
X166723520Y-66008259D02*
X166699777Y-66015202D01*
X160676000Y-88118000D02*
X161057000Y-86594000D01*
X147594540Y-53213432D02*
X147584474Y-53191259D01*
X130276479Y-83621740D02*
X130300222Y-83614797D01*
X170433709Y-26073564D02*
X170432204Y-26049067D01*
X171114914Y-85526730D02*
X171091543Y-85518621D01*
X170623405Y-65641737D02*
X170609064Y-65621580D01*
X126330644Y-65699995D02*
X126314382Y-65718637D01*
X126361760Y-44916466D02*
X126376594Y-44936262D01*
X147833362Y-34008382D02*
X147815129Y-33991664D01*
X109654000Y-64052000D02*
X125569000Y-64052000D01*
X132895000Y-63036000D02*
X132514000Y-61512000D01*
X149300180Y-72914759D02*
X149285099Y-72934369D01*
X126443184Y-64566406D02*
X126454929Y-64588179D01*
X129844752Y-26689540D02*
X129828048Y-26671558D01*
X130138277Y-65954484D02*
X130116085Y-65943554D01*
X171138479Y-85534259D02*
X171114914Y-85526730D01*
X188298756Y-82914862D02*
X188315405Y-82866152D01*
X148586379Y-73311262D02*
X148561709Y-73313094D01*
X171071104Y-26932992D02*
X171048316Y-26923879D01*
X148413620Y-95844737D02*
X148438290Y-95842905D01*
X126065453Y-64183936D02*
X126086773Y-64196482D01*
X188362000Y-67068000D02*
X187346000Y-66052000D01*
X164105000Y-47542000D02*
X164486000Y-49066000D01*
X171000277Y-44623515D02*
X171022733Y-44613137D01*
X166767889Y-103162455D02*
X166790895Y-103171007D01*
X188341202Y-43714519D02*
X188350283Y-43663850D01*
X149237014Y-92516877D02*
X149220070Y-92534901D01*
X166431000Y-64052000D02*
X166455735Y-64052305D01*
X170443884Y-64891988D02*
X170448145Y-64867619D01*
X148586379Y-37266737D02*
X148610996Y-37269179D01*
X167010782Y-65866771D02*
X166990451Y-65880863D01*
X126439086Y-103611101D02*
X126450921Y-103632603D01*
X125931619Y-85509937D02*
X125908456Y-85518621D01*
X130252914Y-64103269D02*
X130276479Y-64095740D01*
X109255316Y-20076120D02*
X109166603Y-20118078D01*
X149469556Y-38018130D02*
X149475316Y-38042188D01*
X109500149Y-27011716D02*
X109449480Y-27020797D01*
X148172296Y-92785780D02*
X148149026Y-92777385D01*
X166480456Y-83579223D02*
X166505147Y-83580752D01*
X167280099Y-85106233D02*
X167266773Y-85127074D01*
X130206380Y-44594062D02*
X130229543Y-44585378D01*
X148804233Y-76362402D02*
X148827703Y-76370219D01*
X126188369Y-46311099D02*
X126168759Y-46326180D01*
X170581900Y-85106233D02*
X170569094Y-85085068D01*
X166455735Y-64052305D02*
X166480456Y-64053223D01*
X148827703Y-37318219D02*
X148850973Y-37326614D01*
X147871042Y-92618440D02*
X147852004Y-92602644D01*
X129875098Y-83857929D02*
X129893122Y-83840985D01*
X147950925Y-73150773D02*
X147930419Y-73136935D01*
X126357346Y-103488768D02*
X126372207Y-103508300D01*
X129751415Y-26575808D02*
X129737530Y-26555570D01*
X129761405Y-83988262D02*
X129776239Y-83968466D01*
X147657551Y-72853777D02*
X147644482Y-72832773D01*
X161057000Y-102088000D02*
X160676000Y-100564000D01*
X147501185Y-52837684D02*
X147500296Y-52813349D01*
X126532776Y-103837287D02*
X126539031Y-103861019D01*
X129569075Y-45513728D02*
X129569684Y-45488998D01*
X170440228Y-84713545D02*
X170437179Y-84688996D01*
X148086536Y-56878479D02*
X148108829Y-56868681D01*
X167413854Y-84393619D02*
X167418115Y-84417988D01*
X188082389Y-63735990D02*
X188116898Y-63697794D01*
X170875429Y-26831469D02*
X170855191Y-26817584D01*
X166673980Y-26970031D02*
X166650101Y-26975702D01*
X187346000Y-27000000D02*
X171431000Y-27000000D01*
X129911560Y-46279507D02*
X129893122Y-46263014D01*
X130094171Y-83697921D02*
X130116085Y-83686445D01*
X116283400Y-63036000D02*
X116283400Y-63036000D01*
X125569000Y-46526000D02*
X109654000Y-46526000D01*
X147971766Y-34112099D02*
X147950925Y-34098773D01*
X108850571Y-85972100D02*
X108820104Y-86013591D01*
X125741305Y-44540956D02*
X125765618Y-44545519D01*
X147665982Y-57237262D02*
X147679664Y-57217117D01*
X129569684Y-65014998D02*
X129570905Y-64990290D01*
X171068380Y-83646062D02*
X171091543Y-83637378D01*
X170448145Y-84393619D02*
X170453006Y-84369364D01*
X148732763Y-34235533D02*
X148708635Y-34240993D01*
X126128451Y-44697136D02*
X126148782Y-44711228D01*
X109073591Y-46708104D02*
X109032100Y-46738571D01*
X167176382Y-44859362D02*
X167192644Y-44878004D01*
X149391554Y-96388085D02*
X149402484Y-96410277D01*
X119712400Y-100564000D02*
X119331400Y-102088000D01*
X148389003Y-73308820D02*
X148364454Y-73305771D01*
X126496417Y-84952028D02*
X126486881Y-84974854D01*
X125692377Y-44533640D02*
X125716886Y-44536995D01*
X125569000Y-103104000D02*
X125593541Y-103104301D01*
X170669355Y-65699995D02*
X170653559Y-65680957D01*
X147890466Y-37470239D02*
X147910262Y-37455405D01*
X126404773Y-65601074D02*
X126390935Y-65621580D01*
X109082429Y-20168530D02*
X109003606Y-20226989D01*
X149269538Y-96202400D02*
X149285099Y-96221630D01*
X125905889Y-26941544D02*
X125882681Y-26949528D01*
X147507640Y-38139622D02*
X147510995Y-38115113D01*
X130229543Y-44585378D02*
X130252914Y-44577269D01*
X149485043Y-96668694D02*
X149489004Y-96693113D01*
X148684380Y-37280145D02*
X148708635Y-37285006D01*
X130349898Y-103128297D02*
X130373909Y-103123214D01*
X167088439Y-83824492D02*
X167106877Y-83840985D01*
X166747085Y-85526730D02*
X166723520Y-85534259D01*
X126535478Y-84834748D02*
X126528831Y-84858576D01*
X170513118Y-84181145D02*
X170523215Y-84158562D01*
X149109533Y-73107760D02*
X149089737Y-73122594D01*
X126309951Y-103432441D02*
X126326208Y-103450827D01*
X129879459Y-26724247D02*
X129861893Y-26707106D01*
X148756748Y-95874521D02*
X148780576Y-95881168D01*
X170458466Y-84345236D02*
X170464521Y-84321251D01*
X126535478Y-84321251D02*
X126541533Y-84345236D01*
X161057000Y-47542000D02*
X161057000Y-47542000D01*
X170450214Y-26195090D02*
X170445722Y-26170961D01*
X109349847Y-27046594D02*
X109301137Y-27063243D01*
X148963820Y-34148929D02*
X148941764Y-34160131D01*
X126293247Y-103414459D02*
X126309951Y-103432441D01*
X129632614Y-84928973D02*
X129624219Y-84905703D01*
X126297664Y-85262870D02*
X126280500Y-85280685D01*
X188362000Y-86594000D02*
X187346000Y-85578000D01*
X167208440Y-64423042D02*
X167223760Y-64442466D01*
X149342448Y-76776222D02*
X149355517Y-76797226D01*
X129969240Y-85378180D02*
X129949630Y-85363099D01*
X148657722Y-53776483D02*
X148633630Y-53780031D01*
X129893122Y-65789014D02*
X129875098Y-65772070D01*
X177287600Y-29540000D02*
X177668600Y-28016000D01*
X167262469Y-103548429D02*
X167275853Y-103569002D01*
X167050369Y-46311099D02*
X167030759Y-46326180D01*
X188315405Y-63340152D02*
X188329566Y-63290662D01*
X166697712Y-26963776D02*
X166673980Y-26970031D01*
X171283113Y-66041004D02*
X171258694Y-66037043D01*
X171162222Y-46489202D02*
X171138479Y-46482259D01*
X167437136Y-25000000D02*
X167431074Y-25000074D01*
X160676000Y-81038000D02*
X160676000Y-81038000D01*
X132514000Y-88118000D02*
X132895000Y-86594000D01*
X130054897Y-103246271D02*
X130076101Y-103233913D01*
X148500000Y-34269136D02*
X148499925Y-34263074D01*
X147502752Y-33337147D02*
X147501223Y-33312456D01*
X130051226Y-44670482D02*
X130072546Y-44657936D01*
X148500074Y-37262925D02*
X148512271Y-37263075D01*
X126569074Y-45526074D02*
X126568924Y-45538271D01*
X108741830Y-47094559D02*
X108720338Y-47141334D01*
X147507640Y-72438377D02*
X147504891Y-72413792D01*
X129823617Y-85244637D02*
X129807355Y-85225995D01*
X167223760Y-83968466D02*
X167238594Y-83988262D01*
X148149026Y-34199385D02*
X148125971Y-34190417D01*
X167411785Y-26195090D02*
X167406702Y-26219101D01*
X149342448Y-92379777D02*
X149328863Y-92400451D01*
X130160733Y-83665137D02*
X130183439Y-83655317D01*
X130255318Y-103154471D02*
X130278715Y-103147059D01*
X129930400Y-64282461D02*
X129949630Y-64266900D01*
X170669355Y-83930004D02*
X170685617Y-83911362D01*
X166627618Y-44545519D02*
X166651811Y-44550683D01*
X126040396Y-26881921D02*
X126018611Y-26893224D01*
X147549692Y-57477686D02*
X147557554Y-57454638D01*
X147530443Y-77070130D02*
X147536797Y-77046222D01*
X126556115Y-45686011D02*
X126551854Y-45710380D01*
X126513780Y-45853703D02*
X126505385Y-45876973D01*
X167316929Y-45062179D02*
X167328131Y-45084235D01*
X170430925Y-65051925D02*
X170431075Y-65039728D01*
X170537775Y-103654388D02*
X170549078Y-103632603D01*
X132514000Y-41986000D02*
X136324000Y-41986000D01*
X126541533Y-84810763D02*
X126535478Y-84834748D01*
X147898464Y-53587845D02*
X147879190Y-53572961D01*
X170545070Y-45989820D02*
X170533868Y-45967764D01*
X170467223Y-26266712D02*
X170460968Y-26242980D01*
X108638000Y-86594000D02*
X108638000Y-102088000D01*
X167427262Y-45612379D02*
X167424820Y-45636996D01*
X170471168Y-45806576D02*
X170464521Y-45782748D01*
X126314382Y-44859362D02*
X126330644Y-44878004D01*
X108684594Y-47237847D02*
X108670433Y-47287337D01*
X188279661Y-43910665D02*
X188298756Y-43862862D01*
X147950925Y-96005226D02*
X147971766Y-95991900D01*
X126086773Y-85433517D02*
X126065453Y-85446063D01*
X149314771Y-37683217D02*
X149328863Y-37703548D01*
X126565262Y-65138379D02*
X126562820Y-65162996D01*
X170773560Y-64298492D02*
X170792400Y-64282461D01*
X147500000Y-27000000D02*
X130569000Y-27000000D01*
X188243921Y-20528603D02*
X188193469Y-20444429D01*
X188045990Y-63772389D02*
X188082389Y-63735990D01*
X126043828Y-46406078D02*
X126021914Y-46417554D01*
X170474059Y-103813715D02*
X170481471Y-103790318D01*
X129575179Y-45415003D02*
X129578228Y-45390454D01*
X170431301Y-104079458D02*
X170432204Y-104054932D01*
X166839266Y-83665137D02*
X166861722Y-83675515D01*
X167390831Y-45245423D02*
X167397478Y-45269251D01*
X170737098Y-65772070D02*
X170719499Y-65754685D01*
X167429795Y-104054932D02*
X167430698Y-104079458D01*
X167208440Y-44897042D02*
X167223760Y-44916466D01*
X147823624Y-57052442D02*
X147841760Y-57036191D01*
X149007068Y-95979094D02*
X149028233Y-95991900D01*
X126376594Y-46115737D02*
X126361760Y-46135533D01*
X119306000Y-47542000D02*
X119687000Y-49066000D01*
X149456259Y-77022479D02*
X149463202Y-77046222D01*
X130422269Y-103114823D02*
X130446589Y-103111520D01*
X108714120Y-20617316D02*
X108681059Y-20709715D01*
X188234336Y-63529066D02*
X188258169Y-63483440D01*
X170431684Y-65014998D02*
X170432905Y-64990290D01*
X167383597Y-84882233D02*
X167375780Y-84905703D01*
X149355517Y-76797226D02*
X149368063Y-76818546D01*
X171406458Y-103104301D02*
X171431000Y-103104000D01*
X171068380Y-85509937D02*
X171045439Y-85500682D01*
X130396694Y-64066956D02*
X130421113Y-64062995D01*
X177287600Y-49066000D02*
X177668600Y-47542000D01*
X170913226Y-83722482D02*
X170934546Y-83709936D01*
X126418099Y-46054233D02*
X126404773Y-46075074D01*
X129570204Y-26049067D02*
X129569301Y-26024541D01*
X149495108Y-96742207D02*
X149497247Y-96766852D01*
X166505147Y-46523247D02*
X166480456Y-46524776D01*
X126505385Y-45175026D02*
X126513780Y-45198296D01*
X171048316Y-26923879D02*
X171025758Y-26914209D01*
X147502752Y-38188852D02*
X147504891Y-38164207D01*
X167427262Y-64965620D02*
X167429094Y-64990290D01*
X132514000Y-61512000D02*
X132514000Y-61512000D01*
X149485043Y-77142694D02*
X149489004Y-77167113D01*
X129747064Y-64482419D02*
X129761405Y-64462262D01*
X129733226Y-84028925D02*
X129747064Y-84008419D01*
X126222172Y-103346791D02*
X126240558Y-103363048D01*
X108720338Y-27615334D02*
X108701243Y-27663137D01*
X129911560Y-44772492D02*
X129930400Y-44756461D01*
X108639304Y-67016540D02*
X108638000Y-67068000D01*
X167223760Y-44916466D02*
X167238594Y-44936262D01*
X129857499Y-83875314D02*
X129875098Y-83857929D01*
X167192644Y-65699995D02*
X167176382Y-65718637D01*
X130116085Y-85469554D02*
X130094171Y-85458078D01*
X149480480Y-72511618D02*
X149475316Y-72535811D01*
X170685617Y-65718637D02*
X170669355Y-65699995D01*
X126164699Y-103300792D02*
X126184231Y-103315653D01*
X148896854Y-34180881D02*
X148874028Y-34190417D01*
X170792400Y-44756461D02*
X170811630Y-44740900D01*
X126450921Y-26471396D02*
X126439086Y-26492898D01*
X109449480Y-27020797D02*
X109399337Y-27032433D01*
X167397478Y-65308748D02*
X167390831Y-65332576D01*
X125667792Y-46521108D02*
X125643147Y-46523247D01*
X130183439Y-83655317D02*
X130206380Y-83646062D01*
X171332207Y-46521108D02*
X171307622Y-46518359D01*
X171308589Y-26992479D02*
X171284269Y-26989176D01*
X149500000Y-77315000D02*
X149500000Y-83578000D01*
X130544264Y-46525694D02*
X130519543Y-46524776D01*
X166723520Y-64095740D02*
X166747085Y-64103269D01*
X149500000Y-72315000D02*
X149499694Y-72339735D01*
X147577317Y-96455439D02*
X147587137Y-96432733D01*
X129993191Y-26817584D02*
X129973300Y-26803207D01*
X126021914Y-64160445D02*
X126043828Y-64171921D01*
X147871042Y-76537559D02*
X147890466Y-76522239D01*
X129930400Y-85347538D02*
X129911560Y-85331507D01*
X130422269Y-26989176D02*
X130398038Y-26985277D01*
X130445622Y-83585640D02*
X130470207Y-83582891D01*
X166747085Y-66000730D02*
X166723520Y-66008259D01*
X170503582Y-64677971D02*
X170513118Y-64655145D01*
X149469556Y-92085869D02*
X149463202Y-92109777D01*
X149253507Y-33920439D02*
X149237014Y-33938877D01*
X188082389Y-83261990D02*
X188116898Y-83223794D01*
X129605223Y-26266712D02*
X129598968Y-26242980D01*
X148500074Y-95840925D02*
X148512271Y-95841075D01*
X130160733Y-65964862D02*
X130138277Y-65954484D01*
X148660011Y-76327884D02*
X148684380Y-76332145D01*
X167275853Y-103569002D02*
X167288728Y-103589897D01*
X130544264Y-64052305D02*
X130569000Y-64052000D01*
X129747064Y-65621580D02*
X129733226Y-65601074D01*
X149237014Y-72990877D02*
X149220070Y-73008901D01*
X147514956Y-92013305D02*
X147510995Y-91988886D01*
X187650152Y-83531405D02*
X187698862Y-83514756D01*
X129616402Y-45221766D02*
X129624219Y-45198296D01*
X166431000Y-27000000D02*
X149500000Y-27000000D01*
X108643212Y-86491212D02*
X108639304Y-86542540D01*
X126164699Y-26803207D02*
X126144808Y-26817584D01*
X170569094Y-65559068D02*
X170556815Y-65537593D01*
X147852004Y-73076644D02*
X147833362Y-73060382D01*
X148270621Y-56815662D02*
X148294389Y-56810366D01*
X167010782Y-85392771D02*
X166990451Y-85406863D01*
X170467223Y-103837287D02*
X170474059Y-103813715D01*
X126562820Y-45415003D02*
X126565262Y-45439620D01*
X126546993Y-45317364D02*
X126551854Y-45341619D01*
X167380528Y-103790318D02*
X167387940Y-103813715D01*
X149500000Y-33263000D02*
X149499694Y-33287735D01*
X147779929Y-96147098D02*
X147797314Y-96129499D01*
X130421113Y-66041004D02*
X130396694Y-66037043D01*
X149276405Y-57158766D02*
X149291521Y-57177858D01*
X129719900Y-65580233D02*
X129707094Y-65559068D01*
X119687000Y-29540000D02*
X115877000Y-29540000D01*
X149497247Y-96766852D02*
X149498776Y-96791543D01*
X149495108Y-72413792D02*
X149492359Y-72438377D01*
X126569074Y-84577925D02*
X126575136Y-84578000D01*
X109654000Y-66052000D02*
X109602540Y-66053304D01*
X129571709Y-26073564D02*
X129570204Y-26049067D01*
X166529792Y-83582891D02*
X166554377Y-83585640D01*
X166699777Y-46489202D02*
X166675869Y-46495556D01*
X170981388Y-26893224D02*
X170959603Y-26881921D01*
X149495259Y-57691746D02*
X149497332Y-57716009D01*
X130470207Y-66047108D02*
X130445622Y-66044359D01*
X171210188Y-44550683D02*
X171234381Y-44545519D01*
X126168759Y-65852180D02*
X126148782Y-65866771D01*
X170503582Y-65426028D02*
X170494614Y-65402973D01*
X130076101Y-103233913D02*
X130097603Y-103222078D01*
X129575179Y-45636996D02*
X129572737Y-45612379D01*
X130324130Y-66021556D02*
X130300222Y-66015202D01*
X126541533Y-84345236D02*
X126546993Y-84369364D01*
X170719499Y-44823314D02*
X170737098Y-44805929D01*
X126486881Y-65448854D02*
X126476784Y-65471437D01*
X126541533Y-65284763D02*
X126535478Y-65308748D01*
X166603305Y-44540956D02*
X166627618Y-44545519D01*
X108701243Y-47189137D02*
X108684594Y-47237847D01*
X147631936Y-76818546D02*
X147644482Y-76797226D01*
X149007068Y-92702905D02*
X148985593Y-92715184D01*
X147930419Y-37441064D02*
X147950925Y-37427226D01*
X170545070Y-45062179D02*
X170556815Y-45040406D01*
X149498814Y-57740315D02*
X149499703Y-57764650D01*
X147910262Y-76507405D02*
X147930419Y-76493064D01*
X171164287Y-26963776D02*
X171140715Y-26956940D01*
X126386584Y-26575808D02*
X126372207Y-26595699D01*
X149450307Y-57477686D02*
X149457605Y-57500917D01*
X170831240Y-44725819D02*
X170851217Y-44711228D01*
X180716600Y-67068000D02*
X181097600Y-68592000D01*
X166836241Y-26914209D02*
X166813683Y-26923879D01*
X126567795Y-104054932D02*
X126568698Y-104079458D01*
X161057000Y-43510000D02*
X161057000Y-43510000D01*
X148438290Y-95842905D02*
X148462998Y-95841684D01*
X148390540Y-53782991D02*
X148366369Y-53780031D01*
X148610996Y-92834820D02*
X148586379Y-92837262D01*
X149359889Y-57278520D02*
X149372064Y-57299609D01*
X125882681Y-26949528D02*
X125859284Y-26956940D01*
X129711271Y-103589897D02*
X129724146Y-103569002D01*
X130324130Y-85547556D02*
X130300222Y-85541202D01*
X108649716Y-86440149D02*
X108643212Y-86491212D01*
X126148782Y-85392771D02*
X126128451Y-85406863D01*
X129578228Y-45390454D02*
X129581884Y-45365988D01*
X126567094Y-45587709D02*
X126565262Y-45612379D01*
X126240558Y-103363048D02*
X126258540Y-103379752D01*
X170896002Y-26844853D02*
X170875429Y-26831469D01*
X167418115Y-65212011D02*
X167413854Y-65236380D01*
X149500000Y-66052000D02*
X149500000Y-72315000D01*
X136324000Y-29540000D02*
X132514000Y-29540000D01*
X171071104Y-103171007D02*
X171094110Y-103162455D01*
X167424820Y-65162996D02*
X167421771Y-65187545D01*
X170431075Y-65039728D02*
X170431684Y-65014998D01*
X115877000Y-68592000D02*
X116258000Y-67068000D01*
X148036179Y-37377070D02*
X148058235Y-37365868D01*
X170537775Y-26449611D02*
X170527010Y-26427555D01*
X148705610Y-56810366D02*
X148729378Y-56815662D01*
X167176382Y-83911362D02*
X167192644Y-83930004D01*
X148318279Y-53772350D02*
X148294389Y-53767633D01*
X166578886Y-66041004D02*
X166554377Y-66044359D01*
X129969240Y-65852180D02*
X129949630Y-65837099D01*
X147833362Y-37517617D02*
X147852004Y-37501355D01*
X149489004Y-33410886D02*
X149485043Y-33435305D01*
X148963820Y-37377070D02*
X148985593Y-37388815D01*
X164105000Y-102088000D02*
X161057000Y-102088000D01*
X125643147Y-83580752D02*
X125667792Y-83582891D01*
X130396694Y-66037043D02*
X130372381Y-66032480D01*
X129694815Y-46011593D02*
X129683070Y-45989820D01*
X129581884Y-84417988D02*
X129586145Y-84393619D01*
X147644482Y-92358773D02*
X147631936Y-92337453D01*
X126476784Y-84997437D02*
X126466131Y-85019764D01*
X166744681Y-26949528D02*
X166721284Y-26956940D01*
X148195766Y-76362402D02*
X148219423Y-76355168D01*
X149383722Y-57320988D02*
X149394856Y-57342645D01*
X129791559Y-46154957D02*
X129776239Y-46135533D01*
X149184870Y-92569664D02*
X149166637Y-92586382D01*
X167159664Y-44841129D02*
X167176382Y-44859362D01*
X147500000Y-96841000D02*
X147500305Y-96816264D01*
X108670433Y-66813337D02*
X108658797Y-66863480D01*
X125569000Y-85578000D02*
X109654000Y-85578000D01*
X166650101Y-26975702D02*
X166626090Y-26980785D01*
X126454929Y-85041820D02*
X126443184Y-85063593D01*
X126554277Y-26170961D02*
X126549785Y-26195090D01*
X129969240Y-64251819D02*
X129989217Y-64237228D01*
X148732763Y-95868466D02*
X148756748Y-95874521D01*
X149498776Y-72364456D02*
X149497247Y-72389147D01*
X170685617Y-85244637D02*
X170669355Y-85225995D01*
X167088439Y-44772492D02*
X167106877Y-44788985D01*
X170796606Y-103330989D02*
X170815768Y-103315653D01*
X126564184Y-26098017D02*
X126561479Y-26122410D01*
X166578886Y-46515004D02*
X166554377Y-46518359D01*
X170424863Y-105104000D02*
X170430925Y-105103925D01*
X171332207Y-44530891D02*
X171356852Y-44528752D01*
X166770456Y-46466621D02*
X166747085Y-46474730D01*
X171307622Y-66044359D02*
X171283113Y-66041004D01*
X147860285Y-53557612D02*
X147841760Y-53541808D01*
X170569094Y-46033068D02*
X170556815Y-46011593D01*
X166505147Y-85575247D02*
X166480456Y-85576776D01*
X170623405Y-64462262D02*
X170638239Y-64442466D01*
X126083102Y-26857728D02*
X126061898Y-26870086D01*
X148512271Y-56789075D02*
X148536615Y-56789670D01*
X148487728Y-92840924D02*
X148462998Y-92840315D01*
X167367385Y-45876973D02*
X167358417Y-45900028D01*
X108806530Y-20444429D02*
X108756078Y-20528603D01*
X149497247Y-33337147D02*
X149495108Y-33361792D01*
X130396694Y-85563043D02*
X130372381Y-85558480D01*
X129737530Y-26555570D02*
X129724146Y-26534997D01*
X167418115Y-45686011D02*
X167413854Y-45710380D01*
X149469556Y-77070130D02*
X149475316Y-77094188D01*
X149440621Y-72654456D02*
X149431937Y-72677619D01*
X167367385Y-84227026D02*
X167375780Y-84250296D01*
X126148782Y-83763228D02*
X126168759Y-83777819D01*
X147536797Y-33531777D02*
X147530443Y-33507869D01*
X181123000Y-41986000D02*
X180742000Y-43510000D01*
X108638000Y-67068000D02*
X108638000Y-82562000D01*
X126390935Y-85147580D02*
X126376594Y-85167737D01*
X166747085Y-46474730D02*
X166723520Y-46482259D01*
X147542394Y-53077082D02*
X147535663Y-53053679D01*
X125811980Y-103133968D02*
X125835712Y-103140223D01*
X148500074Y-76314925D02*
X148512271Y-76315075D01*
X126276106Y-103396893D02*
X126293247Y-103414459D01*
X129586145Y-64867619D02*
X129591006Y-64843364D01*
X147627935Y-57299609D02*
X147640110Y-57278520D01*
X148131354Y-53718570D02*
X148108829Y-53709318D01*
X170431000Y-25006136D02*
X170430925Y-25000074D01*
X167430924Y-65064271D02*
X167430315Y-65089001D01*
X171431000Y-46526000D02*
X171406264Y-46525694D01*
X149355517Y-96323226D02*
X149368063Y-96344546D01*
X129569075Y-84565728D02*
X129569684Y-84540998D01*
X147992931Y-73176905D02*
X147971766Y-73164099D01*
X167050369Y-64266900D02*
X167069599Y-64282461D01*
X188007794Y-44280898D02*
X188045990Y-44246389D01*
X129911560Y-85331507D02*
X129893122Y-85315014D01*
X167301086Y-103611101D02*
X167312921Y-103632603D01*
X187698862Y-63988756D02*
X187746665Y-63969661D01*
X188007794Y-83332898D02*
X188045990Y-83298389D01*
X130421113Y-85567004D02*
X130396694Y-85563043D01*
X149499694Y-72339735D02*
X149498776Y-72364456D01*
X167159664Y-83893129D02*
X167176382Y-83911362D01*
X149342448Y-96302222D02*
X149355517Y-96323226D01*
X149489344Y-52934592D02*
X149485506Y-52958639D01*
X187883427Y-102950222D02*
X187926408Y-102921895D01*
X148633630Y-56797968D02*
X148657722Y-56801516D01*
X125885085Y-46474730D02*
X125861520Y-46482259D01*
X125741305Y-46511043D02*
X125716886Y-46515004D01*
X167305184Y-84092406D02*
X167316929Y-84114179D01*
X115902400Y-41986000D02*
X119712400Y-41986000D01*
X108642815Y-109202017D02*
X108657214Y-109299090D01*
X147665982Y-53340737D02*
X147652795Y-53320266D01*
X170892222Y-85420448D02*
X170871548Y-85406863D01*
X148339988Y-76327884D02*
X148364454Y-76324228D01*
X148804233Y-95888402D02*
X148827703Y-95896219D01*
X167192644Y-83930004D02*
X167208440Y-83949042D01*
X188234336Y-44003066D02*
X188258169Y-43957440D01*
X129989217Y-83763228D02*
X130009548Y-83749136D01*
X130252914Y-85526730D02*
X130229543Y-85518621D01*
X129602521Y-65308748D02*
X129596466Y-65284763D01*
X147549692Y-53100313D02*
X147542394Y-53077082D01*
M02*
